{
.appVersion = "1192";
copyright = "Copyright (c) 2011 by Marcelo Magalhães (marcelomagalhaes.net), with Reserved Font Name \"Londrina Black\"";
customParameters = (
{
name = trademark;
value = "Londrina Black is a trademark of Marcelo Magalh„es.";
},
{
name = vendorID;
value = PYRS;
},
{
name = panose;
value = (
2,
0,
5,
6,
0,
0,
0,
2,
0,
3
);
},
{
name = unicodeRanges;
value = (
0,
1,
2,
3,
5,
31,
33,
35,
36,
45,
62
);
},
{
name = codePageRanges;
value = (
1252
);
},
{
name = blueScale;
value = 0.037;
},
{
name = glyphOrder;
value = (
.notdef,
.null,
CR,
space,
h,
i,
j,
k,
l,
m,
n,
o,
p,
q,
r,
s,
t,
u,
v,
w,
x,
y,
z,
A,
B,
C,
D,
E,
F,
G,
H,
I,
J,
K,
L,
M,
N,
O,
P,
Q,
R,
S,
T,
U,
V,
W,
X,
Y,
Z,
bracketleft,
bracketright,
exclam,
dollar,
parenleft,
parenright,
plus,
hyphen,
slash,
question,
zero,
one,
two,
three,
four,
five,
six,
seven,
eight,
nine,
braceleft,
braceright,
Euro,
plusminus,
Agrave,
Aacute,
Acircumflex,
Atilde,
Egrave,
Eacute,
Ecircumflex,
Ugrave,
Uacute,
Ucircumflex,
ugrave,
uacute,
ucircumflex,
egrave,
eacute,
ecircumflex,
igrave,
iacute,
icircumflex,
Ograve,
Oacute,
Ocircumflex,
Otilde,
agrave,
aacute,
acircumflex,
ograve,
oacute,
ocircumflex,
otilde,
Edieresis,
exclamdown,
Odieresis,
Udieresis,
atilde,
adieresis,
edieresis,
idieresis,
odieresis,
udieresis,
yacute,
ydieresis,
Igrave,
Iacute,
Icircumflex,
d,
period,
ellipsis,
equal,
grave,
Adieresis,
Idieresis,
colon,
divide,
semicolon,
comma,
quotesinglbase,
quotedblleft,
quotedblright,
quoteleft,
quoteright,
quotedblbase,
questiondown,
bar,
backslash,
percent,
less,
greater,
endash,
at,
quotesingle,
quotedbl,
emdash,
underscore,
a,
Ccedilla,
ccedilla,
AE,
ae,
Oslash,
oslash,
numbersign,
ampersand,
asterisk,
bullet,
Ntilde,
aring,
Yacute,
cent,
sterling,
yen,
Ydieresis,
oe,
tilde,
dagger,
daggerdbl,
OE,
florin,
asciitilde,
copyright,
ordfeminine,
dieresis,
circumflex,
registered,
degree,
perthousand,
Aring,
ordmasculine,
ntilde,
onequarter,
onehalf,
threequarters,
acute,
guillemotleft,

glyphs = (
{
glyphname = h;
layers = (
{
hints = (
{
horizontal = 1;
place = "{-7, 21}";
target = up;
type = BottomGhost;
},
{
horizontal = 1;
place = "{331, 169}";
type = Stem;
},
{
place = "{19, 163}";
type = Stem;
},
{
place = "{270, 157}";
type = Stem;
},
{
horizontal = 1;
place = "{-9, 21}";
target = up;
type = BottomGhost;
}
);
layerId = "4AB56EE0-9DC5-4ACD-ABD7-6439ED5BAAD5";
paths = (
{
closed = 1;
nodes = (
"182 523 LINE SMOOTH",
"182 551 OFFCURVE",
"183 583 OFFCURVE",
"183 614 CURVE SMOOTH",
"183 663 OFFCURVE",
"182 710 OFFCURVE",
"181 724 CURVE",
"179 736 OFFCURVE",
"146 733 OFFCURVE",
"121 730 CURVE SMOOTH",
"114 729 OFFCURVE",
"107 728 OFFCURVE",
"104 728 CURVE",
"88 726 OFFCURVE",
"79 726 OFFCURVE",
"71 726 CURVE SMOOTH",
"62 726 OFFCURVE",
"53 726 OFFCURVE",
"21 730 CURVE",
"19 667 OFFCURVE",
"19 572 OFFCURVE",
"19 476 CURVE SMOOTH",
"19 401 OFFCURVE",
"19 267 OFFCURVE",
"20 187 CURVE SMOOTH",
"20 145 OFFCURVE",
"21 106 OFFCURVE",
"21 71 CURVE SMOOTH",
"21 -9 LINE",
"43 -7 OFFCURVE",
"54 -7 OFFCURVE",
"66 -7 CURVE SMOOTH",
"76 -7 OFFCURVE",
"86 -7 OFFCURVE",
"95 -8 CURVE",
"118 -9 OFFCURVE",
"136 -9 OFFCURVE",
"175 1 CURVE",
"178 27 OFFCURVE",
"179 55 OFFCURVE",
"179 81 CURVE SMOOTH",
"179 106 OFFCURVE",
"178 131 OFFCURVE",
"177 156 CURVE SMOOTH",
"176 180 OFFCURVE",
"175 204 OFFCURVE",
"175 229 CURVE SMOOTH",
"175 244 OFFCURVE",
"175 260 OFFCURVE",
"176 275 CURVE SMOOTH",
"178 319 OFFCURVE",
"203 331 OFFCURVE",
"223 331 CURVE SMOOTH",
"233 331 OFFCURVE",
"241 329 OFFCURVE",
"246 326 CURVE",
"252 321 OFFCURVE",
"267 316 OFFCURVE",
"270 250 CURVE SMOOTH",
"271 215 OFFCURVE",
"272 190 OFFCURVE",
"272 159 CURVE SMOOTH",
"272 109 LINE SMOOTH",
"272 68 OFFCURVE",
"272 23 OFFCURVE",
"274 -7 CURVE",
"321 -7 LINE",
"346 -8 OFFCURVE",
"388 -7 OFFCURVE",
"429 -1 CURVE",
"428 20 OFFCURVE",
"427 48 OFFCURVE",
"427 75 CURVE SMOOTH",
"427 107 OFFCURVE",
"428 142 OFFCURVE",
"429 178 CURVE SMOOTH",
"430 220 OFFCURVE",
"431 263 OFFCURVE",
"431 303 CURVE SMOOTH",
"431 383 OFFCURVE",
"425 448 OFFCURVE",
"403 468 CURVE SMOOTH",
"377 491 OFFCURVE",
"340 500 OFFCURVE",
"301 500 CURVE SMOOTH",
"259 500 OFFCURVE",
"214 486 OFFCURVE",
"183 465 CURVE",
"182 465 OFFCURVE",
"183 464 OFFCURVE",
"182 464 CURVE"
);
}
);
width = 448;
}
);
note = h;
rightKerningGroup = h;
unicode = 0068;
},
{
glyphname = i;
layers = (
{
hints = (
{
horizontal = 1;
place = "{-6, 21}";
target = up;
type = BottomGhost;
},
{
horizontal = 1;
place = "{578, 146}";
type = Stem;
},
{
place = "{18, 167}";
type = Stem;
},
{
horizontal = 1;
place = "{726, -20}";
target = down;
type = TopGhost;
},
{
horizontal = 1;
place = "{-11, 21}";
target = up;
type = BottomGhost;
}
);
layerId = "4AB56EE0-9DC5-4ACD-ABD7-6439ED5BAAD5";
paths = (
{
closed = 1;
nodes = (
"20 726 LINE",
"19 697 OFFCURVE",
"20 668 OFFCURVE",
"21 648 CURVE",
"21 643 OFFCURVE",
"22 637 OFFCURVE",
"22 632 CURVE",
"23 615 OFFCURVE",
"24 593 OFFCURVE",
"24 577 CURVE",
"38 578 OFFCURVE",
"54 578 OFFCURVE",
"64 578 CURVE SMOOTH",
"77 578 OFFCURVE",
"88 578 OFFCURVE",
"98 577 CURVE SMOOTH",
"111 576 OFFCURVE",
"125 575 OFFCURVE",
"136 575 CURVE SMOOTH",
"162 575 OFFCURVE",
"183 567 OFFCURVE",
"191 578 CURVE",
"191 602 OFFCURVE",
"188 650 OFFCURVE",
"187 678 CURVE SMOOTH",
"186 696 OFFCURVE",
"186 716 OFFCURVE",
"186 723 CURVE"
);
},
{
closed = 1;
nodes = (
"159 508 LINE",
"115 507 OFFCURVE",
"84 509 OFFCURVE",
"62 510 CURVE",
"50 512 OFFCURVE",
"36 511 OFFCURVE",
"24 509 CURVE",
"20 463 OFFCURVE",
"18 416 OFFCURVE",
"18 366 CURVE SMOOTH",
"18 333 OFFCURVE",
"19 282 OFFCURVE",
"20 248 CURVE SMOOTH",
"21 207 OFFCURVE",
"22 166 OFFCURVE",
"22 124 CURVE SMOOTH",
"22 82 OFFCURVE",
"20 29 OFFCURVE",
"17 -11 CURVE",
"40 -4 OFFCURVE",
"64 -4 OFFCURVE",
"83 -5 CURVE SMOOTH",
"95 -6 OFFCURVE",
"113 -6 OFFCURVE",
"126 -6 CURVE SMOOTH",
"156 -6 OFFCURVE",
"181 -5 OFFCURVE",
"189 6 CURVE",
"186 55 OFFCURVE",
"185 106 OFFCURVE",
"185 157 CURVE SMOOTH",
"185 200 OFFCURVE",
"186 249 OFFCURVE",
"187 295 CURVE SMOOTH",
"188 351 LINE SMOOTH",
"189 401 OFFCURVE",
"190 454 OFFCURVE",
"190 503 CURVE"
);
}
);
width = 207;
}
);
note = i;
unicode = 0069;
},
{
glyphname = j;
layers = (
{
hints = (
{
horizontal = 1;
place = "{-193, 147}";
type = Stem;
},
{
horizontal = 1;
place = "{503, -20}";
target = down;
type = TopGhost;
},
{
horizontal = 1;
place = "{578, 146}";
type = Stem;
},
{
place = "{20, 164}";
type = Stem;
},
{
horizontal = 1;
place = "{726, -20}";
target = down;
type = TopGhost;
},
{
horizontal = 1;
place = "{506, -20}";
target = down;
type = TopGhost;
}
);
layerId = "4AB56EE0-9DC5-4ACD-ABD7-6439ED5BAAD5";
paths = (
{
closed = 1;
nodes = (
"17 726 LINE",
"16 697 OFFCURVE",
"17 668 OFFCURVE",
"18 648 CURVE",
"18 643 OFFCURVE",
"19 637 OFFCURVE",
"19 632 CURVE",
"20 615 OFFCURVE",
"21 593 OFFCURVE",
"21 577 CURVE",
"33 578 OFFCURVE",
"47 578 OFFCURVE",
"59 578 CURVE SMOOTH",
"72 578 OFFCURVE",
"84 578 OFFCURVE",
"93 577 CURVE SMOOTH",
"105 576 OFFCURVE",
"121 575 OFFCURVE",
"132 575 CURVE SMOOTH",
"157 575 OFFCURVE",
"175 580 OFFCURVE",
"183 591 CURVE",
"183 615 OFFCURVE",
"182 650 OFFCURVE",
"181 678 CURVE SMOOTH",
"180 696 OFFCURVE",
"180 716 OFFCURVE",
"180 723 CURVE"
);
},
{
closed = 1;
nodes = (
"23 363 LINE",
"20 304 OFFCURVE",
"20 228 OFFCURVE",
"20 153 CURVE SMOOTH",
"20 95 OFFCURVE",
"20 39 OFFCURVE",
"19 -10 CURVE",
"-5 -42 OFFCURVE",
"-89 -49 OFFCURVE",
"-135 -46 CURVE",
"-136 -55 LINE",
"-136 -58 LINE",
"-139 -79 OFFCURVE",
"-142 -108 OFFCURVE",
"-142 -133 CURVE SMOOTH",
"-142 -151 OFFCURVE",
"-141 -168 OFFCURVE",
"-133 -191 CURVE",
"-120 -192 OFFCURVE",
"-94 -193 OFFCURVE",
"-80 -193 CURVE SMOOTH",
"24 -193 OFFCURVE",
"138 -174 OFFCURVE",
"170 -98 CURVE",
"182 -24 OFFCURVE",
"184 48 OFFCURVE",
"184 124 CURVE SMOOTH",
"184 264 LINE",
"183 273 OFFCURVE",
"183 285 OFFCURVE",
"183 298 CURVE SMOOTH",
"183 317 OFFCURVE",
"183 338 OFFCURVE",
"184 361 CURVE",
"184 394 LINE SMOOTH",
"184 405 OFFCURVE",
"185 417 OFFCURVE",
"185 428 CURVE SMOOTH",
"185 457 OFFCURVE",
"184 484 OFFCURVE",
"182 504 CURVE",
"171 505 OFFCURVE",
"160 506 OFFCURVE",
"144 506 CURVE SMOOTH",
"132 506 OFFCURVE",
"118 505 OFFCURVE",
"106 504 CURVE",
"102 504 OFFCURVE",
"98 503 OFFCURVE",
"94 503 CURVE",
"83 502 OFFCURVE",
"72 501 OFFCURVE",
"59 501 CURVE SMOOTH",
"50 501 OFFCURVE",
"39 501 OFFCURVE",
"23 504 CURVE"
);
}
);
width = 204;
}
);
note = j;
unicode = 006A;
},
{
glyphname = k;
layers = (
{
hints = (
{
horizontal = 1;
place = "{-9, 21}";
target = up;
type = BottomGhost;
},
{
horizontal = 1;
place = "{732, -20}";
target = down;
type = TopGhost;
},
{
place = "{21, 170}";
type = Stem;
},
{
horizontal = 1;
place = "{-7, 21}";
target = up;
type = BottomGhost;
},
{
horizontal = 1;
place = "{-5, 21}";
target = up;
type = BottomGhost;
}
);
layerId = "4AB56EE0-9DC5-4ACD-ABD7-6439ED5BAAD5";
paths = (
{
closed = 1;
nodes = (
"316 239 OFFCURVE",
"309 250 OFFCURVE",
"302 262 CURVE",
"295 273 OFFCURVE",
"288 281 OFFCURVE",
"282 292 CURVE",
"298 314 OFFCURVE",
"314 334 OFFCURVE",
"331 356 CURVE SMOOTH",
"369 406 OFFCURVE",
"417 468 OFFCURVE",
"451 521 CURVE",
"423 523 OFFCURVE",
"400 522 OFFCURVE",
"382 521 CURVE",
"377 521 LINE",
"360 520 OFFCURVE",
"343 519 OFFCURVE",
"327 519 CURVE SMOOTH",
"310 519 OFFCURVE",
"289 522 OFFCURVE",
"269 529 CURVE",
"246 502 OFFCURVE",
"233 480 OFFCURVE",
"220 458 CURVE",
"220 459 LINE",
"216 453 OFFCURVE",
"213 445 OFFCURVE",
"210 440 CURVE SMOOTH",
"201 424 OFFCURVE",
"201 419 OFFCURVE",
"186 402 CURVE",
"186 405 OFFCURVE",
"187 409 OFFCURVE",
"187 414 CURVE SMOOTH",
"187 428 OFFCURVE",
"187 444 OFFCURVE",
"188 460 CURVE",
"188 468 OFFCURVE",
"189 476 OFFCURVE",
"189 484 CURVE SMOOTH",
"189 730 LINE",
"165 731 LINE",
"154 732 OFFCURVE",
"139 733 OFFCURVE",
"131 733 CURVE SMOOTH",
"123 733 OFFCURVE",
"114 732 OFFCURVE",
"105 732 CURVE SMOOTH",
"80 732 LINE",
"64 731 OFFCURVE",
"36 731 OFFCURVE",
"23 731 CURVE",
"23 657 OFFCURVE",
"22 538 OFFCURVE",
"21 461 CURVE SMOOTH",
"20 385 OFFCURVE",
"19 309 OFFCURVE",
"19 232 CURVE SMOOTH",
"19 155 OFFCURVE",
"20 75 OFFCURVE",
"23 -3 CURVE",
"41 -6 OFFCURVE",
"57 -7 OFFCURVE",
"67 -7 CURVE SMOOTH",
"82 -7 OFFCURVE",
"102 -6 OFFCURVE",
"117 -5 CURVE",
"131 -5 OFFCURVE",
"172 -5 OFFCURVE",
"184 -6 CURVE",
"190 24 OFFCURVE",
"191 57 OFFCURVE",
"191 89 CURVE SMOOTH",
"191 100 OFFCURVE",
"190 111 OFFCURVE",
"190 121 CURVE SMOOTH",
"190 148 LINE",
"198 133 OFFCURVE",
"206 117 OFFCURVE",
"214 101 CURVE",
"215 97 OFFCURVE",
"219 91 OFFCURVE",
"225 80 CURVE SMOOTH",
"238 55 LINE SMOOTH",
"248 36 OFFCURVE",
"260 12 OFFCURVE",
"270 -4 CURVE",
"287 -8 OFFCURVE",
"310 -9 OFFCURVE",
"336 -9 CURVE SMOOTH",
"357 -9 OFFCURVE",
"379 -8 OFFCURVE",
"399 -7 CURVE SMOOTH",
"416 -6 OFFCURVE",
"447 -5 OFFCURVE",
"459 -5 CURVE",
"416 81 OFFCURVE",
"370 156 OFFCURVE",
"323 229 CURVE"
);
}
);
width = 435;
}
);
note = k;
rightKerningGroup = k;
unicode = 006B;
},
{
glyphname = l;
layers = (
{
hints = (
{
horizontal = 1;
place = "{-11, 21}";
target = up;
type = BottomGhost;
},
{
horizontal = 1;
place = "{732, -20}";
target = down;
type = TopGhost;
},
{
place = "{16, 169}";
type = Stem;
},
{
horizontal = 1;
place = "{-6, 21}";
target = up;
type = BottomGhost;
}
);
layerId = "4AB56EE0-9DC5-4ACD-ABD7-6439ED5BAAD5";
paths = (
{
closed = 1;
nodes = (
"25 732 LINE",
"18 663 OFFCURVE",
"16 601 OFFCURVE",
"16 543 CURVE SMOOTH",
"16 478 OFFCURVE",
"18 412 OFFCURVE",
"20 347 CURVE SMOOTH",
"22 287 OFFCURVE",
"24 227 OFFCURVE",
"24 167 CURVE SMOOTH",
"24 111 OFFCURVE",
"21 44 OFFCURVE",
"17 -11 CURVE",
"40 -4 OFFCURVE",
"64 -4 OFFCURVE",
"83 -5 CURVE SMOOTH",
"95 -6 OFFCURVE",
"113 -6 OFFCURVE",
"126 -6 CURVE SMOOTH",
"156 -6 OFFCURVE",
"181 -5 OFFCURVE",
"189 6 CURVE",
"186 55 OFFCURVE",
"185 126 OFFCURVE",
"185 206 CURVE SMOOTH",
"185 275 OFFCURVE",
"186 351 OFFCURVE",
"187 424 CURVE SMOOTH",
"187 457 OFFCURVE",
"188 490 OFFCURVE",
"188 522 CURVE SMOOTH",
"188 551 LINE SMOOTH",
"189 619 OFFCURVE",
"190 685 OFFCURVE",
"190 729 CURVE"
);
}
);
width = 206;
}
);
note = l;
unicode = 006C;
},
{
glyphname = m;
layers = (
{
hints = (
{
horizontal = 1;
place = "{-9, 21}";
target = up;
type = BottomGhost;
},
{
horizontal = 1;
place = "{503, -20}";
target = down;
type = TopGhost;
},
{
place = "{19, 161}";
type = Stem;
},
{
place = "{270, 158}";
type = Stem;
},
{
place = "{508, 155}";
type = Stem;
},
{
horizontal = 1;
place = "{331, 169}";
type = Stem;
},
{
horizontal = 1;
place = "{-7, 21}";
target = up;
type = BottomGhost;
}
);
layerId = "4AB56EE0-9DC5-4ACD-ABD7-6439ED5BAAD5";
paths = (
{
closed = 1;
nodes = (
"183 465 LINE SMOOTH",
"183 473 OFFCURVE",
"183 488 OFFCURVE",
"181 500 CURVE",
"178 510 OFFCURVE",
"146 508 OFFCURVE",
"121 505 CURVE SMOOTH",
"114 504 OFFCURVE",
"107 503 OFFCURVE",
"104 503 CURVE",
"88 501 OFFCURVE",
"79 501 OFFCURVE",
"71 501 CURVE SMOOTH",
"62 501 OFFCURVE",
"53 501 OFFCURVE",
"21 505 CURVE",
"20 460 OFFCURVE",
"19 409 OFFCURVE",
"19 366 CURVE SMOOTH",
"19 299 OFFCURVE",
"20 234 OFFCURVE",
"21 169 CURVE SMOOTH",
"22 111 OFFCURVE",
"22 48 OFFCURVE",
"22 -9 CURVE",
"44 -7 OFFCURVE",
"55 -7 OFFCURVE",
"67 -7 CURVE SMOOTH",
"77 -7 OFFCURVE",
"87 -7 OFFCURVE",
"96 -8 CURVE",
"119 -9 OFFCURVE",
"137 -9 OFFCURVE",
"176 1 CURVE",
"179 27 OFFCURVE",
"180 55 OFFCURVE",
"180 81 CURVE SMOOTH",
"180 106 OFFCURVE",
"179 131 OFFCURVE",
"178 156 CURVE SMOOTH",
"177 180 OFFCURVE",
"176 204 OFFCURVE",
"176 229 CURVE SMOOTH",
"176 244 OFFCURVE",
"176 260 OFFCURVE",
"177 275 CURVE SMOOTH",
"179 319 OFFCURVE",
"204 331 OFFCURVE",
"224 331 CURVE SMOOTH",
"234 331 OFFCURVE",
"242 329 OFFCURVE",
"247 326 CURVE",
"265 314 OFFCURVE",
"268 275 OFFCURVE",
"270 243 CURVE",
"270 234 OFFCURVE",
"271 232 OFFCURVE",
"271 230 CURVE",
"273 208 OFFCURVE",
"273 184 OFFCURVE",
"273 159 CURVE SMOOTH",
"273 109 LINE SMOOTH",
"273 68 OFFCURVE",
"273 23 OFFCURVE",
"275 -7 CURVE",
"322 -7 LINE",
"347 -8 OFFCURVE",
"389 -7 OFFCURVE",
"430 -1 CURVE",
"429 18 OFFCURVE",
"428 44 OFFCURVE",
"428 68 CURVE SMOOTH",
"428 98 OFFCURVE",
"429 130 OFFCURVE",
"430 163 CURVE SMOOTH",
"431 207 OFFCURVE",
"432 251 OFFCURVE",
"432 293 CURVE",
"438 327 OFFCURVE",
"450 331 OFFCURVE",
"460 331 CURVE SMOOTH",
"490 331 OFFCURVE",
"498 310 OFFCURVE",
"505 243 CURVE SMOOTH",
"508 215 OFFCURVE",
"508 190 OFFCURVE",
"508 159 CURVE SMOOTH",
"508 109 LINE SMOOTH",
"508 68 OFFCURVE",
"508 23 OFFCURVE",
"510 -7 CURVE",
"557 -7 LINE",
"582 -8 OFFCURVE",
"624 -7 OFFCURVE",
"665 -1 CURVE",
"664 20 OFFCURVE",
"663 48 OFFCURVE",
"663 75 CURVE SMOOTH",
"663 107 OFFCURVE",
"664 142 OFFCURVE",
"665 178 CURVE SMOOTH",
"666 220 OFFCURVE",
"667 263 OFFCURVE",
"667 303 CURVE SMOOTH",
"667 383 OFFCURVE",
"661 448 OFFCURVE",
"639 468 CURVE SMOOTH",
"613 491 OFFCURVE",
"576 500 OFFCURVE",
"537 500 CURVE SMOOTH",
"493 500 OFFCURVE",
"450 486 OFFCURVE",
"419 465 CURVE SMOOTH",
"410 459 LINE",
"409 461 OFFCURVE",
"411 460 OFFCURVE",
"410 461 CURVE SMOOTH",
"407 464 OFFCURVE",
"404 467 OFFCURVE",
"404 468 CURVE",
"378 491 OFFCURVE",
"341 500 OFFCURVE",
"302 500 CURVE SMOOTH",
"260 500 OFFCURVE",
"215 486 OFFCURVE",
"184 465 CURVE",
"183 465 OFFCURVE",
"184 464 OFFCURVE",
"183 464 CURVE"
);
}
);
width = 684;
}
);
leftKerningGroup = m;
note = m;
rightKerningGroup = h;
unicode = 006D;
},
{
glyphname = n;
layers = (
{
hints = (
{
horizontal = 1;
place = "{-7, 21}";
target = up;
type = BottomGhost;
},
{
horizontal = 1;
place = "{503, -20}";
target = down;
type = TopGhost;
},
{
place = "{20, 161}";
type = Stem;
},
{
place = "{271, 158}";
type = Stem;
},
{
horizontal = 1;
place = "{-9, 21}";
target = up;
type = BottomGhost;
}
);
layerId = "4AB56EE0-9DC5-4ACD-ABD7-6439ED5BAAD5";
paths = (
{
closed = 1;
nodes = (
"184 465 LINE SMOOTH",
"184 473 OFFCURVE",
"184 488 OFFCURVE",
"182 500 CURVE",
"179 510 OFFCURVE",
"147 508 OFFCURVE",
"122 505 CURVE SMOOTH",
"115 504 OFFCURVE",
"108 503 OFFCURVE",
"105 503 CURVE",
"89 501 OFFCURVE",
"80 501 OFFCURVE",
"72 501 CURVE SMOOTH",
"63 501 OFFCURVE",
"54 501 OFFCURVE",
"22 505 CURVE",
"21 460 OFFCURVE",
"20 409 OFFCURVE",
"20 366 CURVE SMOOTH",
"20 299 OFFCURVE",
"21 234 OFFCURVE",
"22 169 CURVE SMOOTH",
"23 111 OFFCURVE",
"23 48 OFFCURVE",
"23 -9 CURVE",
"45 -7 OFFCURVE",
"56 -7 OFFCURVE",
"68 -7 CURVE SMOOTH",
"78 -7 OFFCURVE",
"88 -7 OFFCURVE",
"97 -8 CURVE",
"120 -9 OFFCURVE",
"138 -9 OFFCURVE",
"177 1 CURVE",
"180 27 OFFCURVE",
"181 55 OFFCURVE",
"181 81 CURVE SMOOTH",
"181 106 OFFCURVE",
"180 131 OFFCURVE",
"179 156 CURVE SMOOTH",
"178 180 OFFCURVE",
"177 204 OFFCURVE",
"177 229 CURVE SMOOTH",
"177 244 OFFCURVE",
"177 260 OFFCURVE",
"178 275 CURVE SMOOTH",
"180 319 OFFCURVE",
"205 333 OFFCURVE",
"225 331 CURVE SMOOTH",
"269 327 OFFCURVE",
"269 275 OFFCURVE",
"271 243 CURVE",
"271 236 LINE SMOOTH",
"271 234 OFFCURVE",
"272 232 OFFCURVE",
"272 230 CURVE",
"274 208 OFFCURVE",
"274 184 OFFCURVE",
"274 159 CURVE SMOOTH",
"274 109 LINE SMOOTH",
"274 68 OFFCURVE",
"274 23 OFFCURVE",
"276 -7 CURVE",
"323 -7 LINE",
"348 -8 OFFCURVE",
"390 -7 OFFCURVE",
"431 -1 CURVE",
"430 20 OFFCURVE",
"429 48 OFFCURVE",
"429 75 CURVE SMOOTH",
"429 107 OFFCURVE",
"430 142 OFFCURVE",
"431 178 CURVE SMOOTH",
"432 220 OFFCURVE",
"433 263 OFFCURVE",
"433 303 CURVE SMOOTH",
"433 383 OFFCURVE",
"427 448 OFFCURVE",
"405 468 CURVE SMOOTH",
"379 491 OFFCURVE",
"342 500 OFFCURVE",
"303 500 CURVE SMOOTH",
"261 500 OFFCURVE",
"216 486 OFFCURVE",
"185 465 CURVE",
"184 465 OFFCURVE",
"185 464 OFFCURVE",
"184 464 CURVE"
);
}
);
width = 450;
}
);
leftKerningGroup = m;
note = n;
rightKerningGroup = h;
unicode = 006E;
},
{
glyphname = o;
layers = (
{
hints = (
{
horizontal = 1;
place = "{-16, 154}";
type = Stem;
},
{
horizontal = 1;
place = "{519, -20}";
target = down;
type = TopGhost;
},
{
place = "{9, 161}";
type = Stem;
},
{
place = "{285, 154}";
type = Stem;
},
{
horizontal = 1;
place = "{-12, 21}";
target = up;
type = BottomGhost;
}
);
layerId = "4AB56EE0-9DC5-4ACD-ABD7-6439ED5BAAD5";
paths = (
{
closed = 1;
nodes = (
"21 452 OFFCURVE",
"5 360 OFFCURVE",
"9 325 CURVE",
"10 211 LINE SMOOTH",
"10 147 OFFCURVE",
"19 77 OFFCURVE",
"65 33 CURVE",
"88 13 OFFCURVE",
"121 -5 OFFCURVE",
"158 -12 CURVE",
"173 -12 OFFCURVE",
"191 -13 OFFCURVE",
"207 -14 CURVE SMOOTH",
"224 -15 OFFCURVE",
"243 -16 OFFCURVE",
"260 -16 CURVE SMOOTH",
"318 -16 OFFCURVE",
"376 -7 OFFCURVE",
"405 34 CURVE",
"431 64 OFFCURVE",
"436 177 OFFCURVE",
"439 255 CURVE",
"439 314 OFFCURVE",
"444 433 OFFCURVE",
"392 474 CURVE",
"365 501 OFFCURVE",
"319 515 OFFCURVE",
"275 518 CURVE",
"264 520 OFFCURVE",
"244 519 OFFCURVE",
"233 518 CURVE",
"225 518 OFFCURVE",
"202 518 OFFCURVE",
"197 519 CURVE",
"126 519 OFFCURVE",
"51 501 OFFCURVE",
"35 461 CURVE"
);
},
{
closed = 1;
nodes = (
"180 333 LINE",
"184 346 OFFCURVE",
"200 352 OFFCURVE",
"209 355 CURVE",
"247 364 OFFCURVE",
"274 342 OFFCURVE",
"281 301 CURVE",
"284 287 OFFCURVE",
"285 272 OFFCURVE",
"285 258 CURVE SMOOTH",
"285 235 OFFCURVE",
"282 210 OFFCURVE",
"279 185 CURVE",
"279 183 OFFCURVE",
"278 181 OFFCURVE",
"278 180 CURVE",
"273 164 OFFCURVE",
"267 149 OFFCURVE",
"263 147 CURVE",
"252 142 OFFCURVE",
"237 138 OFFCURVE",
"223 138 CURVE SMOOTH",
"197 138 OFFCURVE",
"172 157 OFFCURVE",
"170 188 CURVE",
"171 203 OFFCURVE",
"172 229 OFFCURVE",
"172 243 CURVE",
"173 263 LINE SMOOTH",
"174 280 OFFCURVE",
"174 302 OFFCURVE",
"176 317 CURVE"
);
}
);
width = 448;
}
);
leftKerningGroup = o;
note = o;
rightKerningGroup = o;
unicode = 006F;
},
{
glyphname = p;
layers = (
{
hints = (
{
horizontal = 1;
place = "{-7, 126}";
type = Stem;
},
{
horizontal = 1;
place = "{369, 135}";
type = Stem;
},
{
place = "{19, 162}";
type = Stem;
},
{
place = "{314, 144}";
type = Stem;
}
);
layerId = "4AB56EE0-9DC5-4ACD-ABD7-6439ED5BAAD5";
paths = (
{
closed = 1;
nodes = (
"183 -171 OFFCURVE",
"184 -159 OFFCURVE",
"185 -149 CURVE",
"187 -109 OFFCURVE",
"188 -81 OFFCURVE",
"186 -33 CURVE",
"186 -22 OFFCURVE",
"185 -11 OFFCURVE",
"185 2 CURVE",
"206 -4 OFFCURVE",
"238 -7 OFFCURVE",
"272 -7 CURVE SMOOTH",
"306 -7 OFFCURVE",
"340 -3 OFFCURVE",
"367 7 CURVE SMOOTH",
"431 32 OFFCURVE",
"458 122 OFFCURVE",
"458 215 CURVE",
"453 349 OFFCURVE",
"437 486 OFFCURVE",
"276 502 CURVE SMOOTH",
"239 506 OFFCURVE",
"210 512 OFFCURVE",
"186 481 CURVE",
"186 493 OFFCURVE",
"186 502 OFFCURVE",
"185 503 CURVE",
"74 505 LINE SMOOTH",
"67 505 OFFCURVE",
"57 504 OFFCURVE",
"48 504 CURVE SMOOTH",
"20 504 LINE",
"19 465 OFFCURVE",
"19 419 OFFCURVE",
"19 378 CURVE SMOOTH",
"19 309 OFFCURVE",
"20 214 OFFCURVE",
"22 138 CURVE SMOOTH",
"24 47 OFFCURVE",
"26 -45 OFFCURVE",
"26 -138 CURVE SMOOTH",
"26 -207 LINE",
"60 -218 OFFCURVE",
"168 -213 OFFCURVE",
"182 -203 CURVE"
);
},
{
closed = 1;
nodes = (
"301 143 OFFCURVE",
"272 119 OFFCURVE",
"227 119 CURVE SMOOTH",
"184 119 OFFCURVE",
"181 130 OFFCURVE",
"181 229 CURVE SMOOTH",
"181 310 OFFCURVE",
"184 369 OFFCURVE",
"238 369 CURVE SMOOTH",
"286 369 OFFCURVE",
"314 307 OFFCURVE",
"314 243 CURVE SMOOTH",
"314 224 OFFCURVE",
"313 219 OFFCURVE",
"308 187 CURVE SMOOTH"
);
}
);
width = 464;
}
);
leftKerningGroup = m;
note = p;
rightKerningGroup = p;
unicode = 0070;
},
{
glyphname = q;
layers = (
{
hints = (
{
horizontal = 1;
place = "{-213, 21}";
target = up;
type = BottomGhost;
},
{
horizontal = 1;
place = "{-7, 126}";
type = Stem;
},
{
horizontal = 1;
place = "{369, 135}";
type = Stem;
},
{
place = "{6, 144}";
type = Stem;
},
{
place = "{283, 155}";
type = Stem;
}
);
layerId = "4AB56EE0-9DC5-4ACD-ABD7-6439ED5BAAD5";
paths = (
{
closed = 1;
nodes = (
"282 -203 LINE SMOOTH",
"282 -207 OFFCURVE",
"322 -213 OFFCURVE",
"365 -213 CURVE SMOOTH",
"386 -213 OFFCURVE",
"412 -212 OFFCURVE",
"438 -207 CURVE",
"438 -138 LINE SMOOTH",
"438 -54 OFFCURVE",
"440 54 OFFCURVE",
"442 138 CURVE SMOOTH",
"444 221 OFFCURVE",
"445 301 OFFCURVE",
"445 378 CURVE SMOOTH",
"445 419 OFFCURVE",
"445 465 OFFCURVE",
"444 504 CURVE",
"416 504 LINE",
"339 507 OFFCURVE",
"311 506 OFFCURVE",
"283 502 CURVE",
"278 497 OFFCURVE",
"278 493 OFFCURVE",
"278 491 CURVE SMOOTH",
"278 476 LINE",
"255 495 OFFCURVE",
"225 506 OFFCURVE",
"187 502 CURVE SMOOTH",
"31 488 OFFCURVE",
"9 349 OFFCURVE",
"6 215 CURVE SMOOTH",
"6 122 OFFCURVE",
"33 32 OFFCURVE",
"97 7 CURVE SMOOTH",
"124 -3 OFFCURVE",
"158 -7 OFFCURVE",
"192 -7 CURVE SMOOTH",
"225 -7 OFFCURVE",
"258 -3 OFFCURVE",
"279 3 CURVE",
"279 -26 OFFCURVE",
"278 -39 OFFCURVE",
"278 -55 CURVE SMOOTH",
"278 -108 OFFCURVE",
"277 -144 OFFCURVE",
"282 -192 CURVE"
);
},
{
closed = 1;
nodes = (
"150 203 OFFCURVE",
"150 224 OFFCURVE",
"150 243 CURVE SMOOTH",
"150 307 OFFCURVE",
"178 369 OFFCURVE",
"226 369 CURVE SMOOTH",
"280 369 OFFCURVE",
"283 310 OFFCURVE",
"283 229 CURVE SMOOTH",
"283 130 OFFCURVE",
"280 119 OFFCURVE",
"237 119 CURVE SMOOTH",
"192 119 OFFCURVE",
"167 157 OFFCURVE",
"156 187 CURVE SMOOTH"
);
}
);
width = 463;
}
);
leftKerningGroup = q;
note = q;
rightKerningGroup = q;
unicode = 0071;
},
{
glyphname = r;
layers = (
{
hints = (
{
horizontal = 1;
place = "{-7, 21}";
target = up;
type = BottomGhost;
},
{
place = "{20, 167}";
type = Stem;
}
);
layerId = "4AB56EE0-9DC5-4ACD-ABD7-6439ED5BAAD5";
paths = (
{
closed = 1;
nodes = (
"188 480 LINE SMOOTH",
"188 487 OFFCURVE",
"187 496 OFFCURVE",
"187 504 CURVE SMOOTH",
"187 509 OFFCURVE",
"151 507 OFFCURVE",
"123 504 CURVE SMOOTH",
"106 502 OFFCURVE",
"83 501 OFFCURVE",
"72 501 CURVE SMOOTH",
"63 501 OFFCURVE",
"54 501 OFFCURVE",
"22 505 CURVE",
"21 460 OFFCURVE",
"20 409 OFFCURVE",
"20 366 CURVE SMOOTH",
"20 299 OFFCURVE",
"21 234 OFFCURVE",
"22 169 CURVE SMOOTH",
"23 111 OFFCURVE",
"23 48 OFFCURVE",
"23 -9 CURVE",
"45 -7 OFFCURVE",
"58 -7 OFFCURVE",
"69 -7 CURVE SMOOTH",
"81 -7 OFFCURVE",
"91 -7 OFFCURVE",
"101 -8 CURVE",
"128 -9 OFFCURVE",
"148 -10 OFFCURVE",
"187 1 CURVE",
"187 102 OFFCURVE",
"186 177 OFFCURVE",
"183 269 CURVE SMOOTH",
"181 322 OFFCURVE",
"207 336 OFFCURVE",
"245 336 CURVE SMOOTH",
"257 336 OFFCURVE",
"272 335 OFFCURVE",
"288 333 CURVE",
"342 320 OFFCURVE",
"344 319 OFFCURVE",
"346 319 CURVE",
"373 310 LINE",
"372 445 LINE",
"372 460 OFFCURVE",
"373 478 OFFCURVE",
"373 497 CURVE SMOOTH",
"373 503 OFFCURVE",
"274 507 OFFCURVE",
"215 489 CURVE SMOOTH",
"205 486 OFFCURVE",
"197 481 OFFCURVE",
"188 479 CURVE"
);
}
);
width = 368;
}
);
leftKerningGroup = m;
note = r;
rightKerningGroup = r;
unicode = 0072;
},
{
glyphname = s;
layers = (
{
hints = (
{
horizontal = 1;
place = "{-21, 129}";
type = Stem;
},
{
horizontal = 1;
place = "{524, -20}";
target = down;
type = TopGhost;
},
{
place = "{6, 168}";
type = Stem;
},
{
place = "{6, 187}";
type = Stem;
}
);
layerId = "4AB56EE0-9DC5-4ACD-ABD7-6439ED5BAAD5";
paths = (
{
closed = 1;
nodes = (
"451 341 LINE",
"451 416 OFFCURVE",
"425 482 OFFCURVE",
"358 510 CURVE",
"316 520 OFFCURVE",
"268 524 OFFCURVE",
"226 524 CURVE SMOOTH",
"185 524 OFFCURVE",
"146 521 OFFCURVE",
"121 514 CURVE SMOOTH",
"49 493 OFFCURVE",
"6 433 OFFCURVE",
"6 373 CURVE SMOOTH",
"6 318 OFFCURVE",
"46 259 OFFCURVE",
"122 230 CURVE SMOOTH",
"139 223 OFFCURVE",
"162 217 OFFCURVE",
"184 212 CURVE SMOOTH",
"199 209 LINE SMOOTH",
"237 201 OFFCURVE",
"276 193 OFFCURVE",
"272 154 CURVE",
"274 125 OFFCURVE",
"253 108 OFFCURVE",
"233 108 CURVE SMOOTH",
"206 108 OFFCURVE",
"176 129 OFFCURVE",
"174 163 CURVE",
"61 166 OFFCURVE",
"35 165 OFFCURVE",
"-4 160 CURVE",
"-4 40 OFFCURVE",
"93 -26 OFFCURVE",
"236 -21 CURVE",
"320 -22 OFFCURVE",
"397 5 OFFCURVE",
"429 72 CURVE",
"440 103 OFFCURVE",
"445 129 OFFCURVE",
"445 150 CURVE SMOOTH",
"445 183 OFFCURVE",
"435 210 OFFCURVE",
"418 238 CURVE",
"382 284 OFFCURVE",
"307 298 OFFCURVE",
"227 310 CURVE",
"228 310 LINE",
"205 319 OFFCURVE",
"193 340 OFFCURVE",
"193 361 CURVE SMOOTH",
"193 380 OFFCURVE",
"207 397 OFFCURVE",
"227 403 CURVE",
"269 406 OFFCURVE",
"283 373 OFFCURVE",
"277 343 CURVE",
"332 332 OFFCURVE",
"383 328 OFFCURVE",
"435 336 CURVE"
);
}
);
width = 450;
}
);
leftKerningGroup = s;
note = s;
rightKerningGroup = s;
unicode = 0073;
},
{
glyphname = t;
layers = (
{
hints = (
{
horizontal = 1;
place = "{-6, 147}";
type = Stem;
},
{
horizontal = 1;
place = "{504, -20}";
target = down;
type = TopGhost;
},
{
horizontal = 1;
place = "{693, -20}";
target = down;
type = TopGhost;
},
{
place = "{70, 160}";
type = Stem;
},
{
horizontal = 1;
place = "{372, 129}";
type = Stem;
}
);
layerId = "4AB56EE0-9DC5-4ACD-ABD7-6439ED5BAAD5";
paths = (
{
closed = 1;
nodes = (
"230 691 LINE",
"210 688 OFFCURVE",
"200 688 OFFCURVE",
"191 688 CURVE SMOOTH",
"177 688 OFFCURVE",
"166 689 OFFCURVE",
"154 690 CURVE",
"147 691 LINE",
"136 692 OFFCURVE",
"121 693 OFFCURVE",
"109 693 CURVE SMOOTH",
"93 693 OFFCURVE",
"82 692 OFFCURVE",
"71 691 CURVE",
"70 500 LINE",
"49 500 OFFCURVE",
"26 500 OFFCURVE",
"-1 501 CURVE",
"-4 369 LINE",
"26 369 LINE SMOOTH",
"42 369 OFFCURVE",
"55 368 OFFCURVE",
"68 369 CURVE",
"68 319 LINE SMOOTH",
"68 240 OFFCURVE",
"70 167 OFFCURVE",
"83 89 CURVE",
"115 13 OFFCURVE",
"229 -6 OFFCURVE",
"333 -6 CURVE SMOOTH",
"347 -6 OFFCURVE",
"373 -5 OFFCURVE",
"386 -4 CURVE",
"394 19 OFFCURVE",
"395 36 OFFCURVE",
"395 54 CURVE SMOOTH",
"395 80 OFFCURVE",
"392 108 OFFCURVE",
"389 129 CURVE",
"389 128 LINE",
"389 129 OFFCURVE",
"388 130 OFFCURVE",
"388 132 CURVE SMOOTH",
"388 141 LINE",
"342 138 OFFCURVE",
"258 145 OFFCURVE",
"232 177 CURVE",
"233 213 OFFCURVE",
"233 327 OFFCURVE",
"233 372 CURVE",
"389 372 LINE",
"386 387 OFFCURVE",
"387 402 OFFCURVE",
"388 417 CURVE SMOOTH",
"389 428 LINE SMOOTH",
"392 460 OFFCURVE",
"391 472 OFFCURVE",
"387 505 CURVE",
"378 504 OFFCURVE",
"349 506 OFFCURVE",
"337 505 CURVE",
"332 505 OFFCURVE",
"327 504 OFFCURVE",
"323 504 CURVE",
"285 501 OFFCURVE",
"259 500 OFFCURVE",
"231 499 CURVE",
"231 504 OFFCURVE",
"230 504 OFFCURVE",
"230 509 CURVE SMOOTH"
);
}
);
width = 387;
}
);
leftKerningGroup = t;
note = t;
rightKerningGroup = t;
unicode = 0074;
},
{
glyphname = u;
layers = (
{
hints = (
{
horizontal = 1;
place = "{0, 169}";
type = Stem;
},
{
horizontal = 1;
place = "{509, -20}";
target = down;
type = TopGhost;
},
{
place = "{21, 155}";
type = Stem;
},
{
place = "{268, 162}";
type = Stem;
},
{
horizontal = 1;
place = "{-4, 21}";
target = up;
type = BottomGhost;
},
{
horizontal = 1;
place = "{507, -20}";
target = down;
type = TopGhost;
}
);
layerId = "4AB56EE0-9DC5-4ACD-ABD7-6439ED5BAAD5";
paths = (
{
closed = 1;
nodes = (
"269 -15 OFFCURVE",
"384 -1 OFFCURVE",
"404 -3 CURVE",
"428 -4 LINE",
"429 41 OFFCURVE",
"430 91 OFFCURVE",
"430 134 CURVE SMOOTH",
"430 201 OFFCURVE",
"429 266 OFFCURVE",
"428 331 CURVE SMOOTH",
"427 389 OFFCURVE",
"427 452 OFFCURVE",
"427 509 CURVE",
"405 507 OFFCURVE",
"393 507 OFFCURVE",
"382 507 CURVE SMOOTH",
"370 507 OFFCURVE",
"360 507 OFFCURVE",
"351 508 CURVE",
"328 509 OFFCURVE",
"311 509 OFFCURVE",
"273 499 CURVE",
"269 472 OFFCURVE",
"268 441 OFFCURVE",
"268 413 CURVE SMOOTH",
"268 345 OFFCURVE",
"278 284 OFFCURVE",
"272 225 CURVE SMOOTH",
"269 181 OFFCURVE",
"245 169 OFFCURVE",
"225 169 CURVE SMOOTH",
"215 169 OFFCURVE",
"207 171 OFFCURVE",
"203 173 CURVE",
"186 188 OFFCURVE",
"181 226 OFFCURVE",
"179 257 CURVE",
"179 285 OFFCURVE",
"176 313 OFFCURVE",
"176 391 CURVE SMOOTH",
"176 432 OFFCURVE",
"176 477 OFFCURVE",
"174 507 CURVE",
"127 507 LINE",
"100 508 OFFCURVE",
"59 507 OFFCURVE",
"19 501 CURVE",
"20 480 OFFCURVE",
"21 452 OFFCURVE",
"21 425 CURVE SMOOTH",
"21 393 OFFCURVE",
"20 358 OFFCURVE",
"19 322 CURVE SMOOTH",
"18 280 OFFCURVE",
"17 237 OFFCURVE",
"17 197 CURVE SMOOTH",
"17 117 OFFCURVE",
"23 52 OFFCURVE",
"45 32 CURVE SMOOTH",
"71 9 OFFCURVE",
"108 0 OFFCURVE",
"147 0 CURVE SMOOTH",
"190 0 OFFCURVE",
"234 14 OFFCURVE",
"265 35 CURVE",
"264 35 LINE",
"265 36 OFFCURVE",
"265 35 OFFCURVE",
"266 36 CURVE",
"266 35 LINE SMOOTH",
"266 26 OFFCURVE",
"266 13 OFFCURVE",
"268 0 CURVE"
);
}
);
width = 450;
}
);
leftKerningGroup = u;
note = u;
rightKerningGroup = q;
unicode = 0075;
},
{
glyphname = v;
layers = (
{
hints = (
{
horizontal = 1;
place = "{-10, 21}";
target = up;
type = BottomGhost;
}
);
layerId = "4AB56EE0-9DC5-4ACD-ABD7-6439ED5BAAD5";
paths = (
{
closed = 1;
nodes = (
"95 509 OFFCURVE",
"52 497 OFFCURVE",
"-7 508 CURVE",
"39 337 OFFCURVE",
"74 157 OFFCURVE",
"101 -8 CURVE",
"231 -10 LINE SMOOTH",
"258 -10 OFFCURVE",
"288 -9 OFFCURVE",
"317 -4 CURVE",
"360 158 OFFCURVE",
"388 348 OFFCURVE",
"444 502 CURVE",
"382 508 OFFCURVE",
"331 501 OFFCURVE",
"281 501 CURVE",
"264 457 OFFCURVE",
"248 380 OFFCURVE",
"237 318 CURVE SMOOTH",
"231 281 OFFCURVE",
"223 237 OFFCURVE",
"216 205 CURVE",
"195 293 OFFCURVE",
"182 409 OFFCURVE",
"164 502 CURVE"
);
}
);
width = 429;
}
);
leftKerningGroup = v;
note = v;
rightKerningGroup = v;
unicode = 0076;
},
{
glyphname = w;
layers = (
{
hints = (
{
horizontal = 1;
place = "{-8, 21}";
target = up;
type = BottomGhost;
},
{
horizontal = 1;
place = "{502, -20}";
target = down;
type = TopGhost;
},
{
horizontal = 1;
place = "{505, -20}";
target = down;
type = TopGhost;
}
);
layerId = "4AB56EE0-9DC5-4ACD-ABD7-6439ED5BAAD5";
paths = (
{
closed = 1;
nodes = (
"152 502 LINE",
"96 509 OFFCURVE",
"52 497 OFFCURVE",
"-7 508 CURVE",
"39 337 OFFCURVE",
"74 157 OFFCURVE",
"101 -8 CURVE",
"258 -10 OFFCURVE",
"288 -9 OFFCURVE",
"317 -4 CURVE",
"329 48 OFFCURVE",
"332 98 OFFCURVE",
"342 147 CURVE",
"352 92 OFFCURVE",
"356 41 OFFCURVE",
"367 -8 CURVE",
"382 -8 OFFCURVE",
"411 -8 OFFCURVE",
"428 -9 CURVE",
"515 -10 OFFCURVE",
"542 -9 OFFCURVE",
"571 -4 CURVE",
"614 158 OFFCURVE",
"642 348 OFFCURVE",
"698 502 CURVE",
"685 503 OFFCURVE",
"658 505 OFFCURVE",
"647 505 CURVE SMOOTH",
"607 505 OFFCURVE",
"573 501 OFFCURVE",
"539 501 CURVE",
"514 432 OFFCURVE",
"492 278 OFFCURVE",
"470 202 CURVE",
"450 278 OFFCURVE",
"439 417 OFFCURVE",
"420 501 CURVE",
"390 507 OFFCURVE",
"373 507 OFFCURVE",
"360 506 CURVE",
"333 506 OFFCURVE",
"307 504 OFFCURVE",
"281 506 CURVE",
"265 404 OFFCURVE",
"243 301 OFFCURVE",
"216 201 CURVE",
"210 210 OFFCURVE",
"171 471 OFFCURVE",
"165 502 CURVE"
);
}
);
width = 683;
}
);
leftKerningGroup = w;
note = w;
rightKerningGroup = w;
unicode = 0077;
},
{
glyphname = x;
layers = (
{
hints = (
{
horizontal = 1;
place = "{-6, 21}";
target = up;
type = BottomGhost;
},
{
horizontal = 1;
place = "{508, -20}";
target = down;
type = TopGhost;
},
{
horizontal = 1;
place = "{505, -20}";
target = down;
type = TopGhost;
},
{
horizontal = 1;
place = "{-4, 21}";
target = up;
type = BottomGhost;
}
);
layerId = "4AB56EE0-9DC5-4ACD-ABD7-6439ED5BAAD5";
paths = (
{
closed = 1;
nodes = (
"362 506 OFFCURVE",
"271 506 OFFCURVE",
"239 502 CURVE",
"224 456 OFFCURVE",
"218 413 OFFCURVE",
"205 373 CURVE",
"191 416 OFFCURVE",
"182 457 OFFCURVE",
"173 497 CURVE",
"165 505 OFFCURVE",
"101 505 OFFCURVE",
"72 505 CURVE SMOOTH",
"55 505 OFFCURVE",
"16 503 OFFCURVE",
"-14 501 CURVE",
"15 427 OFFCURVE",
"52 328 OFFCURVE",
"71 247 CURVE",
"13 65 OFFCURVE",
"3 35 OFFCURVE",
"-6 3 CURVE",
"39 -11 OFFCURVE",
"79 -6 OFFCURVE",
"119 -6 CURVE SMOOTH",
"167 -6 LINE",
"197 86 OFFCURVE",
"202 106 OFFCURVE",
"207 124 CURVE",
"218 82 OFFCURVE",
"220 38 OFFCURVE",
"241 1 CURVE",
"383 -4 LINE",
"387 -4 OFFCURVE",
"390 -4 OFFCURVE",
"418 -8 CURVE",
"410 20 OFFCURVE",
"396 69 OFFCURVE",
"384 105 CURVE SMOOTH",
"370 147 OFFCURVE",
"354 201 OFFCURVE",
"345 246 CURVE",
"361 337 OFFCURVE",
"409 423 OFFCURVE",
"436 508 CURVE"
);
}
);
width = 413;
}
);
leftKerningGroup = x;
note = x;
rightKerningGroup = x;
unicode = 0078;
},
{
glyphname = y;
layers = (
{
hints = (
{
horizontal = 1;
place = "{-183, 142}";
type = Stem;
},
{
horizontal = 1;
place = "{503, -20}";
target = down;
type = TopGhost;
},
{
horizontal = 1;
place = "{506, -20}";
target = down;
type = TopGhost;
}
);
layerId = "4AB56EE0-9DC5-4ACD-ABD7-6439ED5BAAD5";
paths = (
{
closed = 1;
nodes = (
"152 502 LINE",
"121 506 OFFCURVE",
"75 503 OFFCURVE",
"40 503 CURVE SMOOTH",
"27 503 OFFCURVE",
"15 503 OFFCURVE",
"-15 508 CURVE",
"-10 486 OFFCURVE",
"-5 464 OFFCURVE",
"3 444 CURVE",
"3 445 LINE",
"37 320 OFFCURVE",
"80 154 OFFCURVE",
"104 23 CURVE",
"109 -27 OFFCURVE",
"85 -41 OFFCURVE",
"52 -41 CURVE SMOOTH",
"42 -41 OFFCURVE",
"32 -41 OFFCURVE",
"21 -40 CURVE SMOOTH",
"10 -39 OFFCURVE",
"-9 -39 OFFCURVE",
"-26 -39 CURVE",
"-30 -58 OFFCURVE",
"-32 -79 OFFCURVE",
"-32 -99 CURVE SMOOTH",
"-32 -126 OFFCURVE",
"-28 -156 OFFCURVE",
"-20 -181 CURVE",
"4 -183 OFFCURVE",
"15 -183 OFFCURVE",
"27 -183 CURVE SMOOTH",
"330 -183 OFFCURVE",
"350 86 OFFCURVE",
"403 277 CURVE SMOOTH",
"421 350 OFFCURVE",
"436 423 OFFCURVE",
"457 504 CURVE",
"437 505 OFFCURVE",
"402 506 OFFCURVE",
"384 506 CURVE SMOOTH",
"348 506 OFFCURVE",
"315 504 OFFCURVE",
"282 504 CURVE",
"261 513 OFFCURVE",
"243 216 OFFCURVE",
"227 188 CURVE",
"212 240 OFFCURVE",
"201 312 OFFCURVE",
"187 386 CURVE",
"181 426 OFFCURVE",
"175 466 OFFCURVE",
"165 502 CURVE"
);
}
);
width = 449;
}
);
leftKerningGroup = y;
note = y;
rightKerningGroup = y;
unicode = 0079;
},
{
glyphname = z;
layers = (
{
hints = (
{
horizontal = 1;
place = "{-4, 154}";
type = Stem;
},
{
horizontal = 1;
place = "{358, 144}";
type = Stem;
}
);
layerId = "4AB56EE0-9DC5-4ACD-ABD7-6439ED5BAAD5";
paths = (
{
closed = 1;
nodes = (
"440 502 LINE SMOOTH",
"81 503 OFFCURVE",
"44 502 OFFCURVE",
"13 502 CURVE",
"14 462 OFFCURVE",
"11 424 OFFCURVE",
"11 387 CURVE SMOOTH",
"11 377 OFFCURVE",
"12 364 OFFCURVE",
"13 349 CURVE",
"13 339 LINE",
"81 349 OFFCURVE",
"170 355 OFFCURVE",
"232 358 CURVE",
"167 286 OFFCURVE",
"58 194 OFFCURVE",
"7 128 CURVE",
"3 92 OFFCURVE",
"16 14 OFFCURVE",
"9 -4 CURVE",
"136 -4 OFFCURVE",
"323 -1 OFFCURVE",
"446 2 CURVE",
"446 21 OFFCURVE",
"446 58 OFFCURVE",
"445 80 CURVE SMOOTH",
"444 153 LINE",
"232 147 LINE",
"298 220 OFFCURVE",
"382 292 OFFCURVE",
"449 364 CURVE",
"447 401 OFFCURVE",
"449 484 OFFCURVE",
"449 502 CURVE"
);
}
);
width = 456;
}
);
leftKerningGroup = z;
note = z;
rightKerningGroup = z;
unicode = 007A;
},
{
glyphname = A;
layers = (
{
hints = (
{
horizontal = 1;
place = "{711, -20}";
target = down;
type = TopGhost;
}
);
layerId = "4AB56EE0-9DC5-4ACD-ABD7-6439ED5BAAD5";
paths = (
{
closed = 1;
nodes = (
"387 352 LINE",
"370 418 OFFCURVE",
"327 616 OFFCURVE",
"304 711 CURVE",
"242 706 OFFCURVE",
"198 706 OFFCURVE",
"177 706 CURVE SMOOTH",
"171 706 LINE SMOOTH",
"157 706 OFFCURVE",
"147 706 OFFCURVE",
"133 704 CURVE",
"58 456 OFFCURVE",
"33 247 OFFCURVE",
"0 65 CURVE SMOOTH",
"-7 28 OFFCURVE",
"-8 0 OFFCURVE",
"-8 0 CURVE",
"93 -1 OFFCURVE",
"117 -11 OFFCURVE",
"158 -4 CURVE",
"190 44 OFFCURVE",
"189 114 OFFCURVE",
"205 163 CURVE",
"226 165 OFFCURVE",
"222 164 OFFCURVE",
"242 163 CURVE",
"257 127 OFFCURVE",
"272 45 OFFCURVE",
"288 1 CURVE",
"345 -11 OFFCURVE",
"397 -15 OFFCURVE",
"453 -3 CURVE"
);
},
{
closed = 1;
nodes = (
"202 291 LINE",
"211 358 LINE SMOOTH",
"222 439 OFFCURVE",
"219 501 OFFCURVE",
"222 501 CURVE",
"223 491 LINE",
"222 491 OFFCURVE",
"228 434 OFFCURVE",
"244 291 CURVE"
);
}
);
width = 434;
}
);
leftKerningGroup = A;
note = A;
rightKerningGroup = A;
unicode = 0041;
},
{
glyphname = B;
layers = (
{
hints = (
{
horizontal = 1;
place = "{-10, 21}";
target = up;
type = BottomGhost;
},
{
horizontal = 1;
place = "{720, -20}";
target = down;
type = TopGhost;
},
{
place = "{27, 160}";
type = Stem;
},
{
place = "{296, 185}";
type = Stem;
}
);
layerId = "4AB56EE0-9DC5-4ACD-ABD7-6439ED5BAAD5";
paths = (
{
closed = 1;
nodes = (
"407 335 LINE",
"401 341 OFFCURVE",
"400 344 OFFCURVE",
"403 350 CURVE",
"403 349 LINE",
"431 396 OFFCURVE",
"454 453 OFFCURVE",
"454 508 CURVE SMOOTH",
"454 670 OFFCURVE",
"329 720 OFFCURVE",
"196 720 CURVE SMOOTH",
"140 720 OFFCURVE",
"80 710 OFFCURVE",
"27 695 CURVE",
"27 565 LINE SMOOTH",
"25 158 OFFCURVE",
"26 80 OFFCURVE",
"29 2 CURVE",
"97 -3 OFFCURVE",
"195 -10 OFFCURVE",
"223 -10 CURVE SMOOTH",
"341 -10 OFFCURVE",
"455 14 OFFCURVE",
"478 144 CURVE SMOOTH",
"480 157 OFFCURVE",
"481 169 OFFCURVE",
"481 181 CURVE SMOOTH",
"481 245 OFFCURVE",
"444 288 OFFCURVE",
"407 334 CURVE"
);
},
{
closed = 1;
nodes = (
"274 427 OFFCURVE",
"250 422 OFFCURVE",
"227 422 CURVE SMOOTH",
"198 422 LINE",
"195 470 OFFCURVE",
"200 511 OFFCURVE",
"194 549 CURVE",
"216 544 OFFCURVE",
"238 545 OFFCURVE",
"258 542 CURVE",
"273 538 OFFCURVE",
"285 529 OFFCURVE",
"296 508 CURVE SMOOTH",
"306 489 OFFCURVE",
"296 467 OFFCURVE",
"287 452 CURVE"
);
},
{
closed = 1;
nodes = (
"268 143 OFFCURVE",
"234 144 OFFCURVE",
"198 145 CURVE",
"191 158 OFFCURVE",
"187 181 OFFCURVE",
"187 201 CURVE SMOOTH",
"187 225 OFFCURVE",
"192 253 OFFCURVE",
"197 274 CURVE",
"203 273 OFFCURVE",
"204 274 OFFCURVE",
"211 274 CURVE",
"225 273 OFFCURVE",
"241 272 OFFCURVE",
"258 268 CURVE SMOOTH",
"270 265 OFFCURVE",
"283 252 OFFCURVE",
"290 237 CURVE",
"290 238 LINE",
"293 228 OFFCURVE",
"296 215 OFFCURVE",
"296 201 CURVE SMOOTH",
"296 187 OFFCURVE",
"294 175 OFFCURVE",
"289 168 CURVE"
);
}
);
width = 477;
}
);
note = B;
rightKerningGroup = B;
unicode = 0042;
},
{
glyphname = C;
layers = (
{
hints = (
{
horizontal = 1;
place = "{-19, 21}";
target = up;
type = BottomGhost;
},
{
horizontal = 1;
place = "{553, 178}";
type = Stem;
},
{
place = "{17, 178}";
type = Stem;
},
{
place = "{295, 192}";
type = Stem;
}
);
layerId = "4AB56EE0-9DC5-4ACD-ABD7-6439ED5BAAD5";
paths = (
{
closed = 1;
nodes = (
"236 552 LINE",
"240 552 OFFCURVE",
"242 553 OFFCURVE",
"243 553 CURVE",
"290 555 OFFCURVE",
"293 507 OFFCURVE",
"295 461 CURVE",
"298 423 LINE",
"339 415 OFFCURVE",
"375 410 OFFCURVE",
"403 410 CURVE SMOOTH",
"421 410 OFFCURVE",
"445 413 OFFCURVE",
"473 419 CURVE",
"483 446 OFFCURVE",
"487 471 OFFCURVE",
"487 495 CURVE SMOOTH",
"487 626 OFFCURVE",
"365 731 OFFCURVE",
"227 731 CURVE SMOOTH",
"199 731 OFFCURVE",
"172 727 OFFCURVE",
"146 719 CURVE SMOOTH",
"126 713 OFFCURVE",
"103 705 OFFCURVE",
"84 690 CURVE",
"61 669 OFFCURVE",
"41 635 OFFCURVE",
"30 606 CURVE",
"22 587 OFFCURVE",
"16 557 OFFCURVE",
"18 537 CURVE",
"17 492 LINE SMOOTH",
"16 431 OFFCURVE",
"16 381 OFFCURVE",
"16 336 CURVE SMOOTH",
"16 245 OFFCURVE",
"18 181 OFFCURVE",
"21 121 CURVE",
"31 21 OFFCURVE",
"131 -19 OFFCURVE",
"224 -19 CURVE SMOOTH",
"237 -19 OFFCURVE",
"254 -18 OFFCURVE",
"266 -16 CURVE",
"392 -11 OFFCURVE",
"484 94 OFFCURVE",
"484 209 CURVE SMOOTH",
"484 233 OFFCURVE",
"481 256 OFFCURVE",
"472 282 CURVE",
"439 291 OFFCURVE",
"408 291 OFFCURVE",
"379 290 CURVE SMOOTH",
"359 289 OFFCURVE",
"338 289 OFFCURVE",
"310 293 CURVE",
"306 276 OFFCURVE",
"306 260 OFFCURVE",
"306 246 CURVE SMOOTH",
"306 226 OFFCURVE",
"305 206 OFFCURVE",
"297 189 CURVE",
"298 189 LINE",
"286 166 OFFCURVE",
"267 156 OFFCURVE",
"245 157 CURVE",
"220 170 OFFCURVE",
"202 210 OFFCURVE",
"198 244 CURVE",
"196 272 OFFCURVE",
"195 310 OFFCURVE",
"195 348 CURVE SMOOTH",
"195 434 OFFCURVE",
"200 526 OFFCURVE",
"203 531 CURVE",
"206 545 OFFCURVE",
"225 550 OFFCURVE",
"237 552 CURVE"
);
}
);
width = 488;
}
);
leftKerningGroup = C;
note = C;
rightKerningGroup = C;
unicode = 0043;
},
{
glyphname = D;
layers = (
{
hints = (
{
horizontal = 1;
place = "{-4, 21}";
target = up;
type = BottomGhost;
},
{
horizontal = 1;
place = "{706, -20}";
target = down;
type = TopGhost;
},
{
place = "{26, 171}";
type = Stem;
},
{
place = "{314, 160}";
type = Stem;
}
);
layerId = "4AB56EE0-9DC5-4ACD-ABD7-6439ED5BAAD5";
paths = (
{
closed = 1;
nodes = (
"411 612 LINE",
"385 655 OFFCURVE",
"336 693 OFFCURVE",
"286 706 CURVE",
"273 705 OFFCURVE",
"259 705 OFFCURVE",
"246 705 CURVE SMOOTH",
"233 705 OFFCURVE",
"219 705 OFFCURVE",
"206 706 CURVE",
"179 706 LINE SMOOTH",
"170 706 OFFCURVE",
"162 707 OFFCURVE",
"153 707 CURVE SMOOTH",
"113 707 OFFCURVE",
"75 705 OFFCURVE",
"30 693 CURVE",
"23 692 LINE",
"24 660 OFFCURVE",
"26 623 OFFCURVE",
"26 590 CURVE SMOOTH",
"26 550 OFFCURVE",
"26 495 OFFCURVE",
"25 456 CURVE SMOOTH",
"24 413 OFFCURVE",
"24 369 OFFCURVE",
"24 326 CURVE SMOOTH",
"24 214 OFFCURVE",
"27 105 OFFCURVE",
"42 -4 CURVE",
"65 -4 OFFCURVE",
"94 -3 OFFCURVE",
"120 -3 CURVE SMOOTH",
"189 -2 OFFCURVE",
"266 -2 OFFCURVE",
"330 0 CURVE",
"383 66 OFFCURVE",
"434 139 OFFCURVE",
"462 220 CURVE",
"471 264 OFFCURVE",
"472 304 OFFCURVE",
"474 346 CURVE",
"474 351 OFFCURVE",
"475 357 OFFCURVE",
"475 362 CURVE SMOOTH",
"475 377 OFFCURVE",
"476 392 OFFCURVE",
"477 407 CURVE",
"476 427 OFFCURVE",
"475 447 OFFCURVE",
"467 472 CURVE",
"467 471 LINE",
"457 522 OFFCURVE",
"437 570 OFFCURVE",
"405 620 CURVE"
);
},
{
closed = 1;
nodes = (
"282 246 OFFCURVE",
"268 225 OFFCURVE",
"253 221 CURVE",
"242 217 OFFCURVE",
"230 218 OFFCURVE",
"217 218 CURVE SMOOTH",
"212 218 OFFCURVE",
"201 222 OFFCURVE",
"196 224 CURVE",
"197 247 OFFCURVE",
"197 268 OFFCURVE",
"197 291 CURVE SMOOTH",
"197 314 OFFCURVE",
"197 337 OFFCURVE",
"198 360 CURVE",
"198 369 OFFCURVE",
"199 378 OFFCURVE",
"199 387 CURVE SMOOTH",
"199 413 LINE SMOOTH",
"199 433 OFFCURVE",
"198 463 OFFCURVE",
"197 481 CURVE",
"200 482 OFFCURVE",
"212 483 OFFCURVE",
"223 483 CURVE SMOOTH",
"235 483 OFFCURVE",
"247 482 OFFCURVE",
"259 481 CURVE",
"257 481 LINE",
"291 469 OFFCURVE",
"302 419 OFFCURVE",
"310 378 CURVE SMOOTH",
"313 365 OFFCURVE",
"314 354 OFFCURVE",
"314 343 CURVE SMOOTH",
"314 309 OFFCURVE",
"304 280 OFFCURVE",
"289 257 CURVE SMOOTH"
);
}
);
width = 482;
}
);
note = D;
rightKerningGroup = D;
unicode = 0044;
},
{
glyphname = E;
layers = (
{
hints = (
{
horizontal = 1;
place = "{-2, 142}";
type = Stem;
},
{
horizontal = 1;
place = "{536, 158}";
type = Stem;
},
{
place = "{24, 189}";
type = Stem;
}
);
layerId = "4AB56EE0-9DC5-4ACD-ABD7-6439ED5BAAD5";
paths = (
{
closed = 1;
nodes = (
"462 141 OFFCURVE",
"432 140 OFFCURVE",
"417 140 CURVE SMOOTH",
"349 140 OFFCURVE",
"283 146 OFFCURVE",
"215 146 CURVE",
"212 166 OFFCURVE",
"211 190 OFFCURVE",
"211 214 CURVE",
"215 266 LINE",
"221 270 OFFCURVE",
"231 267 OFFCURVE",
"250 267 CURVE SMOOTH",
"274 267 OFFCURVE",
"304 267 OFFCURVE",
"336 276 CURVE",
"339 372 OFFCURVE",
"338 392 OFFCURVE",
"333 421 CURVE",
"320 422 LINE SMOOTH",
"306 423 OFFCURVE",
"289 424 OFFCURVE",
"278 424 CURVE",
"212 416 LINE",
"207 431 OFFCURVE",
"206 445 OFFCURVE",
"206 458 CURVE SMOOTH",
"206 479 OFFCURVE",
"209 517 OFFCURVE",
"211 536 CURVE",
"341 537 LINE SMOOTH",
"381 537 OFFCURVE",
"424 539 OFFCURVE",
"475 550 CURVE",
"475 600 OFFCURVE",
"484 650 OFFCURVE",
"475 698 CURVE",
"354 709 OFFCURVE",
"172 698 OFFCURVE",
"31 694 CURVE",
"26 610 OFFCURVE",
"24 522 OFFCURVE",
"24 439 CURVE SMOOTH",
"24 373 OFFCURVE",
"31 52 OFFCURVE",
"30 1 CURVE",
"175 -10 OFFCURVE",
"323 -2 OFFCURVE",
"469 -2 CURVE",
"477 27 OFFCURVE",
"480 59 OFFCURVE",
"480 89 CURVE SMOOTH",
"480 104 OFFCURVE",
"479 119 OFFCURVE",
"478 142 CURVE"
);
}
);
width = 481;
}
);
note = E;
rightKerningGroup = E;
unicode = 0045;
},
{
glyphname = F;
layers = (
{
hints = (
{
horizontal = 1;
place = "{-8, 21}";
target = up;
type = BottomGhost;
},
{
horizontal = 1;
place = "{523, 179}";
type = Stem;
},
{
place = "{28, 206}";
type = Stem;
}
);
layerId = "4AB56EE0-9DC5-4ACD-ABD7-6439ED5BAAD5";
paths = (
{
closed = 1;
nodes = (
"370 276 OFFCURVE",
"369 292 OFFCURVE",
"369 310 CURVE SMOOTH",
"369 329 LINE SMOOTH",
"369 335 OFFCURVE",
"370 342 OFFCURVE",
"370 348 CURVE SMOOTH",
"370 356 OFFCURVE",
"371 364 OFFCURVE",
"371 372 CURVE SMOOTH",
"371 392 LINE SMOOTH",
"371 409 OFFCURVE",
"370 425 OFFCURVE",
"366 434 CURVE",
"338 430 OFFCURVE",
"310 429 OFFCURVE",
"285 429 CURVE SMOOTH",
"267 429 OFFCURVE",
"254 430 OFFCURVE",
"237 432 CURVE",
"233 438 OFFCURVE",
"227 491 OFFCURVE",
"234 508 CURVE SMOOTH",
"237 515 LINE",
"281 519 OFFCURVE",
"327 520 OFFCURVE",
"377 523 CURVE",
"383 523 OFFCURVE",
"389 524 OFFCURVE",
"395 524 CURVE",
"405 525 OFFCURVE",
"421 525 OFFCURVE",
"432 526 CURVE",
"457 527 OFFCURVE",
"487 529 OFFCURVE",
"505 530 CURVE",
"506 544 OFFCURVE",
"507 570 OFFCURVE",
"507 593 CURVE",
"506 650 OFFCURVE",
"505 658 OFFCURVE",
"505 665 CURVE SMOOTH",
"505 684 LINE",
"452 697 OFFCURVE",
"381 702 OFFCURVE",
"309 702 CURVE SMOOTH",
"198 702 OFFCURVE",
"74 690 OFFCURVE",
"28 683 CURVE",
"28 517 OFFCURVE",
"28 401 OFFCURVE",
"27 296 CURVE SMOOTH",
"27 165 LINE SMOOTH",
"27 116 OFFCURVE",
"26 61 OFFCURVE",
"26 2 CURVE",
"37 -6 OFFCURVE",
"71 -8 OFFCURVE",
"109 -8 CURVE SMOOTH",
"150 -8 OFFCURVE",
"197 -7 OFFCURVE",
"231 -3 CURVE",
"231 32 LINE",
"238 244 LINE",
"260 248 OFFCURVE",
"271 247 OFFCURVE",
"290 249 CURVE SMOOTH",
"311 251 OFFCURVE",
"336 253 OFFCURVE",
"355 256 CURVE",
"364 257 OFFCURVE",
"371 259 OFFCURVE",
"371 263 CURVE"
);
}
);
width = 494;
}
);
note = F;
rightKerningGroup = F;
unicode = 0046;
},
{
glyphname = G;
layers = (
{
hints = (
{
horizontal = 1;
place = "{-21, 21}";
target = up;
type = BottomGhost;
},
{
horizontal = 1;
place = "{466, 241}";
type = Stem;
},
{
place = "{12, 167}";
type = Stem;
}
);
layerId = "4AB56EE0-9DC5-4ACD-ABD7-6439ED5BAAD5";
paths = (
{
closed = 1;
nodes = (
"229 316 OFFCURVE",
"227 313 OFFCURVE",
"227 302 CURVE SMOOTH",
"227 291 LINE SMOOTH",
"227 275 OFFCURVE",
"227 260 OFFCURVE",
"229 239 CURVE",
"244 233 OFFCURVE",
"267 232 OFFCURVE",
"286 233 CURVE",
"310 233 LINE",
"312 227 OFFCURVE",
"305 189 OFFCURVE",
"302 179 CURVE",
"298 161 OFFCURVE",
"289 151 OFFCURVE",
"280 147 CURVE",
"265 141 OFFCURVE",
"242 136 OFFCURVE",
"226 138 CURVE",
"222 139 OFFCURVE",
"216 142 OFFCURVE",
"210 146 CURVE",
"193 161 OFFCURVE",
"186 202 OFFCURVE",
"183 231 CURVE SMOOTH",
"180 261 OFFCURVE",
"179 300 OFFCURVE",
"179 332 CURVE SMOOTH",
"179 404 OFFCURVE",
"185 475 OFFCURVE",
"198 518 CURVE SMOOTH",
"201 529 OFFCURVE",
"204 541 OFFCURVE",
"205 542 CURVE SMOOTH",
"221 558 OFFCURVE",
"237 553 OFFCURVE",
"255 552 CURVE",
"282 552 OFFCURVE",
"301 497 OFFCURVE",
"309 470 CURVE",
"344 466 OFFCURVE",
"361 466 OFFCURVE",
"382 466 CURVE SMOOTH",
"430 466 LINE SMOOTH",
"450 466 OFFCURVE",
"455 465 OFFCURVE",
"465 467 CURVE",
"465 481 LINE",
"466 490 OFFCURVE",
"467 505 OFFCURVE",
"467 513 CURVE SMOOTH",
"467 641 OFFCURVE",
"367 707 OFFCURVE",
"239 707 CURVE SMOOTH",
"222 707 OFFCURVE",
"207 706 OFFCURVE",
"192 704 CURVE SMOOTH",
"152 698 OFFCURVE",
"115 686 OFFCURVE",
"88 666 CURVE SMOOTH",
"48 636 OFFCURVE",
"30 588 OFFCURVE",
"23 548 CURVE SMOOTH",
"16 510 OFFCURVE",
"14 455 OFFCURVE",
"13 416 CURVE SMOOTH",
"12 397 OFFCURVE",
"12 381 OFFCURVE",
"12 365 CURVE",
"22 192 OFFCURVE",
"23 188 OFFCURVE",
"23 186 CURVE",
"26 159 OFFCURVE",
"31 131 OFFCURVE",
"35 116 CURVE SMOOTH",
"50 61 OFFCURVE",
"82 19 OFFCURVE",
"138 -6 CURVE",
"164 -16 OFFCURVE",
"195 -21 OFFCURVE",
"225 -21 CURVE SMOOTH",
"272 -21 OFFCURVE",
"320 -11 OFFCURVE",
"360 1 CURVE",
"415 21 OFFCURVE",
"457 62 OFFCURVE",
"466 124 CURVE SMOOTH",
"471 155 OFFCURVE",
"474 193 OFFCURVE",
"474 225 CURVE SMOOTH",
"474 263 OFFCURVE",
"469 311 OFFCURVE",
"465 356 CURVE",
"448 357 LINE",
"442 357 OFFCURVE",
"429 358 OFFCURVE",
"416 359 CURVE SMOOTH",
"389 361 OFFCURVE",
"352 363 OFFCURVE",
"319 363 CURVE SMOOTH",
"279 363 OFFCURVE",
"248 352 OFFCURVE",
"225 352 CURVE"
);
}
);
width = 481;
}
);
leftKerningGroup = G;
note = G;
rightKerningGroup = G;
unicode = 0047;
},
{
glyphname = H;
layers = (
{
hints = (
{
horizontal = 1;
place = "{-2, 21}";
target = up;
type = BottomGhost;
},
{
horizontal = 1;
place = "{712, -20}";
target = down;
type = TopGhost;
},
{
place = "{45, 166}";
type = Stem;
},
{
place = "{293, 177}";
type = Stem;
},
{
place = "{24, 169}";
type = Stem;
},
{
horizontal = 1;
place = "{-6, 21}";
target = up;
type = BottomGhost;
},
{
place = "{305, 165}";
type = Stem;
},
{
horizontal = 1;
place = "{-5, 21}";
target = up;
type = BottomGhost;
}
);
layerId = "4AB56EE0-9DC5-4ACD-ABD7-6439ED5BAAD5";
paths = (
{
closed = 1;
nodes = (
"457 710 LINE",
"437 712 OFFCURVE",
"425 712 OFFCURVE",
"410 712 CURVE SMOOTH",
"370 712 OFFCURVE",
"322 707 OFFCURVE",
"290 697 CURVE",
"292 657 OFFCURVE",
"293 620 OFFCURVE",
"293 585 CURVE SMOOTH",
"293 533 OFFCURVE",
"291 492 OFFCURVE",
"286 438 CURVE",
"284 438 LINE",
"266 436 OFFCURVE",
"263 433 OFFCURVE",
"246 433 CURVE",
"208 437 LINE",
"197 489 OFFCURVE",
"195 527 OFFCURVE",
"193 575 CURVE",
"193 583 OFFCURVE",
"192 591 OFFCURVE",
"192 599 CURVE",
"191 633 OFFCURVE",
"189 666 OFFCURVE",
"185 698 CURVE",
"167 704 OFFCURVE",
"152 705 OFFCURVE",
"138 705 CURVE SMOOTH",
"25 703 LINE",
"24 671 OFFCURVE",
"24 630 OFFCURVE",
"24 591 CURVE SMOOTH",
"24 382 OFFCURVE",
"38 93 OFFCURVE",
"45 -2 CURVE",
"78 1 OFFCURVE",
"85 0 OFFCURVE",
"101 -2 CURVE",
"104 -2 OFFCURVE",
"107 -3 OFFCURVE",
"110 -3 CURVE",
"122 -4 OFFCURVE",
"139 -5 OFFCURVE",
"150 -5 CURVE SMOOTH",
"169 -5 OFFCURVE",
"188 -2 OFFCURVE",
"206 8 CURVE",
"210 33 OFFCURVE",
"211 65 OFFCURVE",
"211 99 CURVE SMOOTH",
"211 107 OFFCURVE",
"210 116 OFFCURVE",
"210 125 CURVE SMOOTH",
"210 151 LINE",
"209 173 OFFCURVE",
"209 195 OFFCURVE",
"209 218 CURVE SMOOTH",
"209 234 OFFCURVE",
"209 244 OFFCURVE",
"212 273 CURVE",
"220 275 OFFCURVE",
"240 277 OFFCURVE",
"258 277 CURVE",
"296 275 LINE",
"303 229 OFFCURVE",
"304 186 OFFCURVE",
"305 146 CURVE SMOOTH",
"306 109 OFFCURVE",
"308 37 OFFCURVE",
"314 -6 CURVE",
"328 -5 OFFCURVE",
"358 -4 OFFCURVE",
"376 -4 CURVE SMOOTH",
"408 -4 OFFCURVE",
"443 -4 OFFCURVE",
"484 3 CURVE"
);
}
);
width = 499;
}
);
note = H;
unicode = 0048;
},
{
glyphname = I;
layers = (
{
hints = (
{
horizontal = 1;
place = "{-9, 21}";
target = up;
type = BottomGhost;
},
{
place = "{23, 207}";
type = Stem;
},
{
horizontal = 1;
place = "{-15, 21}";
target = up;
type = BottomGhost;
}
);
layerId = "4AB56EE0-9DC5-4ACD-ABD7-6439ED5BAAD5";
paths = (
{
closed = 1;
nodes = (
"237 708 LINE",
"198 708 LINE SMOOTH",
"158 707 OFFCURVE",
"134 709 OFFCURVE",
"115 710 CURVE",
"71 709 OFFCURVE",
"73 716 OFFCURVE",
"32 710 CURVE",
"26 646 OFFCURVE",
"23 582 OFFCURVE",
"23 515 CURVE SMOOTH",
"23 464 OFFCURVE",
"25 396 OFFCURVE",
"27 343 CURVE",
"27 324 OFFCURVE",
"28 304 OFFCURVE",
"28 285 CURVE SMOOTH",
"29 247 OFFCURVE",
"30 209 OFFCURVE",
"30 170 CURVE SMOOTH",
"30 112 OFFCURVE",
"28 43 OFFCURVE",
"24 -15 CURVE",
"57 -6 OFFCURVE",
"74 -7 OFFCURVE",
"93 -8 CURVE SMOOTH",
"105 -9 LINE SMOOTH",
"122 -10 OFFCURVE",
"141 -10 OFFCURVE",
"158 -10 CURVE SMOOTH",
"193 -10 OFFCURVE",
"224 -7 OFFCURVE",
"236 5 CURVE",
"232 74 OFFCURVE",
"230 144 OFFCURVE",
"230 214 CURVE SMOOTH",
"230 293 OFFCURVE",
"232 384 OFFCURVE",
"234 463 CURVE SMOOTH",
"236 542 OFFCURVE",
"237 621 OFFCURVE",
"237 699 CURVE SMOOTH"
);
}
);
width = 260;
}
);
note = I;
rightKerningGroup = I;
unicode = 0049;
},
{
glyphname = J;
layers = (
{
hints = (
{
horizontal = 1;
place = "{-13, 21}";
target = up;
type = BottomGhost;
},
{
horizontal = 1;
place = "{717, -20}";
target = down;
type = TopGhost;
},
{
place = "{261, 182}";
type = Stem;
}
);
layerId = "4AB56EE0-9DC5-4ACD-ABD7-6439ED5BAAD5";
paths = (
{
closed = 1;
nodes = (
"440 717 LINE",
"264 715 LINE",
"264 703 LINE SMOOTH",
"262 641 OFFCURVE",
"261 580 OFFCURVE",
"261 519 CURVE SMOOTH",
"261 433 OFFCURVE",
"263 320 OFFCURVE",
"265 236 CURVE",
"262 201 OFFCURVE",
"249 165 OFFCURVE",
"222 171 CURVE",
"185 174 OFFCURVE",
"177 241 OFFCURVE",
"174 280 CURVE",
"174 288 LINE",
"139 295 OFFCURVE",
"100 298 OFFCURVE",
"67 298 CURVE SMOOTH",
"41 298 OFFCURVE",
"14 297 OFFCURVE",
"-11 290 CURVE",
"-11 273 LINE SMOOTH",
"-11 269 OFFCURVE",
"-12 264 OFFCURVE",
"-12 258 CURVE SMOOTH",
"-12 158 OFFCURVE",
"14 27 OFFCURVE",
"122 -5 CURVE",
"146 -10 OFFCURVE",
"172 -13 OFFCURVE",
"200 -13 CURVE SMOOTH",
"241 -13 OFFCURVE",
"284 -6 OFFCURVE",
"319 12 CURVE",
"319 11 LINE",
"437 54 OFFCURVE",
"440 183 OFFCURVE",
"443 288 CURVE SMOOTH",
"443 302 OFFCURVE",
"443 316 OFFCURVE",
"444 329 CURVE SMOOTH",
"445 348 OFFCURVE",
"445 367 OFFCURVE",
"445 386 CURVE SMOOTH",
"445 414 OFFCURVE",
"444 454 OFFCURVE",
"443 484 CURVE",
"443 497 OFFCURVE",
"442 511 OFFCURVE",
"442 523 CURVE",
"441 570 OFFCURVE",
"440 616 OFFCURVE",
"440 662 CURVE SMOOTH"
);
}
);
width = 463;
}
);
leftKerningGroup = J;
note = J;
rightKerningGroup = J;
unicode = 004A;
},
{
glyphname = K;
layers = (
{
hints = (
{
horizontal = 1;
place = "{-6, 21}";
target = up;
type = BottomGhost;
},
{
place = "{30, 165}";
type = Stem;
},
{
horizontal = 1;
place = "{-3, 21}";
target = up;
type = BottomGhost;
}
);
layerId = "4AB56EE0-9DC5-4ACD-ABD7-6439ED5BAAD5";
paths = (
{
closed = 1;
nodes = (
"307 359 LINE",
"327 403 OFFCURVE",
"355 457 OFFCURVE",
"380 497 CURVE SMOOTH",
"386 507 LINE SMOOTH",
"423 571 OFFCURVE",
"460 634 OFFCURVE",
"478 698 CURVE",
"446 703 OFFCURVE",
"407 704 OFFCURVE",
"382 703 CURVE",
"316 704 LINE",
"287 664 OFFCURVE",
"267 627 OFFCURVE",
"249 592 CURVE SMOOTH",
"233 559 OFFCURVE",
"215 528 OFFCURVE",
"195 496 CURVE",
"195 516 LINE SMOOTH",
"195 618 OFFCURVE",
"195 664 OFFCURVE",
"194 702 CURVE",
"176 702 OFFCURVE",
"142 702 OFFCURVE",
"123 703 CURVE SMOOTH",
"97 704 OFFCURVE",
"55 705 OFFCURVE",
"30 704 CURVE",
"30 624 OFFCURVE",
"29 517 OFFCURVE",
"27 437 CURVE SMOOTH",
"25 358 OFFCURVE",
"24 279 OFFCURVE",
"24 200 CURVE SMOOTH",
"24 135 OFFCURVE",
"25 68 OFFCURVE",
"28 3 CURVE",
"54 -3 OFFCURVE",
"90 -7 OFFCURVE",
"120 -7 CURVE SMOOTH",
"149 -7 OFFCURVE",
"179 -4 OFFCURVE",
"204 3 CURVE",
"204 29 OFFCURVE",
"203 71 OFFCURVE",
"202 102 CURVE SMOOTH",
"201 140 OFFCURVE",
"200 180 OFFCURVE",
"200 229 CURVE",
"203 220 OFFCURVE",
"204 217 OFFCURVE",
"204 216 CURVE",
"207 204 LINE",
"208 201 OFFCURVE",
"213 180 OFFCURVE",
"219 167 CURVE SMOOTH",
"245 108 OFFCURVE",
"273 45 OFFCURVE",
"314 -3 CURVE",
"328 -3 OFFCURVE",
"344 -3 OFFCURVE",
"355 -4 CURVE SMOOTH",
"372 -5 OFFCURVE",
"391 -6 OFFCURVE",
"408 -6 CURVE SMOOTH",
"428 -6 OFFCURVE",
"450 -5 OFFCURVE",
"479 2 CURVE"
);
}
);
width = 459;
}
);
note = K;
rightKerningGroup = K;
unicode = 004B;
},
{
glyphname = L;
layers = (
{
hints = (
{
horizontal = 1;
place = "{-5, 21}";
target = up;
type = BottomGhost;
},
{
horizontal = 1;
place = "{717, -20}";
target = down;
type = TopGhost;
},
{
place = "{25, 190}";
type = Stem;
},
{
horizontal = 1;
place = "{-6, 163}";
type = Stem;
},
{
horizontal = 1;
place = "{-7, 21}";
target = up;
type = BottomGhost;
}
);
layerId = "4AB56EE0-9DC5-4ACD-ABD7-6439ED5BAAD5";
paths = (
{
closed = 1;
nodes = (
"451 102 OFFCURVE",
"452 117 OFFCURVE",
"453 130 CURVE",
"454 136 OFFCURVE",
"454 148 OFFCURVE",
"454 159 CURVE",
"444 158 OFFCURVE",
"429 157 OFFCURVE",
"408 157 CURVE SMOOTH",
"385 157 OFFCURVE",
"357 158 OFFCURVE",
"329 160 CURVE SMOOTH",
"311 161 OFFCURVE",
"293 161 OFFCURVE",
"276 162 CURVE SMOOTH",
"244 164 OFFCURVE",
"234 165 OFFCURVE",
"215 165 CURVE",
"215 230 LINE SMOOTH",
"215 288 OFFCURVE",
"215 347 OFFCURVE",
"214 407 CURVE SMOOTH",
"213 467 OFFCURVE",
"212 528 OFFCURVE",
"212 587 CURVE SMOOTH",
"212 625 OFFCURVE",
"213 666 OFFCURVE",
"214 702 CURVE",
"190 712 OFFCURVE",
"149 717 OFFCURVE",
"113 717 CURVE SMOOTH",
"79 717 OFFCURVE",
"42 712 OFFCURVE",
"24 705 CURVE",
"24 686 OFFCURVE",
"25 661 OFFCURVE",
"25 640 CURVE SMOOTH",
"25 620 OFFCURVE",
"25 596 OFFCURVE",
"26 579 CURVE",
"26 542 LINE SMOOTH",
"27 472 OFFCURVE",
"28 411 OFFCURVE",
"28 349 CURVE SMOOTH",
"28 256 OFFCURVE",
"27 158 OFFCURVE",
"21 17 CURVE",
"21 -6 LINE",
"89 -7 OFFCURVE",
"158 -7 OFFCURVE",
"204 -7 CURVE SMOOTH",
"282 -7 OFFCURVE",
"336 -7 OFFCURVE",
"367 -5 CURVE SMOOTH",
"385 -4 OFFCURVE",
"404 -4 OFFCURVE",
"416 -5 CURVE SMOOTH",
"445 -7 OFFCURVE",
"454 -5 OFFCURVE",
"454 37 CURVE SMOOTH",
"454 45 OFFCURVE",
"454 60 OFFCURVE",
"453 72 CURVE",
"453 78 OFFCURVE",
"452 84 OFFCURVE",
"452 91 CURVE"
);
}
);
width = 461;
}
);
note = L;
rightKerningGroup = L;
unicode = 004C;
},
{
glyphname = M;
layers = (
{
hints = (
{
horizontal = 1;
place = "{-7, 21}";
target = up;
type = BottomGhost;
},
{
horizontal = 1;
place = "{702, -20}";
target = down;
type = TopGhost;
},
{
place = "{29, 165}";
type = Stem;
},
{
place = "{300, 173}";
type = Stem;
},
{
horizontal = 1;
place = "{-3, 21}";
target = up;
type = BottomGhost;
}
);
layerId = "4AB56EE0-9DC5-4ACD-ABD7-6439ED5BAAD5";
paths = (
{
closed = 1;
nodes = (
"475 702 LINE",
"457 702 OFFCURVE",
"416 701 OFFCURVE",
"391 700 CURVE SMOOTH",
"372 699 OFFCURVE",
"353 698 OFFCURVE",
"337 698 CURVE SMOOTH",
"326 698 OFFCURVE",
"316 698 OFFCURVE",
"303 701 CURVE",
"254 582 OFFCURVE",
"253 572 OFFCURVE",
"250 564 CURVE",
"218 648 OFFCURVE",
"208 675 OFFCURVE",
"190 696 CURVE",
"179 695 OFFCURVE",
"168 695 OFFCURVE",
"157 695 CURVE SMOOTH",
"74 697 OFFCURVE",
"52 695 OFFCURVE",
"29 687 CURVE",
"27 431 OFFCURVE",
"26 267 OFFCURVE",
"26 165 CURVE SMOOTH",
"26 51 OFFCURVE",
"27 28 OFFCURVE",
"28 9 CURVE",
"32 -9 OFFCURVE",
"22 -3 OFFCURVE",
"48 -5 CURVE",
"116 -7 LINE SMOOTH",
"142 -7 OFFCURVE",
"172 -5 OFFCURVE",
"203 0 CURVE",
"198 76 OFFCURVE",
"194 157 OFFCURVE",
"194 234 CURVE SMOOTH",
"194 258 OFFCURVE",
"193 287 OFFCURVE",
"194 310 CURVE",
"209 275 OFFCURVE",
"228 239 OFFCURVE",
"246 238 CURVE",
"265 238 OFFCURVE",
"277 269 OFFCURVE",
"300 310 CURVE",
"306 120 OFFCURVE",
"307 105 OFFCURVE",
"307 90 CURVE SMOOTH",
"307 58 OFFCURVE",
"308 22 OFFCURVE",
"309 -5 CURVE",
"385 -4 OFFCURVE",
"394 -3 OFFCURVE",
"402 -3 CURVE SMOOTH",
"421 -3 OFFCURVE",
"445 -4 OFFCURVE",
"471 -8 CURVE"
);
}
);
width = 501;
}
);
note = M;
rightKerningGroup = I;
unicode = 004D;
},
{
glyphname = N;
layers = (
{
hints = (
{
horizontal = 1;
place = "{-10, 21}";
target = up;
type = BottomGhost;
},
{
horizontal = 1;
place = "{715, -20}";
target = down;
type = TopGhost;
},
{
place = "{24, 172}";
type = Stem;
},
{
place = "{303, 168}";
type = Stem;
},
{
horizontal = 1;
place = "{-6, 21}";
target = up;
type = BottomGhost;
},
{
horizontal = 1;
place = "{-4, 21}";
target = up;
type = BottomGhost;
},
{
horizontal = 1;
place = "{-3, 21}";
target = up;
type = BottomGhost;
}
);
layerId = "4AB56EE0-9DC5-4ACD-ABD7-6439ED5BAAD5";
paths = (
{
closed = 1;
nodes = (
"444 -10 OFFCURVE",
"454 -8 OFFCURVE",
"459 -6 CURVE",
"462 -5 OFFCURVE",
"465 -3 OFFCURVE",
"471 -3 CURVE",
"471 706 LINE",
"443 712 OFFCURVE",
"416 715 OFFCURVE",
"390 715 CURVE SMOOTH",
"362 715 OFFCURVE",
"334 713 OFFCURVE",
"303 707 CURVE",
"301 632 OFFCURVE",
"302 493 OFFCURVE",
"304 436 CURVE",
"273 503 OFFCURVE",
"225 631 OFFCURVE",
"190 693 CURVE",
"172 705 OFFCURVE",
"113 709 OFFCURVE",
"93 709 CURVE SMOOTH",
"75 709 OFFCURVE",
"56 708 OFFCURVE",
"33 702 CURVE",
"26 617 OFFCURVE",
"24 525 OFFCURVE",
"24 432 CURVE SMOOTH",
"24 370 OFFCURVE",
"24 312 OFFCURVE",
"25 253 CURVE SMOOTH",
"26 194 OFFCURVE",
"27 135 OFFCURVE",
"27 71 CURVE SMOOTH",
"27 -4 LINE",
"38 -4 OFFCURVE",
"61 -5 OFFCURVE",
"76 -6 CURVE",
"97 -6 OFFCURVE",
"118 -10 OFFCURVE",
"138 -10 CURVE SMOOTH",
"156 -10 OFFCURVE",
"173 -9 OFFCURVE",
"197 -2 CURVE",
"196 21 OFFCURVE",
"196 52 OFFCURVE",
"196 83 CURVE SMOOTH",
"196 275 LINE",
"215 224 OFFCURVE",
"246 156 OFFCURVE",
"279 84 CURVE SMOOTH",
"292 56 OFFCURVE",
"306 24 OFFCURVE",
"319 -5 CURVE",
"328 -3 OFFCURVE",
"414 -12 OFFCURVE",
"424 -10 CURVE"
);
}
);
width = 498;
}
);
note = N;
rightKerningGroup = I;
unicode = 004E;
},
{
glyphname = O;
layers = (
{
hints = (
{
horizontal = 1;
place = "{-19, 21}";
target = up;
type = BottomGhost;
},
{
horizontal = 1;
place = "{706, -20}";
target = down;
type = TopGhost;
},
{
place = "{16, 144}";
type = Stem;
},
{
place = "{315, 153}";
type = Stem;
}
);
layerId = "4AB56EE0-9DC5-4ACD-ABD7-6439ED5BAAD5";
paths = (
{
closed = 1;
nodes = (
"444 614 OFFCURVE",
"428 636 OFFCURVE",
"405 657 CURVE",
"362 690 OFFCURVE",
"302 706 OFFCURVE",
"240 706 CURVE SMOOTH",
"190 706 OFFCURVE",
"141 695 OFFCURVE",
"100 675 CURVE SMOOTH",
"81 665 OFFCURVE",
"79 664 OFFCURVE",
"78 663 CURVE",
"34 611 OFFCURVE",
"19 539 OFFCURVE",
"16 482 CURVE SMOOTH",
"14 451 OFFCURVE",
"13 421 OFFCURVE",
"13 390 CURVE SMOOTH",
"13 342 OFFCURVE",
"15 282 OFFCURVE",
"18 233 CURVE",
"18 227 OFFCURVE",
"18 208 OFFCURVE",
"19 200 CURVE",
"19 193 OFFCURVE",
"20 177 OFFCURVE",
"21 168 CURVE",
"22 134 OFFCURVE",
"29 89 OFFCURVE",
"47 55 CURVE SMOOTH",
"73 6 OFFCURVE",
"134 -13 OFFCURVE",
"191 -18 CURVE SMOOTH",
"200 -19 OFFCURVE",
"214 -19 OFFCURVE",
"223 -19 CURVE SMOOTH",
"254 -19 OFFCURVE",
"283 -16 OFFCURVE",
"310 -8 CURVE SMOOTH",
"353 4 OFFCURVE",
"400 25 OFFCURVE",
"421 55 CURVE",
"448 98 OFFCURVE",
"459 147 OFFCURVE",
"462 193 CURVE SMOOTH",
"465 226 LINE SMOOTH",
"468 263 OFFCURVE",
"468 298 OFFCURVE",
"468 334 CURVE SMOOTH",
"468 366 OFFCURVE",
"468 398 OFFCURVE",
"470 431 CURVE",
"470 449 LINE SMOOTH",
"470 455 OFFCURVE",
"471 461 OFFCURVE",
"471 467 CURVE SMOOTH",
"471 488 OFFCURVE",
"470 509 OFFCURVE",
"468 530 CURVE",
"465 551 OFFCURVE",
"460 571 OFFCURVE",
"451 594 CURVE"
);
},
{
closed = 1;
nodes = (
"313 416 LINE",
"315 348 LINE",
"315 300 LINE SMOOTH",
"315 294 OFFCURVE",
"314 288 OFFCURVE",
"314 281 CURVE SMOOTH",
"314 267 LINE SMOOTH",
"314 261 OFFCURVE",
"313 255 OFFCURVE",
"313 248 CURVE SMOOTH",
"313 244 OFFCURVE",
"312 238 OFFCURVE",
"312 235 CURVE",
"311 227 OFFCURVE",
"311 215 OFFCURVE",
"311 210 CURVE SMOOTH",
"311 187 OFFCURVE",
"310 178 OFFCURVE",
"296 160 CURVE",
"279 141 OFFCURVE",
"256 131 OFFCURVE",
"235 131 CURVE SMOOTH",
"210 131 OFFCURVE",
"184 145 OFFCURVE",
"171 172 CURVE",
"171 171 LINE",
"164 195 OFFCURVE",
"162 220 OFFCURVE",
"160 245 CURVE",
"160 250 OFFCURVE",
"159 254 OFFCURVE",
"159 259 CURVE",
"158 275 OFFCURVE",
"156 297 OFFCURVE",
"153 312 CURVE",
"153 311 LINE",
"152 328 OFFCURVE",
"152 345 OFFCURVE",
"152 362 CURVE SMOOTH",
"152 400 OFFCURVE",
"154 439 OFFCURVE",
"162 474 CURVE",
"170 500 OFFCURVE",
"187 527 OFFCURVE",
"203 540 CURVE",
"221 552 OFFCURVE",
"247 561 OFFCURVE",
"266 553 CURVE",
"291 541 OFFCURVE",
"306 510 OFFCURVE",
"309 473 CURVE SMOOTH",
"313 421 LINE"
);
}
);
width = 483;
}
);
leftKerningGroup = G;
note = O;
rightKerningGroup = O;
unicode = 004F;
},
{
glyphname = P;
layers = (
{
hints = (
{
horizontal = 1;
place = "{-3, 21}";
target = up;
type = BottomGhost;
},
{
horizontal = 1;
place = "{719, -20}";
target = down;
type = TopGhost;
},
{
place = "{25, 174}";
type = Stem;
},
{
place = "{325, 174}";
type = Stem;
},
{
place = "{25, 201}";
type = Stem;
}
);
layerId = "4AB56EE0-9DC5-4ACD-ABD7-6439ED5BAAD5";
paths = (
{
closed = 1;
nodes = (
"499 491 LINE",
"490 662 OFFCURVE",
"334 719 OFFCURVE",
"183 719 CURVE SMOOTH",
"129 719 OFFCURVE",
"71 711 OFFCURVE",
"22 697 CURVE",
"25 623 OFFCURVE",
"25 541 OFFCURVE",
"25 460 CURVE SMOOTH",
"25 339 LINE SMOOTH",
"25 219 OFFCURVE",
"25 99 OFFCURVE",
"29 2 CURVE",
"54 -1 OFFCURVE",
"90 -3 OFFCURVE",
"121 -3 CURVE SMOOTH",
"158 -3 OFFCURVE",
"195 -1 OFFCURVE",
"215 5 CURVE",
"226 6 LINE",
"226 209 LINE SMOOTH",
"226 229 OFFCURVE",
"227 243 OFFCURVE",
"226 255 CURVE",
"233 254 OFFCURVE",
"239 255 OFFCURVE",
"246 255 CURVE SMOOTH",
"369 255 OFFCURVE",
"483 346 OFFCURVE",
"498 463 CURVE SMOOTH",
"499 471 OFFCURVE",
"499 480 OFFCURVE",
"499 490 CURVE SMOOTH"
);
},
{
closed = 1;
nodes = (
"309 526 LINE",
"318 513 OFFCURVE",
"325 498 OFFCURVE",
"325 476 CURVE SMOOTH",
"325 462 OFFCURVE",
"321 447 OFFCURVE",
"315 437 CURVE",
"295 407 OFFCURVE",
"253 412 OFFCURVE",
"221 411 CURVE SMOOTH",
"207 411 LINE",
"199 433 OFFCURVE",
"199 465 OFFCURVE",
"199 495 CURVE SMOOTH",
"199 504 LINE SMOOTH",
"199 522 OFFCURVE",
"199 542 OFFCURVE",
"198 558 CURVE",
"234 556 OFFCURVE",
"271 561 OFFCURVE",
"301 535 CURVE"
);
}
);
width = 497;
}
);
note = P;
rightKerningGroup = P;
unicode = 0050;
},
{
glyphname = Q;
layers = (
{
hints = (
{
horizontal = 1;
place = "{-11, 248}";
type = Stem;
},
{
horizontal = 1;
place = "{560, 159}";
type = Stem;
},
{
place = "{15, 152}";
type = Stem;
},
{
place = "{328, 152}";
type = Stem;
},
{
horizontal = 1;
place = "{-13, 21}";
target = up;
type = BottomGhost;
}
);
layerId = "4AB56EE0-9DC5-4ACD-ABD7-6439ED5BAAD5";
paths = (
{
closed = 1;
nodes = (
"471 164 LINE",
"476 185 OFFCURVE",
"477 209 OFFCURVE",
"478 231 CURVE",
"478 242 OFFCURVE",
"479 253 OFFCURVE",
"480 264 CURVE SMOOTH",
"483 304 OFFCURVE",
"483 327 OFFCURVE",
"483 368 CURVE SMOOTH",
"483 449 OFFCURVE",
"478 530 OFFCURVE",
"457 594 CURVE",
"407 714 OFFCURVE",
"355 719 OFFCURVE",
"253 719 CURVE SMOOTH",
"143 719 OFFCURVE",
"57 677 OFFCURVE",
"37 619 CURVE",
"18 550 OFFCURVE",
"15 468 OFFCURVE",
"15 391 CURVE SMOOTH",
"15 252 LINE SMOOTH",
"15 174 OFFCURVE",
"21 104 OFFCURVE",
"80 50 CURVE SMOOTH",
"119 13 OFFCURVE",
"157 -5 OFFCURVE",
"230 -11 CURVE SMOOTH",
"268 -14 OFFCURVE",
"313 -4 OFFCURVE",
"337 10 CURVE",
"348 -1 OFFCURVE",
"366 -13 OFFCURVE",
"377 -13 CURVE SMOOTH",
"398 -13 OFFCURVE",
"418 0 OFFCURVE",
"431 8 CURVE",
"448 21 OFFCURVE",
"462 30 OFFCURVE",
"462 48 CURVE SMOOTH",
"462 55 OFFCURVE",
"454 64 OFFCURVE",
"444 76 CURVE",
"443 77 OFFCURVE",
"442 78 OFFCURVE",
"441 80 CURVE",
"454 107 OFFCURVE",
"463 128 OFFCURVE",
"466 138 CURVE",
"470 149 OFFCURVE",
"470 156 OFFCURVE",
"471 162 CURVE"
);
},
{
closed = 1;
nodes = (
"274 237 OFFCURVE",
"265 230 OFFCURVE",
"258 223 CURVE",
"244 210 OFFCURVE",
"238 206 OFFCURVE",
"235 205 CURVE",
"234 204 OFFCURVE",
"234 205 OFFCURVE",
"234 205 CURVE",
"222 198 OFFCURVE",
"211 191 OFFCURVE",
"211 179 CURVE SMOOTH",
"211 167 OFFCURVE",
"220 153 OFFCURVE",
"229 142 CURVE",
"234 137 OFFCURVE",
"242 129 OFFCURVE",
"245 125 CURVE",
"251 120 LINE",
"218 120 OFFCURVE",
"189 135 OFFCURVE",
"175 173 CURVE",
"175 172 LINE",
"169 194 OFFCURVE",
"167 231 OFFCURVE",
"167 265 CURVE SMOOTH",
"167 275 OFFCURVE",
"168 285 OFFCURVE",
"168 294 CURVE SMOOTH",
"168 343 LINE SMOOTH",
"168 399 OFFCURVE",
"170 432 OFFCURVE",
"175 488 CURVE SMOOTH",
"179 552 OFFCURVE",
"187 560 OFFCURVE",
"250 560 CURVE SMOOTH",
"302 560 OFFCURVE",
"317 529 OFFCURVE",
"321 483 CURVE SMOOTH",
"326 435 OFFCURVE",
"328 407 OFFCURVE",
"328 361 CURVE SMOOTH",
"328 286 LINE",
"327 247 LINE SMOOTH",
"327 236 OFFCURVE",
"327 228 OFFCURVE",
"326 217 CURVE",
"325 223 OFFCURVE",
"316 237 OFFCURVE",
"294 237 CURVE SMOOTH"
);
}
);
width = 495;
}
);
leftKerningGroup = Q;
note = Q;
rightKerningGroup = Q;
unicode = 0051;
},
{
glyphname = R;
layers = (
{
hints = (
{
horizontal = 1;
place = "{-2, 21}";
target = up;
type = BottomGhost;
},
{
horizontal = 1;
place = "{722, -20}";
target = down;
type = TopGhost;
},
{
place = "{29, 192}";
type = Stem;
},
{
place = "{314, 204}";
type = Stem;
},
{
horizontal = 1;
place = "{-6, 21}";
target = up;
type = BottomGhost;
},
{
horizontal = 1;
place = "{-5, 21}";
target = up;
type = BottomGhost;
}
);
layerId = "4AB56EE0-9DC5-4ACD-ABD7-6439ED5BAAD5";
paths = (
{
closed = 1;
nodes = (
"424 190 OFFCURVE",
"420 197 OFFCURVE",
"417 202 CURVE",
"397 231 OFFCURVE",
"376 263 OFFCURVE",
"354 302 CURVE",
"418 309 OFFCURVE",
"461 346 OFFCURVE",
"486 391 CURVE SMOOTH",
"506 427 OFFCURVE",
"518 464 OFFCURVE",
"518 498 CURVE SMOOTH",
"518 603 OFFCURVE",
"415 703 OFFCURVE",
"298 718 CURVE SMOOTH",
"275 721 OFFCURVE",
"247 722 OFFCURVE",
"223 722 CURVE SMOOTH",
"161 722 OFFCURVE",
"97 713 OFFCURVE",
"44 706 CURVE SMOOTH",
"17 702 LINE",
"25 654 OFFCURVE",
"29 367 OFFCURVE",
"29 176 CURVE SMOOTH",
"29 72 OFFCURVE",
"31 -5 OFFCURVE",
"40 -5 CURVE SMOOTH",
"93 -5 LINE SMOOTH",
"101 -5 OFFCURVE",
"109 -6 OFFCURVE",
"117 -6 CURVE SMOOTH",
"157 -6 OFFCURVE",
"199 -4 OFFCURVE",
"229 10 CURVE",
"229 16 OFFCURVE",
"229 27 OFFCURVE",
"228 34 CURVE",
"228 33 LINE",
"225 75 OFFCURVE",
"221 139 OFFCURVE",
"221 193 CURVE SMOOTH",
"221 219 LINE",
"269 150 OFFCURVE",
"313 52 OFFCURVE",
"337 -3 CURVE",
"354 -4 LINE SMOOTH",
"368 -5 OFFCURVE",
"385 -6 OFFCURVE",
"396 -6 CURVE SMOOTH",
"419 -6 OFFCURVE",
"442 -5 OFFCURVE",
"463 -4 CURVE SMOOTH",
"484 -3 OFFCURVE",
"501 -2 OFFCURVE",
"517 -2 CURVE SMOOTH",
"533 -2 LINE",
"509 63 OFFCURVE",
"469 124 OFFCURVE",
"428 186 CURVE"
);
},
{
closed = 1;
nodes = (
"271 439 OFFCURVE",
"253 438 OFFCURVE",
"241 438 CURVE SMOOTH",
"224 438 OFFCURVE",
"216 438 OFFCURVE",
"199 440 CURVE",
"196 452 OFFCURVE",
"196 480 OFFCURVE",
"196 506 CURVE SMOOTH",
"196 526 OFFCURVE",
"195 542 OFFCURVE",
"194 557 CURVE",
"237 564 LINE",
"253 564 OFFCURVE",
"274 564 OFFCURVE",
"294 552 CURVE SMOOTH",
"309 543 OFFCURVE",
"314 521 OFFCURVE",
"314 499 CURVE SMOOTH",
"314 471 OFFCURVE",
"304 446 OFFCURVE",
"284 441 CURVE"
);
}
);
width = 518;
}
);
note = R;
rightKerningGroup = R;
unicode = 0052;
},
{
glyphname = S;
layers = (
{
hints = (
{
horizontal = 1;
place = "{-10, 158}";
type = Stem;
},
{
horizontal = 1;
place = "{540, 164}";
type = Stem;
},
{
place = "{7, 173}";
type = Stem;
},
{
horizontal = 1;
place = "{-10, 223}";
type = Stem;
},
{
horizontal = 1;
place = "{462, 242}";
type = Stem;
}
);
layerId = "4AB56EE0-9DC5-4ACD-ABD7-6439ED5BAAD5";
paths = (
{
closed = 1;
nodes = (
"477 469 LINE",
"481 490 OFFCURVE",
"483 507 OFFCURVE",
"483 521 CURVE SMOOTH",
"483 594 OFFCURVE",
"442 646 OFFCURVE",
"383 676 CURVE",
"343 694 OFFCURVE",
"294 704 OFFCURVE",
"246 704 CURVE SMOOTH",
"211 704 OFFCURVE",
"176 699 OFFCURVE",
"149 688 CURVE SMOOTH",
"65 653 OFFCURVE",
"7 569 OFFCURVE",
"7 482 CURVE SMOOTH",
"7 430 OFFCURVE",
"29 375 OFFCURVE",
"79 327 CURVE",
"97 312 OFFCURVE",
"123 298 OFFCURVE",
"154 292 CURVE SMOOTH",
"169 289 LINE SMOOTH",
"217 280 OFFCURVE",
"278 268 OFFCURVE",
"285 212 CURVE",
"292 169 OFFCURVE",
"267 148 OFFCURVE",
"239 148 CURVE SMOOTH",
"211 148 OFFCURVE",
"182 170 OFFCURVE",
"180 212 CURVE",
"164 212 OFFCURVE",
"131 212 OFFCURVE",
"112 213 CURVE SMOOTH",
"55 215 OFFCURVE",
"33 215 OFFCURVE",
"-3 209 CURVE",
"-3 200 LINE",
"-11 71 OFFCURVE",
"125 -7 OFFCURVE",
"248 -10 CURVE SMOOTH",
"334 -13 OFFCURVE",
"419 29 OFFCURVE",
"455 108 CURVE SMOOTH",
"470 140 OFFCURVE",
"478 175 OFFCURVE",
"478 209 CURVE SMOOTH",
"478 248 OFFCURVE",
"463 293 OFFCURVE",
"437 328 CURVE SMOOTH",
"397 379 OFFCURVE",
"323 426 OFFCURVE",
"254 435 CURVE SMOOTH",
"233 438 OFFCURVE",
"212 444 OFFCURVE",
"201 475 CURVE",
"202 477 OFFCURVE",
"201 476 OFFCURVE",
"201 477 CURVE",
"200 483 OFFCURVE",
"199 491 OFFCURVE",
"203 502 CURVE",
"206 529 OFFCURVE",
"224 540 OFFCURVE",
"243 540 CURVE SMOOTH",
"273 540 OFFCURVE",
"305 514 OFFCURVE",
"296 473 CURVE",
"326 464 OFFCURVE",
"355 462 OFFCURVE",
"382 462 CURVE SMOOTH",
"412 462 OFFCURVE",
"441 465 OFFCURVE",
"465 469 CURVE"
);
}
);
width = 485;
}
);
leftKerningGroup = S;
note = S;
rightKerningGroup = S;
unicode = 0053;
},
{
glyphname = T;
layers = (
{
hints = (
{
horizontal = 1;
place = "{-2, 21}";
target = up;
type = BottomGhost;
},
{
horizontal = 1;
place = "{710, -20}";
target = down;
type = TopGhost;
},
{
place = "{121, 201}";
type = Stem;
},
{
horizontal = 1;
place = "{538, 173}";
type = Stem;
},
{
horizontal = 1;
place = "{-9, 21}";
target = up;
type = BottomGhost;
}
);
layerId = "4AB56EE0-9DC5-4ACD-ABD7-6439ED5BAAD5";
paths = (
{
closed = 1;
nodes = (
"434 700 LINE",
"357 709 OFFCURVE",
"273 711 OFFCURVE",
"191 711 CURVE SMOOTH",
"172 711 OFFCURVE",
"152 710 OFFCURVE",
"133 710 CURVE SMOOTH",
"77 710 LINE SMOOTH",
"65 710 OFFCURVE",
"52 709 OFFCURVE",
"38 709 CURVE SMOOTH",
"-5 709 LINE",
"-6 687 OFFCURVE",
"-6 659 OFFCURVE",
"-6 637 CURVE SMOOTH",
"-6 592 OFFCURVE",
"-3 551 OFFCURVE",
"1 543 CURVE",
"16 538 OFFCURVE",
"31 538 OFFCURVE",
"50 538 CURVE SMOOTH",
"76 538 OFFCURVE",
"103 543 OFFCURVE",
"121 534 CURVE",
"128 383 OFFCURVE",
"129 262 OFFCURVE",
"129 179 CURVE SMOOTH",
"129 148 OFFCURVE",
"128 116 OFFCURVE",
"128 89 CURVE SMOOTH",
"128 40 LINE",
"127 23 OFFCURVE",
"129 -2 OFFCURVE",
"133 -9 CURVE",
"175 -2 OFFCURVE",
"200 -2 OFFCURVE",
"225 -2 CURVE SMOOTH",
"254 -2 LINE SMOOTH",
"274 -2 OFFCURVE",
"293 -2 OFFCURVE",
"322 3 CURVE",
"317 279 OFFCURVE",
"315 413 OFFCURVE",
"315 477 CURVE SMOOTH",
"315 514 OFFCURVE",
"316 529 OFFCURVE",
"317 536 CURVE SMOOTH",
"318 542 OFFCURVE",
"380 538 OFFCURVE",
"390 538 CURVE SMOOTH",
"402 538 OFFCURVE",
"420 536 OFFCURVE",
"442 532 CURVE",
"447 565 OFFCURVE",
"449 603 OFFCURVE",
"449 636 CURVE SMOOTH",
"449 657 OFFCURVE",
"448 683 OFFCURVE",
"447 700 CURVE"
);
}
);
width = 443;
}
);
leftKerningGroup = T;
note = T;
rightKerningGroup = T;
unicode = 0054;
},
{
glyphname = U;
layers = (
{
hints = (
{
horizontal = 1;
place = "{-21, 164}";
type = Stem;
},
{
horizontal = 1;
place = "{687, -20}";
target = down;
type = TopGhost;
},
{
place = "{26, 167}";
type = Stem;
},
{
place = "{306, 183}";
type = Stem;
},
{
place = "{26, 180}";
type = Stem;
}
);
layerId = "4AB56EE0-9DC5-4ACD-ABD7-6439ED5BAAD5";
paths = (
{
closed = 1;
nodes = (
"476 674 LINE",
"462 682 OFFCURVE",
"440 684 OFFCURVE",
"416 684 CURVE",
"403 685 OFFCURVE",
"344 678 OFFCURVE",
"329 678 CURVE",
"308 675 LINE",
"307 633 OFFCURVE",
"306 587 OFFCURVE",
"306 543 CURVE SMOOTH",
"306 522 OFFCURVE",
"305 501 OFFCURVE",
"305 479 CURVE SMOOTH",
"304 384 OFFCURVE",
"303 282 OFFCURVE",
"299 188 CURVE",
"299 189 LINE",
"292 161 OFFCURVE",
"270 143 OFFCURVE",
"250 143 CURVE SMOOTH",
"232 143 OFFCURVE",
"214 157 OFFCURVE",
"206 184 CURVE",
"206 183 LINE",
"198 291 OFFCURVE",
"193 398 OFFCURVE",
"193 504 CURVE SMOOTH",
"193 561 OFFCURVE",
"195 620 OFFCURVE",
"197 676 CURVE",
"170 684 OFFCURVE",
"139 687 OFFCURVE",
"111 687 CURVE SMOOTH",
"68 686 OFFCURVE",
"59 685 OFFCURVE",
"51 685 CURVE SMOOTH",
"26 685 LINE",
"27 654 OFFCURVE",
"27 618 OFFCURVE",
"27 588 CURVE SMOOTH",
"27 540 OFFCURVE",
"26 484 OFFCURVE",
"25 431 CURVE SMOOTH",
"24 366 LINE SMOOTH",
"23 293 OFFCURVE",
"22 219 OFFCURVE",
"22 147 CURVE",
"27 32 OFFCURVE",
"149 -21 OFFCURVE",
"262 -21 CURVE SMOOTH",
"274 -21 OFFCURVE",
"286 -20 OFFCURVE",
"295 -19 CURVE",
"294 -19 LINE",
"397 -9 OFFCURVE",
"461 61 OFFCURVE",
"472 150 CURVE SMOOTH",
"484 258 OFFCURVE",
"489 367 OFFCURVE",
"489 476 CURVE SMOOTH",
"489 541 OFFCURVE",
"487 610 OFFCURVE",
"484 674 CURVE"
);
}
);
width = 505;
}
);
leftKerningGroup = U;
note = U;
rightKerningGroup = U;
unicode = 0055;
},
{
glyphname = V;
layers = (
{
hints = (
{
horizontal = 1;
place = "{-8, 21}";
target = up;
type = BottomGhost;
},
{
horizontal = 1;
place = "{701, -20}";
target = down;
type = TopGhost;
},
{
horizontal = 1;
place = "{-6, 21}";
target = up;
type = BottomGhost;
},
{
horizontal = 1;
place = "{-5, 21}";
target = up;
type = BottomGhost;
}
);
layerId = "4AB56EE0-9DC5-4ACD-ABD7-6439ED5BAAD5";
paths = (
{
closed = 1;
nodes = (
"448 689 LINE",
"427 693 OFFCURVE",
"400 693 OFFCURVE",
"377 693 CURVE SMOOTH",
"352 693 OFFCURVE",
"327 693 OFFCURVE",
"288 701 CURVE",
"274 655 OFFCURVE",
"229 367 OFFCURVE",
"211 290 CURVE",
"185 432 OFFCURVE",
"181 581 OFFCURVE",
"172 694 CURVE",
"155 697 OFFCURVE",
"126 701 OFFCURVE",
"100 701 CURVE SMOOTH",
"58 701 OFFCURVE",
"14 695 OFFCURVE",
"1 681 CURVE",
"20 449 OFFCURVE",
"57 220 OFFCURVE",
"118 4 CURVE",
"150 -7 OFFCURVE",
"186 -8 OFFCURVE",
"216 -8 CURVE SMOOTH",
"230 -8 OFFCURVE",
"244 -7 OFFCURVE",
"253 -6 CURVE SMOOTH",
"263 -5 LINE SMOOTH",
"271 -4 OFFCURVE",
"284 -4 OFFCURVE",
"293 -4 CURVE",
"357 229 OFFCURVE",
"415 445 OFFCURVE",
"461 689 CURVE"
);
}
);
width = 440;
}
);
leftKerningGroup = V;
note = V;
rightKerningGroup = V;
unicode = 0056;
},
{
glyphname = W;
layers = (
{
hints = (
{
horizontal = 1;
place = "{-2, 21}";
target = up;
type = BottomGhost;
},
{
horizontal = 1;
place = "{705, -20}";
target = down;
type = TopGhost;
},
{
place = "{8, 177}";
type = Stem;
},
{
place = "{283, 178}";
type = Stem;
}
);
layerId = "4AB56EE0-9DC5-4ACD-ABD7-6439ED5BAAD5";
paths = (
{
closed = 1;
nodes = (
"423 705 OFFCURVE",
"428 705 OFFCURVE",
"378 705 CURVE SMOOTH",
"353 705 OFFCURVE",
"326 704 OFFCURVE",
"292 696 CURVE",
"287 637 OFFCURVE",
"285 557 OFFCURVE",
"283 480 CURVE SMOOTH",
"280 347 LINE",
"272 396 OFFCURVE",
"258 457 OFFCURVE",
"231 475 CURVE",
"202 441 OFFCURVE",
"204 389 OFFCURVE",
"191 347 CURVE",
"185 400 OFFCURVE",
"185 463 OFFCURVE",
"185 522 CURVE SMOOTH",
"185 541 LINE SMOOTH",
"185 601 OFFCURVE",
"185 658 OFFCURVE",
"181 703 CURVE",
"139 704 OFFCURVE",
"115 706 OFFCURVE",
"88 706 CURVE SMOOTH",
"64 706 OFFCURVE",
"36 704 OFFCURVE",
"8 699 CURVE",
"16 487 OFFCURVE",
"41 250 OFFCURVE",
"75 46 CURVE SMOOTH",
"81 1 LINE",
"123 -5 OFFCURVE",
"159 -4 OFFCURVE",
"196 3 CURVE",
"225 99 OFFCURVE",
"231 124 OFFCURVE",
"237 145 CURVE",
"253 104 OFFCURVE",
"259 32 OFFCURVE",
"287 -2 CURVE",
"367 -2 OFFCURVE",
"377 -2 OFFCURVE",
"395 3 CURVE",
"411 194 OFFCURVE",
"452 571 OFFCURVE",
"461 696 CURVE"
);
}
);
width = 465;
}
);
leftKerningGroup = W;
note = W;
rightKerningGroup = W;
unicode = 0057;
},
{
glyphname = X;
layers = (
{
hints = (
{
horizontal = 1;
place = "{-2, 21}";
target = up;
type = BottomGhost;
},
{
horizontal = 1;
place = "{704, -20}";
target = down;
type = TopGhost;
}
);
layerId = "4AB56EE0-9DC5-4ACD-ABD7-6439ED5BAAD5";
paths = (
{
closed = 1;
nodes = (
"454 704 LINE",
"350 704 OFFCURVE",
"307 702 OFFCURVE",
"272 700 CURVE",
"228 545 OFFCURVE",
"223 524 OFFCURVE",
"217 506 CURVE",
"210 518 OFFCURVE",
"170 672 OFFCURVE",
"164 697 CURVE",
"75 698 OFFCURVE",
"25 695 OFFCURVE",
"-18 692 CURVE",
"31 582 OFFCURVE",
"73 464 OFFCURVE",
"98 347 CURVE",
"98 334 OFFCURVE",
"4 37 OFFCURVE",
"-6 8 CURVE",
"54 -10 OFFCURVE",
"104 -2 OFFCURVE",
"158 -2 CURVE",
"168 13 OFFCURVE",
"216 178 OFFCURVE",
"221 194 CURVE",
"252 76 OFFCURVE",
"260 37 OFFCURVE",
"275 4 CURVE",
"332 -12 OFFCURVE",
"388 1 OFFCURVE",
"441 -5 CURVE",
"413 108 OFFCURVE",
"369 226 OFFCURVE",
"346 341 CURVE"
);
}
);
width = 436;
}
);
leftKerningGroup = X;
note = X;
rightKerningGroup = X;
unicode = 0058;
},
{
glyphname = Y;
layers = (
{
hints = (
{
horizontal = 1;
place = "{-4, 21}";
target = up;
type = BottomGhost;
},
{
place = "{-6, 466}";
type = Stem;
}
);
layerId = "4AB56EE0-9DC5-4ACD-ABD7-6439ED5BAAD5";
paths = (
{
closed = 1;
nodes = (
"405 706 OFFCURVE",
"346 700 OFFCURVE",
"293 690 CURVE",
"285 675 OFFCURVE",
"235 517 OFFCURVE",
"227 501 CURVE",
"205 557 OFFCURVE",
"177 640 OFFCURVE",
"164 691 CURVE",
"115 717 OFFCURVE",
"56 694 OFFCURVE",
"0 697 CURVE",
"29 577 OFFCURVE",
"96 468 OFFCURVE",
"127 348 CURVE",
"83 233 OFFCURVE",
"29 104 OFFCURVE",
"-6 -4 CURVE",
"61 -13 OFFCURVE",
"103 2 OFFCURVE",
"169 -7 CURVE",
"251 241 OFFCURVE",
"393 448 OFFCURVE",
"460 697 CURVE"
);
}
);
width = 435;
}
);
leftKerningGroup = Y;
note = Y;
rightKerningGroup = Y;
unicode = 0059;
},
{
glyphname = Z;
layers = (
{
hints = (
{
horizontal = 1;
place = "{-8, 21}";
target = up;
type = BottomGhost;
},
{
horizontal = 1;
place = "{-1, 166}";
type = Stem;
}
);
layerId = "4AB56EE0-9DC5-4ACD-ABD7-6439ED5BAAD5";
paths = (
{
closed = 1;
nodes = (
"466 570 OFFCURVE",
"468 612 OFFCURVE",
"468 649 CURVE SMOOTH",
"468 662 OFFCURVE",
"468 676 OFFCURVE",
"465 699 CURVE",
"305 699 OFFCURVE",
"158 710 OFFCURVE",
"-2 694 CURVE",
"0 687 OFFCURVE",
"6 648 OFFCURVE",
"6 615 CURVE SMOOTH",
"6 589 OFFCURVE",
"6 564 OFFCURVE",
"18 543 CURVE",
"69 543 OFFCURVE",
"192 540 OFFCURVE",
"252 532 CURVE",
"255 534 OFFCURVE",
"249 526 OFFCURVE",
"245 520 CURVE",
"162 409 OFFCURVE",
"64 275 OFFCURVE",
"10 159 CURVE",
"14 113 OFFCURVE",
"5 18 OFFCURVE",
"21 -7 CURVE",
"85 -3 OFFCURVE",
"162 -1 OFFCURVE",
"224 -1 CURVE SMOOTH",
"300 -1 OFFCURVE",
"388 -4 OFFCURVE",
"458 -8 CURVE",
"462 44 OFFCURVE",
"469 108 OFFCURVE",
"459 165 CURVE",
"378 165 OFFCURVE",
"270 166 OFFCURVE",
"212 158 CURVE",
"291 277 OFFCURVE",
"396 416 OFFCURVE",
"466 532 CURVE"
);
}
);
width = 474;
}
);
leftKerningGroup = Z;
note = Z;
rightKerningGroup = Z;
unicode = 005A;
},
{
glyphname = bracketleft;
layers = (
{
hints = (
{
horizontal = 1;
place = "{-8, 21}";
target = up;
type = BottomGhost;
},
{
horizontal = 1;
place = "{712, -20}";
target = down;
type = TopGhost;
},
{
place = "{28, 167}";
type = Stem;
},
{
horizontal = 1;
place = "{-6, 144}";
type = Stem;
},
{
horizontal = 1;
place = "{581, 130}";
type = Stem;
}
);
layerId = "4AB56EE0-9DC5-4ACD-ABD7-6439ED5BAAD5";
paths = (
{
closed = 1;
nodes = (
"28 -8 LINE",
"309 -4 LINE",
"310 9 OFFCURVE",
"310 26 OFFCURVE",
"310 39 CURVE SMOOTH",
"310 70 OFFCURVE",
"308 105 OFFCURVE",
"306 135 CURVE",
"300 136 OFFCURVE",
"288 137 OFFCURVE",
"279 138 CURVE",
"272 138 OFFCURVE",
"263 139 OFFCURVE",
"258 139 CURVE SMOOTH",
"199 137 LINE",
"199 178 OFFCURVE",
"197 241 OFFCURVE",
"195 289 CURVE SMOOTH",
"193 344 OFFCURVE",
"191 402 OFFCURVE",
"191 458 CURVE SMOOTH",
"191 499 OFFCURVE",
"191 543 OFFCURVE",
"195 581 CURVE",
"210 580 OFFCURVE",
"220 581 OFFCURVE",
"233 582 CURVE",
"238 582 LINE",
"247 583 OFFCURVE",
"257 583 OFFCURVE",
"268 583 CURVE SMOOTH",
"278 583 OFFCURVE",
"289 583 OFFCURVE",
"300 582 CURVE",
"312 607 OFFCURVE",
"312 640 OFFCURVE",
"312 675 CURVE SMOOTH",
"312 713 LINE",
"255 707 OFFCURVE",
"236 709 OFFCURVE",
"185 711 CURVE SMOOTH",
"161 712 LINE SMOOTH",
"117 715 OFFCURVE",
"87 716 OFFCURVE",
"38 708 CURVE",
"30 589 OFFCURVE",
"28 462 OFFCURVE",
"28 338 CURVE SMOOTH"
);
}
);
width = 321;
}
);
note = bracketleft;
rightKerningGroup = bracketleft;
unicode = 005B;
},
{
glyphname = bracketright;
layers = (
{
hints = (
{
horizontal = 1;
place = "{-5, 21}";
target = up;
type = BottomGhost;
},
{
horizontal = 1;
place = "{583, 131}";
type = Stem;
},
{
place = "{130, 162}";
type = Stem;
},
{
horizontal = 1;
place = "{-8, 21}";
target = up;
type = BottomGhost;
},
{
horizontal = 1;
place = "{712, -20}";
target = down;
type = TopGhost;
}
);
layerId = "4AB56EE0-9DC5-4ACD-ABD7-6439ED5BAAD5";
paths = (
{
closed = 1;
nodes = (
"146 -5 LINE SMOOTH",
"188 -5 OFFCURVE",
"257 -5 OFFCURVE",
"293 -8 CURVE",
"293 2 LINE",
"292 44 OFFCURVE",
"292 86 OFFCURVE",
"292 129 CURVE SMOOTH",
"292 368 LINE SMOOTH",
"292 482 OFFCURVE",
"291 597 OFFCURVE",
"283 706 CURVE",
"252 713 OFFCURVE",
"229 714 OFFCURVE",
"209 714 CURVE SMOOTH",
"194 714 OFFCURVE",
"174 713 OFFCURVE",
"160 712 CURVE",
"152 712 OFFCURVE",
"144 711 OFFCURVE",
"136 711 CURVE",
"114 710 OFFCURVE",
"92 709 OFFCURVE",
"71 709 CURVE SMOOTH",
"56 709 OFFCURVE",
"41 709 OFFCURVE",
"9 713 CURVE",
"9 684 LINE SMOOTH",
"9 640 OFFCURVE",
"9 607 OFFCURVE",
"17 582 CURVE",
"31 583 OFFCURVE",
"45 583 OFFCURVE",
"54 583 CURVE SMOOTH",
"65 583 OFFCURVE",
"74 583 OFFCURVE",
"83 582 CURVE SMOOTH",
"96 581 OFFCURVE",
"111 580 OFFCURVE",
"125 580 CURVE",
"130 542 OFFCURVE",
"130 499 OFFCURVE",
"130 458 CURVE SMOOTH",
"130 405 OFFCURVE",
"128 342 OFFCURVE",
"126 289 CURVE SMOOTH",
"124 237 OFFCURVE",
"122 182 OFFCURVE",
"122 138 CURVE",
"109 142 OFFCURVE",
"84 140 OFFCURVE",
"62 139 CURVE",
"57 139 OFFCURVE",
"49 138 OFFCURVE",
"42 138 CURVE",
"33 137 OFFCURVE",
"21 136 OFFCURVE",
"15 135 CURVE",
"13 105 OFFCURVE",
"11 70 OFFCURVE",
"11 39 CURVE SMOOTH",
"11 26 OFFCURVE",
"11 9 OFFCURVE",
"12 -4 CURVE"
);
}
);
width = 321;
}
);
leftKerningGroup = bracketright;
note = bracketright;
unicode = 005D;
},
{
glyphname = exclam;
layers = (
{
hints = (
{
horizontal = 1;
place = "{-3, 131}";
type = Stem;
},
{
horizontal = 1;
place = "{714, -20}";
target = down;
type = TopGhost;
},
{
place = "{23, 167}";
type = Stem;
},
{
place = "{39, 151}";
type = Stem;
}
);
layerId = "4AB56EE0-9DC5-4ACD-ABD7-6439ED5BAAD5";
paths = (
{
closed = 1;
nodes = (
"28 710 LINE",
"24 647 OFFCURVE",
"23 580 OFFCURVE",
"23 518 CURVE SMOOTH",
"23 448 LINE SMOOTH",
"23 425 OFFCURVE",
"24 401 OFFCURVE",
"24 378 CURVE SMOOTH",
"25 330 OFFCURVE",
"25 281 OFFCURVE",
"25 233 CURVE",
"30 165 LINE",
"55 165 LINE SMOOTH",
"62 165 OFFCURVE",
"70 166 OFFCURVE",
"75 166 CURVE SMOOTH",
"82 166 OFFCURVE",
"88 167 OFFCURVE",
"95 167 CURVE",
"122 168 OFFCURVE",
"153 168 OFFCURVE",
"190 171 CURVE",
"186 248 OFFCURVE",
"185 333 OFFCURVE",
"185 413 CURVE SMOOTH",
"185 501 OFFCURVE",
"186 589 OFFCURVE",
"188 674 CURVE SMOOTH",
"188 688 LINE",
"189 706 LINE",
"167 713 OFFCURVE",
"149 714 OFFCURVE",
"131 714 CURVE SMOOTH",
"110 714 OFFCURVE",
"91 712 OFFCURVE",
"73 710 CURVE"
);
},
{
closed = 1;
nodes = (
"126 -3 LINE",
"155 -3 LINE SMOOTH",
"158 -3 OFFCURVE",
"162 -4 OFFCURVE",
"166 -4 CURVE SMOOTH",
"188 -4 LINE",
"188 23 OFFCURVE",
"189 59 OFFCURVE",
"190 87 CURVE",
"190 93 OFFCURVE",
"191 99 OFFCURVE",
"191 105 CURVE SMOOTH",
"191 126 LINE",
"179 126 OFFCURVE",
"151 127 OFFCURVE",
"138 128 CURVE SMOOTH",
"124 129 OFFCURVE",
"109 130 OFFCURVE",
"95 130 CURVE SMOOTH",
"78 130 OFFCURVE",
"61 129 OFFCURVE",
"39 120 CURVE",
"39 105 OFFCURVE",
"38 84 OFFCURVE",
"36 65 CURVE SMOOTH",
"35 52 OFFCURVE",
"34 39 OFFCURVE",
"34 28 CURVE SMOOTH",
"34 9 OFFCURVE",
"37 -4 OFFCURVE",
"51 -4 CURVE SMOOTH"
);
}
);
width = 217;
}
);
note = exclam;
unicode = 0021;
},
{
glyphname = dollar;
layers = (
{
hints = (
{
horizontal = 1;
place = "{-101, 21}";
target = up;
type = BottomGhost;
},
{
horizontal = 1;
place = "{516, -20}";
target = down;
type = TopGhost;
},
{
place = "{13, 177}";
type = Stem;
},
{
place = "{137, 174}";
type = Stem;
},
{
place = "{248, 189}";
type = Stem;
},
{
horizontal = 1;
place = "{-102, 238}";
type = Stem;
},
{
place = "{13, 189}";
type = Stem;
}
);
layerId = "4AB56EE0-9DC5-4ACD-ABD7-6439ED5BAAD5";
paths = (
{
closed = 1;
nodes = (
"250 516 OFFCURVE",
"251 501 OFFCURVE",
"253 484 CURVE SMOOTH",
"256 460 OFFCURVE",
"260 435 OFFCURVE",
"320 435 CURVE SMOOTH",
"329 435 OFFCURVE",
"342 435 OFFCURVE",
"350 436 CURVE",
"362 436 LINE SMOOTH",
"366 436 OFFCURVE",
"371 437 OFFCURVE",
"376 437 CURVE SMOOTH",
"392 437 LINE SMOOTH",
"422 437 OFFCURVE",
"441 444 OFFCURVE",
"441 468 CURVE SMOOTH",
"441 474 LINE SMOOTH",
"441 507 OFFCURVE",
"441 532 OFFCURVE",
"426 563 CURVE SMOOTH",
"411 595 OFFCURVE",
"369 644 OFFCURVE",
"310 649 CURVE",
"311 649 OFFCURVE",
"311 652 OFFCURVE",
"311 658 CURVE SMOOTH",
"311 738 LINE",
"299 761 OFFCURVE",
"227 758 OFFCURVE",
"212 758 CURVE SMOOTH",
"195 758 LINE SMOOTH",
"167 758 OFFCURVE",
"137 758 OFFCURVE",
"137 737 CURVE",
"139 700 LINE",
"140 690 OFFCURVE",
"140 677 OFFCURVE",
"141 670 CURVE",
"141 666 OFFCURVE",
"142 664 OFFCURVE",
"142 663 CURVE SMOOTH",
"142 659 OFFCURVE",
"143 657 OFFCURVE",
"143 656 CURVE",
"144 652 LINE",
"111 641 OFFCURVE",
"74 622 OFFCURVE",
"53 601 CURVE SMOOTH",
"25 573 OFFCURVE",
"13 540 OFFCURVE",
"13 507 CURVE SMOOTH",
"13 461 OFFCURVE",
"38 408 OFFCURVE",
"71 370 CURVE",
"88 353 OFFCURVE",
"115 329 OFFCURVE",
"142 309 CURVE SMOOTH",
"194 269 OFFCURVE",
"248 227 OFFCURVE",
"248 167 CURVE SMOOTH",
"248 149 OFFCURVE",
"231 136 OFFCURVE",
"217 136 CURVE SMOOTH",
"194 136 OFFCURVE",
"190 156 OFFCURVE",
"190 175 CURVE SMOOTH",
"190 177 OFFCURVE",
"189 179 OFFCURVE",
"189 182 CURVE SMOOTH",
"189 206 LINE SMOOTH",
"189 243 OFFCURVE",
"159 243 OFFCURVE",
"126 243 CURVE SMOOTH",
"120 243 OFFCURVE",
"114 243 OFFCURVE",
"107 244 CURVE",
"100 244 LINE SMOOTH",
"98 244 OFFCURVE",
"96 245 OFFCURVE",
"95 245 CURVE",
"96 245 LINE",
"88 246 OFFCURVE",
"77 247 OFFCURVE",
"66 247 CURVE SMOOTH",
"5 247 OFFCURVE",
"5 235 OFFCURVE",
"5 191 CURVE SMOOTH",
"5 101 OFFCURVE",
"15 41 OFFCURVE",
"121 6 CURVE SMOOTH",
"144 -1 OFFCURVE",
"142 -26 OFFCURVE",
"141 -49 CURVE SMOOTH",
"140 -77 OFFCURVE",
"139 -102 OFFCURVE",
"191 -102 CURVE SMOOTH",
"219 -102 LINE SMOOTH",
"223 -102 OFFCURVE",
"227 -101 OFFCURVE",
"231 -101 CURVE SMOOTH",
"261 -101 LINE SMOOTH",
"300 -101 OFFCURVE",
"314 -88 OFFCURVE",
"314 -69 CURVE SMOOTH",
"314 -30 LINE SMOOTH",
"314 -20 OFFCURVE",
"315 -10 OFFCURVE",
"315 -3 CURVE SMOOTH",
"315 6 LINE",
"335 16 OFFCURVE",
"369 35 OFFCURVE",
"374 40 CURVE",
"373 40 LINE",
"419 78 OFFCURVE",
"437 118 OFFCURVE",
"437 160 CURVE SMOOTH",
"437 215 OFFCURVE",
"405 289 OFFCURVE",
"349 329 CURVE SMOOTH",
"337 338 LINE",
"331 342 OFFCURVE",
"324 346 OFFCURVE",
"317 351 CURVE SMOOTH",
"265 386 OFFCURVE",
"202 429 OFFCURVE",
"202 476 CURVE SMOOTH",
"202 497 OFFCURVE",
"219 516 OFFCURVE",
"234 516 CURVE SMOOTH"
);
}
);
width = 445;
}
);
note = dollar;
unicode = 0024;
},
{
glyphname = parenleft;
layers = (
{
hints = (
{
horizontal = 1;
place = "{-5, 21}";
target = up;
type = BottomGhost;
},
{
horizontal = 1;
place = "{716, -20}";
target = down;
type = TopGhost;
},
{
place = "{24, 166}";
type = Stem;
}
);
layerId = "4AB56EE0-9DC5-4ACD-ABD7-6439ED5BAAD5";
paths = (
{
closed = 1;
nodes = (
"115 24 OFFCURVE",
"135 14 OFFCURVE",
"158 6 CURVE SMOOTH",
"180 -1 OFFCURVE",
"204 -4 OFFCURVE",
"228 -5 CURVE",
"274 -5 OFFCURVE",
"291 -7 OFFCURVE",
"304 -1 CURVE",
"305 15 OFFCURVE",
"303 46 OFFCURVE",
"303 66 CURVE SMOOTH",
"303 85 OFFCURVE",
"303 105 OFFCURVE",
"305 123 CURVE",
"305 134 LINE",
"262 135 OFFCURVE",
"218 164 OFFCURVE",
"200 205 CURVE",
"200 204 LINE",
"192 234 OFFCURVE",
"190 267 OFFCURVE",
"190 298 CURVE SMOOTH",
"193 411 OFFCURVE",
"196 441 OFFCURVE",
"203 474 CURVE",
"212 527 OFFCURVE",
"241 568 OFFCURVE",
"301 579 CURVE",
"301 596 LINE",
"302 610 LINE SMOOTH",
"303 627 OFFCURVE",
"303 644 OFFCURVE",
"303 661 CURVE SMOOTH",
"303 677 OFFCURVE",
"303 693 OFFCURVE",
"301 707 CURVE",
"270 713 OFFCURVE",
"238 715 OFFCURVE",
"212 716 CURVE",
"148 715 OFFCURVE",
"84 683 OFFCURVE",
"49 623 CURVE",
"26 580 OFFCURVE",
"24 531 OFFCURVE",
"24 488 CURVE SMOOTH",
"24 473 OFFCURVE",
"24 458 OFFCURVE",
"23 444 CURVE",
"23 420 LINE SMOOTH",
"24 361 OFFCURVE",
"21 294 OFFCURVE",
"18 231 CURVE",
"18 176 OFFCURVE",
"30 128 OFFCURVE",
"55 81 CURVE",
"54 85 OFFCURVE",
"71 56 OFFCURVE",
"99 37 CURVE"
);
}
);
width = 314;
}
);
note = parenleft;
rightKerningGroup = parenleft;
unicode = 0028;
},
{
glyphname = parenright;
layers = (
{
hints = (
{
horizontal = 1;
place = "{-5, 21}";
target = up;
type = BottomGhost;
},
{
horizontal = 1;
place = "{716, -20}";
target = down;
type = TopGhost;
},
{
place = "{124, 172}";
type = Stem;
}
);
layerId = "4AB56EE0-9DC5-4ACD-ABD7-6439ED5BAAD5";
paths = (
{
closed = 1;
nodes = (
"243 56 OFFCURVE",
"260 85 OFFCURVE",
"259 81 CURVE",
"284 128 OFFCURVE",
"296 176 OFFCURVE",
"296 231 CURVE",
"293 294 OFFCURVE",
"290 361 OFFCURVE",
"291 420 CURVE SMOOTH",
"291 444 LINE",
"290 458 OFFCURVE",
"290 473 OFFCURVE",
"290 488 CURVE SMOOTH",
"290 531 OFFCURVE",
"288 580 OFFCURVE",
"265 623 CURVE",
"230 683 OFFCURVE",
"166 715 OFFCURVE",
"102 716 CURVE",
"76 715 OFFCURVE",
"44 713 OFFCURVE",
"13 707 CURVE",
"11 693 OFFCURVE",
"11 677 OFFCURVE",
"11 661 CURVE SMOOTH",
"11 644 OFFCURVE",
"11 627 OFFCURVE",
"12 610 CURVE SMOOTH",
"13 596 LINE",
"13 579 LINE",
"73 568 OFFCURVE",
"102 527 OFFCURVE",
"111 474 CURVE",
"118 441 OFFCURVE",
"121 411 OFFCURVE",
"124 298 CURVE SMOOTH",
"124 267 OFFCURVE",
"122 234 OFFCURVE",
"114 204 CURVE",
"114 205 LINE",
"96 164 OFFCURVE",
"52 135 OFFCURVE",
"9 134 CURVE",
"9 123 LINE",
"11 105 OFFCURVE",
"11 85 OFFCURVE",
"11 66 CURVE SMOOTH",
"11 46 OFFCURVE",
"9 15 OFFCURVE",
"10 -1 CURVE",
"23 -7 OFFCURVE",
"40 -5 OFFCURVE",
"86 -5 CURVE",
"110 -4 OFFCURVE",
"134 -1 OFFCURVE",
"156 6 CURVE SMOOTH",
"179 14 OFFCURVE",
"199 24 OFFCURVE",
"215 37 CURVE"
);
}
);
width = 313;
}
);
leftKerningGroup = parenright;
note = parenright;
unicode = 0029;
},
{
glyphname = plus;
layers = (
{
hints = (
{
horizontal = 1;
place = "{99, 21}";
target = up;
type = BottomGhost;
},
{
horizontal = 1;
place = "{240, 160}";
type = Stem;
},
{
horizontal = 1;
place = "{544, -20}";
target = down;
type = TopGhost;
},
{
place = "{139, 176}";
type = Stem;
}
);
layerId = "4AB56EE0-9DC5-4ACD-ABD7-6439ED5BAAD5";
paths = (
{
closed = 1;
nodes = (
"336 400 OFFCURVE",
"324 399 OFFCURVE",
"312 400 CURVE",
"319 402 OFFCURVE",
"315 423 OFFCURVE",
"315 447 CURVE SMOOTH",
"315 523 LINE",
"301 526 OFFCURVE",
"270 526 OFFCURVE",
"251 525 CURVE",
"242 525 OFFCURVE",
"234 524 OFFCURVE",
"225 524 CURVE SMOOTH",
"200 524 LINE SMOOTH",
"184 524 OFFCURVE",
"165 528 OFFCURVE",
"140 544 CURVE",
"139 524 LINE",
"139 516 LINE SMOOTH",
"139 514 OFFCURVE",
"138 511 OFFCURVE",
"137 507 CURVE",
"137 503 OFFCURVE",
"137 498 OFFCURVE",
"136 493 CURVE",
"133 457 LINE",
"133 454 OFFCURVE",
"132 450 OFFCURVE",
"132 446 CURVE SMOOTH",
"132 435 LINE",
"134 397 LINE",
"127 395 OFFCURVE",
"14 392 OFFCURVE",
"4 394 CURVE",
"4 389 OFFCURVE",
"4 373 OFFCURVE",
"5 364 CURVE",
"5 365 LINE",
"7 333 OFFCURVE",
"10 272 OFFCURVE",
"8 251 CURVE",
"24 241 OFFCURVE",
"98 235 OFFCURVE",
"125 234 CURVE",
"124 230 OFFCURVE",
"124 225 OFFCURVE",
"124 219 CURVE SMOOTH",
"124 169 LINE",
"123 157 OFFCURVE",
"123 132 OFFCURVE",
"126 116 CURVE",
"128 99 LINE",
"137 103 OFFCURVE",
"172 108 OFFCURVE",
"191 109 CURVE",
"214 108 OFFCURVE",
"241 107 OFFCURVE",
"262 107 CURVE SMOOTH",
"289 107 OFFCURVE",
"308 109 OFFCURVE",
"308 116 CURVE SMOOTH",
"308 124 OFFCURVE",
"309 140 OFFCURVE",
"311 158 CURVE SMOOTH",
"314 185 OFFCURVE",
"316 217 OFFCURVE",
"315 238 CURVE",
"327 239 OFFCURVE",
"350 240 OFFCURVE",
"371 240 CURVE SMOOTH",
"398 240 OFFCURVE",
"420 240 OFFCURVE",
"434 247 CURVE",
"437 275 OFFCURVE",
"437 300 OFFCURVE",
"437 326 CURVE SMOOTH",
"437 346 OFFCURVE",
"437 370 OFFCURVE",
"438 395 CURVE",
"409 400 OFFCURVE",
"381 400 OFFCURVE",
"354 400 CURVE SMOOTH"
);
}
);
width = 445;
}
);
note = plus;
unicode = 002B;
},
{
glyphname = hyphen;
layers = (
{
hints = (
{
horizontal = 1;
place = "{190, 21}";
target = up;
type = BottomGhost;
},
{
horizontal = 1;
place = "{193, 174}";
type = Stem;
}
);
layerId = "4AB56EE0-9DC5-4ACD-ABD7-6439ED5BAAD5";
paths = (
{
closed = 1;
nodes = (
"36 197 LINE",
"260 193 LINE SMOOTH",
"367 191 OFFCURVE",
"489 190 OFFCURVE",
"500 190 CURVE",
"496 218 OFFCURVE",
"495 242 OFFCURVE",
"495 264 CURVE SMOOTH",
"495 284 LINE",
"496 306 LINE SMOOTH",
"497 325 OFFCURVE",
"497 348 OFFCURVE",
"497 367 CURVE",
"24 367 LINE",
"24 356 LINE",
"23 323 LINE SMOOTH",
"22 282 OFFCURVE",
"21 218 OFFCURVE",
"21 197 CURVE"
);
}
);
width = 521;
}
);
leftKerningGroup = hyphen;
note = hyphen;
rightKerningGroup = hyphen;
unicode = 002D;
},
{
glyphname = slash;
layers = (
{
hints = (
{
horizontal = 1;
place = "{-5, 21}";
target = up;
type = BottomGhost;
},
{
horizontal = 1;
place = "{717, -20}";
target = down;
type = TopGhost;
}
);
layerId = "4AB56EE0-9DC5-4ACD-ABD7-6439ED5BAAD5";
paths = (
{
closed = 1;
nodes = (
"164 3 LINE",
"222 149 LINE SMOOTH",
"227 162 OFFCURVE",
"231 173 OFFCURVE",
"236 186 CURVE SMOOTH",
"244 209 LINE SMOOTH",
"257 244 OFFCURVE",
"269 280 OFFCURVE",
"281 315 CURVE SMOOTH",
"293 350 LINE",
"295 355 OFFCURVE",
"295 359 OFFCURVE",
"297 364 CURVE",
"303 384 OFFCURVE",
"311 406 OFFCURVE",
"318 426 CURVE SMOOTH",
"325 447 OFFCURVE",
"334 472 OFFCURVE",
"342 494 CURVE SMOOTH",
"357 536 LINE SMOOTH",
"360 545 OFFCURVE",
"362 553 OFFCURVE",
"365 561 CURVE SMOOTH",
"369 572 OFFCURVE",
"373 586 OFFCURVE",
"376 596 CURVE SMOOTH",
"391 644 OFFCURVE",
"398 668 OFFCURVE",
"402 682 CURVE",
"402 683 OFFCURVE",
"403 684 OFFCURVE",
"403 685 CURVE",
"404 690 OFFCURVE",
"400 694 OFFCURVE",
"399 693 CURVE",
"400 696 OFFCURVE",
"407 701 OFFCURVE",
"407 701 CURVE",
"379 715 OFFCURVE",
"349 714 OFFCURVE",
"319 713 CURVE SMOOTH",
"299 712 OFFCURVE",
"279 711 OFFCURVE",
"248 717 CURVE",
"228 638 OFFCURVE",
"200 559 OFFCURVE",
"197 554 CURVE",
"192 540 OFFCURVE",
"188 527 OFFCURVE",
"184 513 CURVE",
"184 506 OFFCURVE",
"180 498 OFFCURVE",
"178 491 CURVE",
"160 440 LINE SMOOTH",
"78 220 OFFCURVE",
"68 191 OFFCURVE",
"65 180 CURVE",
"51 145 OFFCURVE",
"40 113 OFFCURVE",
"32 88 CURVE",
"32 86 LINE",
"33 86 LINE",
"28 77 OFFCURVE",
"27 73 OFFCURVE",
"26 70 CURVE",
"14 40 OFFCURVE",
"-1 -6 OFFCURVE",
"22 -6 CURVE SMOOTH",
"68 -5 OFFCURVE",
"96 -5 OFFCURVE",
"114 -5 CURVE SMOOTH",
"133 -5 OFFCURVE",
"141 -5 OFFCURVE",
"161 0 CURVE"
);
}
);
width = 412;
}
);
leftKerningGroup = slash;
note = slash;
rightKerningGroup = slash;
unicode = 002F;
},
{
glyphname = question;
layers = (
{
hints = (
{
horizontal = 1;
place = "{-5, 21}";
target = up;
type = BottomGhost;
},
{
horizontal = 1;
place = "{-4, 134}";
type = Stem;
}
);
layerId = "4AB56EE0-9DC5-4ACD-ABD7-6439ED5BAAD5";
paths = (
{
closed = 1;
nodes = (
"127 199 LINE",
"127 189 OFFCURVE",
"127 181 OFFCURVE",
"136 172 CURVE",
"202 172 LINE",
"222 171 OFFCURVE",
"261 172 OFFCURVE",
"287 176 CURVE",
"282 191 OFFCURVE",
"285 201 OFFCURVE",
"288 210 CURVE",
"288 211 OFFCURVE",
"289 212 OFFCURVE",
"289 213 CURVE",
"299 259 OFFCURVE",
"311 299 OFFCURVE",
"335 333 CURVE",
"345 346 OFFCURVE",
"354 356 OFFCURVE",
"363 365 CURVE",
"374 377 OFFCURVE",
"389 395 OFFCURVE",
"395 402 CURVE SMOOTH",
"420 433 OFFCURVE",
"440 469 OFFCURVE",
"445 510 CURVE SMOOTH",
"459 631 OFFCURVE",
"342 721 OFFCURVE",
"212 712 CURVE SMOOTH",
"95 702 OFFCURVE",
"6 598 OFFCURVE",
"1 496 CURVE",
"7 495 OFFCURVE",
"19 494 OFFCURVE",
"28 493 CURVE",
"34 492 OFFCURVE",
"46 491 OFFCURVE",
"52 491 CURVE",
"67 490 OFFCURVE",
"83 489 OFFCURVE",
"99 489 CURVE SMOOTH",
"112 489 OFFCURVE",
"133 490 OFFCURVE",
"146 491 CURVE",
"162 496 OFFCURVE",
"169 509 OFFCURVE",
"177 520 CURVE SMOOTH",
"190 539 OFFCURVE",
"200 556 OFFCURVE",
"227 546 CURVE SMOOTH",
"248 538 OFFCURVE",
"256 524 OFFCURVE",
"256 507 CURVE SMOOTH",
"256 475 OFFCURVE",
"229 440 OFFCURVE",
"204 407 CURVE SMOOTH",
"197 398 LINE SMOOTH",
"183 380 OFFCURVE",
"171 362 OFFCURVE",
"169 358 CURVE",
"170 359 LINE",
"143 316 OFFCURVE",
"136 279 OFFCURVE",
"129 238 CURVE"
);
},
{
closed = 1;
nodes = (
"273 -5 LINE",
"279 70 LINE SMOOTH",
"280 82 OFFCURVE",
"280 93 OFFCURVE",
"281 102 CURVE SMOOTH",
"282 113 OFFCURVE",
"278 123 OFFCURVE",
"278 123 CURVE",
"268 128 OFFCURVE",
"240 130 OFFCURVE",
"210 130 CURVE SMOOTH",
"180 130 OFFCURVE",
"147 127 OFFCURVE",
"127 118 CURVE",
"127 108 LINE SMOOTH",
"127 105 OFFCURVE",
"126 101 OFFCURVE",
"126 96 CURVE SMOOTH",
"126 76 LINE SMOOTH",
"126 68 OFFCURVE",
"125 60 OFFCURVE",
"125 52 CURVE SMOOTH",
"125 34 OFFCURVE",
"126 14 OFFCURVE",
"129 -4 CURVE"
);
}
);
width = 451;
}
);
leftKerningGroup = question;
note = question;
unicode = 003F;
},
{
glyphname = zero;
layers = (
{
hints = (
{
place = "{14, 179}";
type = Stem;
},
{
place = "{307, 196}";
type = Stem;
}
);
layerId = "4AB56EE0-9DC5-4ACD-ABD7-6439ED5BAAD5";
paths = (
{
closed = 1;
nodes = (
"473 608 OFFCURVE",
"394 720 OFFCURVE",
"247 715 CURVE SMOOTH",
"173 712 OFFCURVE",
"121 678 OFFCURVE",
"81 634 CURVE",
"69 622 LINE",
"70 621 LINE",
"25 550 OFFCURVE",
"14 473 OFFCURVE",
"14 398 CURVE SMOOTH",
"14 381 OFFCURVE",
"15 358 OFFCURVE",
"16 341 CURVE",
"16 332 OFFCURVE",
"17 324 OFFCURVE",
"17 315 CURVE SMOOTH",
"20 195 OFFCURVE",
"24 64 OFFCURVE",
"169 10 CURVE SMOOTH",
"188 3 OFFCURVE",
"215 -2 OFFCURVE",
"243 -3 CURVE SMOOTH",
"424 -10 OFFCURVE",
"501 219 OFFCURVE",
"503 373 CURVE SMOOTH",
"504 408 OFFCURVE",
"502 455 OFFCURVE",
"495 494 CURVE SMOOTH"
);
},
{
closed = 1;
nodes = (
"306 313 LINE",
"305 305 OFFCURVE",
"304 294 OFFCURVE",
"304 285 CURVE",
"303 261 OFFCURVE",
"302 239 OFFCURVE",
"295 217 CURVE SMOOTH",
"289 196 OFFCURVE",
"281 177 OFFCURVE",
"263 172 CURVE SMOOTH",
"255 170 OFFCURVE",
"244 171 OFFCURVE",
"235 174 CURVE",
"233 174 LINE",
"223 179 OFFCURVE",
"216 199 OFFCURVE",
"211 216 CURVE",
"210 222 OFFCURVE",
"208 227 OFFCURVE",
"206 232 CURVE",
"206 231 LINE",
"196 271 OFFCURVE",
"193 308 OFFCURVE",
"193 347 CURVE SMOOTH",
"193 376 OFFCURVE",
"195 414 OFFCURVE",
"198 448 CURVE SMOOTH",
"202 481 OFFCURVE",
"206 513 OFFCURVE",
"213 523 CURVE",
"218 533 OFFCURVE",
"229 542 OFFCURVE",
"240 544 CURVE",
"253 549 OFFCURVE",
"270 540 OFFCURVE",
"281 529 CURVE",
"299 498 OFFCURVE",
"307 429 OFFCURVE",
"307 371 CURVE SMOOTH",
"307 352 OFFCURVE",
"307 328 OFFCURVE",
"306 312 CURVE"
);
}
);
width = 513;
}
);
leftKerningGroup = zero;
note = zero;
rightKerningGroup = zero;
unicode = 0030;
},
{
glyphname = one;
layers = (
{
hints = (
{
horizontal = 1;
place = "{-5, 21}";
target = up;
type = BottomGhost;
},
{
horizontal = 1;
place = "{719, -20}";
target = down;
type = TopGhost;
},
{
place = "{152, 176}";
type = Stem;
},
{
place = "{140, 188}";
type = Stem;
}
);
layerId = "4AB56EE0-9DC5-4ACD-ABD7-6439ED5BAAD5";
paths = (
{
closed = 1;
nodes = (
"328 41 OFFCURVE",
"328 65 OFFCURVE",
"328 88 CURVE SMOOTH",
"328 164 OFFCURVE",
"330 240 OFFCURVE",
"333 315 CURVE SMOOTH",
"336 390 OFFCURVE",
"339 465 OFFCURVE",
"339 542 CURVE SMOOTH",
"339 598 OFFCURVE",
"338 657 OFFCURVE",
"334 714 CURVE",
"289 718 OFFCURVE",
"251 719 OFFCURVE",
"214 719 CURVE SMOOTH",
"190 719 OFFCURVE",
"153 718 OFFCURVE",
"128 717 CURVE",
"116 717 LINE",
"107 708 OFFCURVE",
"-9 532 OFFCURVE",
"-13 489 CURVE",
"-13 475 OFFCURVE",
"110 447 OFFCURVE",
"123 447 CURVE SMOOTH",
"135 447 OFFCURVE",
"145 455 OFFCURVE",
"152 464 CURVE",
"152 402 OFFCURVE",
"149 358 OFFCURVE",
"146 297 CURVE SMOOTH",
"143 233 OFFCURVE",
"140 169 OFFCURVE",
"140 105 CURVE SMOOTH",
"140 5 LINE",
"173 -1 OFFCURVE",
"219 -5 OFFCURVE",
"253 -5 CURVE SMOOTH",
"284 -5 OFFCURVE",
"329 -2 OFFCURVE",
"329 18 CURVE"
);
}
);
width = 366;
}
);
leftKerningGroup = one;
note = one;
unicode = 0031;
},
{
glyphname = two;
layers = (
{
hints = (
{
horizontal = 1;
place = "{-5, 21}";
target = up;
type = BottomGhost;
},
{
horizontal = 1;
place = "{541, 175}";
type = Stem;
},
{
place = "{299, 189}";
type = Stem;
},
{
horizontal = 1;
place = "{-1, 21}";
target = up;
type = BottomGhost;
},
{
horizontal = 1;
place = "{-3, 153}";
type = Stem;
}
);
layerId = "4AB56EE0-9DC5-4ACD-ABD7-6439ED5BAAD5";
paths = (
{
closed = 1;
nodes = (
"402 306 OFFCURVE",
"481 348 OFFCURVE",
"488 436 CURVE SMOOTH",
"489 453 OFFCURVE",
"488 487 OFFCURVE",
"487 508 CURVE",
"487 511 OFFCURVE",
"486 514 OFFCURVE",
"486 517 CURVE SMOOTH",
"486 526 LINE",
"479 597 OFFCURVE",
"445 663 OFFCURVE",
"375 699 CURVE",
"349 709 OFFCURVE",
"308 716 OFFCURVE",
"262 716 CURVE SMOOTH",
"189 716 OFFCURVE",
"110 696 OFFCURVE",
"75 654 CURVE SMOOTH",
"37 610 OFFCURVE",
"16 550 OFFCURVE",
"16 485 CURVE SMOOTH",
"16 466 OFFCURVE",
"18 443 OFFCURVE",
"23 418 CURVE",
"51 411 OFFCURVE",
"67 411 OFFCURVE",
"84 411 CURVE SMOOTH",
"119 411 OFFCURVE",
"157 413 OFFCURVE",
"201 419 CURVE",
"205 468 OFFCURVE",
"211 539 OFFCURVE",
"259 541 CURVE",
"284 538 OFFCURVE",
"299 507 OFFCURVE",
"299 474 CURVE SMOOTH",
"299 447 OFFCURVE",
"289 420 OFFCURVE",
"269 407 CURVE",
"239 384 OFFCURVE",
"210 366 OFFCURVE",
"184 350 CURVE SMOOTH",
"143 325 OFFCURVE",
"88 290 OFFCURVE",
"51 249 CURVE",
"19 196 OFFCURVE",
"19 138 OFFCURVE",
"18 79 CURVE SMOOTH",
"18 54 OFFCURVE",
"16 21 OFFCURVE",
"14 -5 CURVE",
"24 -5 OFFCURVE",
"25 -10 OFFCURVE",
"76 -6 CURVE",
"456 -1 LINE SMOOTH",
"470 -1 OFFCURVE",
"475 -1 OFFCURVE",
"475 6 CURVE",
"473 15 OFFCURVE",
"473 23 OFFCURVE",
"473 31 CURVE SMOOTH",
"473 77 LINE SMOOTH",
"473 82 OFFCURVE",
"474 87 OFFCURVE",
"474 93 CURVE SMOOTH",
"474 112 OFFCURVE",
"472 131 OFFCURVE",
"464 150 CURVE",
"430 150 OFFCURVE",
"386 149 OFFCURVE",
"355 148 CURVE SMOOTH",
"327 147 OFFCURVE",
"299 147 OFFCURVE",
"270 147 CURVE SMOOTH",
"249 147 OFFCURVE",
"227 147 OFFCURVE",
"204 148 CURVE",
"243 224 OFFCURVE",
"254 232 OFFCURVE",
"332 272 CURVE SMOOTH"
);
}
);
width = 498;
}
);
note = two;
unicode = 0032;
},
{
glyphname = three;
layers = (
{
hints = (
{
horizontal = 1;
place = "{-6, 175}";
type = Stem;
},
{
horizontal = 1;
place = "{289, 150}";
type = Stem;
},
{
horizontal = 1;
place = "{483, 231}";
type = Stem;
},
{
place = "{289, 182}";
type = Stem;
},
{
horizontal = 1;
place = "{543, 171}";
type = Stem;
}
);
layerId = "4AB56EE0-9DC5-4ACD-ABD7-6439ED5BAAD5";
paths = (
{
closed = 1;
nodes = (
"62 37 OFFCURVE",
"78 24 OFFCURVE",
"113 13 CURVE",
"112 13 LINE",
"120 10 LINE",
"123 9 OFFCURVE",
"126 9 OFFCURVE",
"129 8 CURVE SMOOTH",
"140 4 OFFCURVE",
"154 1 OFFCURVE",
"169 -1 CURVE SMOOTH",
"191 -4 OFFCURVE",
"216 -6 OFFCURVE",
"242 -6 CURVE SMOOTH",
"277 -6 OFFCURVE",
"312 -3 OFFCURVE",
"340 6 CURVE SMOOTH",
"392 23 OFFCURVE",
"430 60 OFFCURVE",
"449 102 CURVE SMOOTH",
"463 133 OFFCURVE",
"465 164 OFFCURVE",
"466 193 CURVE SMOOTH",
"466 201 OFFCURVE",
"466 210 OFFCURVE",
"467 219 CURVE",
"469 284 OFFCURVE",
"471 352 OFFCURVE",
"471 419 CURVE SMOOTH",
"471 455 OFFCURVE",
"470 512 OFFCURVE",
"469 551 CURVE SMOOTH",
"468 571 OFFCURVE",
"463 608 OFFCURVE",
"453 626 CURVE",
"418 679 OFFCURVE",
"333 714 OFFCURVE",
"248 714 CURVE SMOOTH",
"147 714 OFFCURVE",
"44 673 OFFCURVE",
"17 583 CURVE",
"17 584 LINE",
"11 564 OFFCURVE",
"12 546 OFFCURVE",
"12 526 CURVE",
"13 503 OFFCURVE",
"13 493 OFFCURVE",
"13 484 CURVE",
"79 482 LINE SMOOTH",
"112 482 OFFCURVE",
"151 482 OFFCURVE",
"174 486 CURVE",
"186 517 OFFCURVE",
"224 543 OFFCURVE",
"253 543 CURVE SMOOTH",
"272 543 OFFCURVE",
"288 529 OFFCURVE",
"289 495 CURVE",
"293 441 OFFCURVE",
"252 440 OFFCURVE",
"215 439 CURVE SMOOTH",
"192 439 OFFCURVE",
"170 438 OFFCURVE",
"149 429 CURVE",
"153 397 OFFCURVE",
"147 366 OFFCURVE",
"147 336 CURVE SMOOTH",
"147 318 OFFCURVE",
"150 300 OFFCURVE",
"160 281 CURVE",
"180 286 OFFCURVE",
"200 289 OFFCURVE",
"213 289 CURVE SMOOTH",
"231 289 OFFCURVE",
"255 281 OFFCURVE",
"271 272 CURVE",
"281 262 OFFCURVE",
"290 243 OFFCURVE",
"290 224 CURVE SMOOTH",
"290 212 OFFCURVE",
"287 199 OFFCURVE",
"283 191 CURVE",
"283 192 LINE",
"272 176 OFFCURVE",
"260 169 OFFCURVE",
"248 169 CURVE SMOOTH",
"218 169 OFFCURVE",
"186 200 OFFCURVE",
"175 231 CURVE",
"163 232 OFFCURVE",
"154 233 OFFCURVE",
"139 233 CURVE SMOOTH",
"121 233 OFFCURVE",
"105 231 OFFCURVE",
"92 229 CURVE",
"66 229 OFFCURVE",
"41 223 OFFCURVE",
"15 225 CURVE",
"15 209 OFFCURVE",
"16 180 OFFCURVE",
"17 165 CURVE",
"17 161 LINE",
"18 147 OFFCURVE",
"19 128 OFFCURVE",
"22 114 CURVE",
"25 89 OFFCURVE",
"36 63 OFFCURVE",
"59 40 CURVE SMOOTH"
);
}
);
width = 492;
}
);
note = three;
unicode = 0033;
},
{
glyphname = four;
layers = (
{
hints = (
{
horizontal = 1;
place = "{-8, 21}";
target = up;
type = BottomGhost;
},
{
horizontal = 1;
place = "{173, 158}";
type = Stem;
},
{
horizontal = 1;
place = "{710, -20}";
target = down;
type = TopGhost;
},
{
place = "{223, 176}";
type = Stem;
},
{
horizontal = 1;
place = "{186, 145}";
type = Stem;
}
);
layerId = "4AB56EE0-9DC5-4ACD-ABD7-6439ED5BAAD5";
paths = (
{
closed = 1;
nodes = (
"399 361 LINE SMOOTH",
"399 438 OFFCURVE",
"404 625 OFFCURVE",
"406 685 CURVE SMOOTH",
"406 693 OFFCURVE",
"407 702 OFFCURVE",
"407 705 CURVE",
"389 710 OFFCURVE",
"378 710 OFFCURVE",
"361 710 CURVE SMOOTH",
"311 710 OFFCURVE",
"271 707 OFFCURVE",
"222 707 CURVE",
"93 516 OFFCURVE",
"65 450 OFFCURVE",
"-1 338 CURVE",
"-3 292 OFFCURVE",
"-5 239 OFFCURVE",
"9 196 CURVE",
"16 186 OFFCURVE",
"76 186 OFFCURVE",
"135 186 CURVE SMOOTH",
"181 186 OFFCURVE",
"223 190 OFFCURVE",
"223 189 CURVE",
"221 143 OFFCURVE",
"207 3 OFFCURVE",
"217 -8 CURVE",
"287 -8 LINE SMOOTH",
"345 -8 OFFCURVE",
"375 -8 OFFCURVE",
"387 5 CURVE",
"389 12 OFFCURVE",
"396 115 OFFCURVE",
"399 160 CURVE SMOOTH",
"400 170 OFFCURVE",
"398 174 OFFCURVE",
"397 175 CURVE",
"453 176 OFFCURVE",
"415 173 OFFCURVE",
"462 173 CURVE",
"467 333 LINE",
"436 333 OFFCURVE",
"416 339 OFFCURVE",
"399 336 CURVE"
);
},
{
closed = 1;
nodes = (
"246 331 LINE",
"208 331 OFFCURVE",
"156 334 OFFCURVE",
"151 334 CURVE",
"168 334 OFFCURVE",
"229 483 OFFCURVE",
"253 524 CURVE"
);
}
);
width = 469;
}
);
leftKerningGroup = four;
note = four;
rightKerningGroup = four;
unicode = 0034;
},
{
glyphname = five;
layers = (
{
hints = (
{
horizontal = 1;
place = "{-14, 237}";
type = Stem;
},
{
horizontal = 1;
place = "{344, 172}";
type = Stem;
},
{
horizontal = 1;
place = "{708, -20}";
target = down;
type = TopGhost;
},
{
place = "{302, 189}";
type = Stem;
}
);
layerId = "4AB56EE0-9DC5-4ACD-ABD7-6439ED5BAAD5";
paths = (
{
closed = 1;
nodes = (
"200 225 LINE",
"29 221 LINE",
"24 194 OFFCURVE",
"22 172 OFFCURVE",
"22 156 CURVE SMOOTH",
"20 40 OFFCURVE",
"127 -14 OFFCURVE",
"239 -14 CURVE SMOOTH",
"349 -14 OFFCURVE",
"464 38 OFFCURVE",
"485 133 CURVE",
"489 162 OFFCURVE",
"491 191 OFFCURVE",
"491 222 CURVE SMOOTH",
"491 354 OFFCURVE",
"437 486 OFFCURVE",
"303 512 CURVE",
"290 514 OFFCURVE",
"271 515 OFFCURVE",
"256 516 CURVE SMOOTH",
"204 520 OFFCURVE",
"197 502 OFFCURVE",
"202 547 CURVE",
"243 542 OFFCURVE",
"440 545 OFFCURVE",
"475 551 CURVE",
"475 564 LINE SMOOTH",
"475 572 OFFCURVE",
"475 583 OFFCURVE",
"476 596 CURVE SMOOTH",
"478 638 OFFCURVE",
"482 698 OFFCURVE",
"476 704 CURVE",
"460 708 OFFCURVE",
"448 708 OFFCURVE",
"428 708 CURVE SMOOTH",
"351 708 OFFCURVE",
"171 704 OFFCURVE",
"85 702 CURVE SMOOTH",
"58 701 OFFCURVE",
"25 701 OFFCURVE",
"22 701 CURVE",
"22 529 LINE SMOOTH",
"23 474 OFFCURVE",
"23 416 OFFCURVE",
"23 348 CURVE",
"47 344 OFFCURVE",
"59 344 OFFCURVE",
"71 344 CURVE SMOOTH",
"85 344 OFFCURVE",
"112 345 OFFCURVE",
"129 346 CURVE",
"137 346 OFFCURVE",
"145 347 OFFCURVE",
"153 347 CURVE",
"169 348 OFFCURVE",
"186 349 OFFCURVE",
"202 349 CURVE SMOOTH",
"219 349 OFFCURVE",
"236 348 OFFCURVE",
"253 345 CURVE",
"252 345 LINE",
"283 334 OFFCURVE",
"302 293 OFFCURVE",
"302 251 CURVE SMOOTH",
"302 210 OFFCURVE",
"284 170 OFFCURVE",
"246 163 CURVE",
"225 158 OFFCURVE",
"206 173 OFFCURVE",
"201 217 CURVE",
"201 216 LINE"
);
}
);
width = 503;
}
);
note = five;
unicode = 0035;
},
{
glyphname = six;
layers = (
{
hints = (
{
horizontal = 1;
place = "{-8, 21}";
target = up;
type = BottomGhost;
},
{
horizontal = 1;
place = "{475, 238}";
type = Stem;
},
{
place = "{17, 197}";
type = Stem;
}
);
layerId = "4AB56EE0-9DC5-4ACD-ABD7-6439ED5BAAD5";
paths = (
{
closed = 1;
nodes = (
"494 227 LINE",
"490 256 OFFCURVE",
"476 293 OFFCURVE",
"456 314 CURVE SMOOTH",
"439 332 OFFCURVE",
"410 350 OFFCURVE",
"380 359 CURVE SMOOTH",
"367 363 OFFCURVE",
"353 364 OFFCURVE",
"336 364 CURVE SMOOTH",
"304 364 OFFCURVE",
"275 358 OFFCURVE",
"251 352 CURVE SMOOTH",
"239 349 OFFCURVE",
"228 346 OFFCURVE",
"219 342 CURVE",
"220 360 OFFCURVE",
"219 378 OFFCURVE",
"217 394 CURVE",
"217 400 OFFCURVE",
"216 406 OFFCURVE",
"216 412 CURVE",
"215 425 OFFCURVE",
"214 437 OFFCURVE",
"214 450 CURVE SMOOTH",
"214 491 OFFCURVE",
"220 527 OFFCURVE",
"245 548 CURVE",
"251 554 OFFCURVE",
"260 558 OFFCURVE",
"269 558 CURVE SMOOTH",
"276 558 OFFCURVE",
"284 554 OFFCURVE",
"292 545 CURVE SMOOTH",
"305 531 OFFCURVE",
"310 499 OFFCURVE",
"311 474 CURVE",
"321 474 OFFCURVE",
"338 475 OFFCURVE",
"350 475 CURVE SMOOTH",
"380 475 LINE SMOOTH",
"410 475 OFFCURVE",
"438 476 OFFCURVE",
"474 482 CURVE",
"479 501 OFFCURVE",
"481 517 OFFCURVE",
"481 532 CURVE SMOOTH",
"481 627 OFFCURVE",
"406 716 OFFCURVE",
"289 713 CURVE SMOOTH",
"190 713 OFFCURVE",
"77 665 OFFCURVE",
"38 587 CURVE SMOOTH",
"34 579 OFFCURVE",
"31 574 OFFCURVE",
"31 572 CURVE",
"27 557 OFFCURVE",
"26 543 OFFCURVE",
"25 527 CURVE",
"25 518 LINE SMOOTH",
"25 509 OFFCURVE",
"24 500 OFFCURVE",
"23 491 CURVE",
"20 442 OFFCURVE",
"17 391 OFFCURVE",
"17 341 CURVE SMOOTH",
"17 179 OFFCURVE",
"47 20 OFFCURVE",
"194 -6 CURVE",
"209 -8 OFFCURVE",
"225 -8 OFFCURVE",
"242 -8 CURVE SMOOTH",
"379 -8 OFFCURVE",
"506 61 OFFCURVE",
"496 203 CURVE SMOOTH"
);
},
{
closed = 1;
nodes = (
"347 192 LINE",
"343 179 OFFCURVE",
"335 167 OFFCURVE",
"325 162 CURVE",
"310 153 OFFCURVE",
"289 154 OFFCURVE",
"278 159 CURVE",
"264 169 OFFCURVE",
"252 195 OFFCURVE",
"267 216 CURVE SMOOTH",
"282 237 OFFCURVE",
"308 246 OFFCURVE",
"327 244 CURVE",
"336 242 OFFCURVE",
"343 234 OFFCURVE",
"345 223 CURVE",
"347 217 OFFCURVE",
"347 211 OFFCURVE",
"347 204 CURVE SMOOTH"
);
}
);
width = 503;
}
);
leftKerningGroup = six;
note = six;
unicode = 0036;
},
{
glyphname = seven;
layers = (
{
hints = (
{
horizontal = 1;
place = "{0, 21}";
target = up;
type = BottomGhost;
},
{
horizontal = 1;
place = "{561, 156}";
type = Stem;
},
{
horizontal = 1;
place = "{-3, 21}";
target = up;
type = BottomGhost;
}
);
layerId = "4AB56EE0-9DC5-4ACD-ABD7-6439ED5BAAD5";
paths = (
{
closed = 1;
nodes = (
"263 557 LINE",
"223 467 OFFCURVE",
"163 342 OFFCURVE",
"114 240 CURVE SMOOTH",
"77 165 OFFCURVE",
"38 85 OFFCURVE",
"1 6 CURVE",
"25 -2 OFFCURVE",
"44 -3 OFFCURVE",
"64 -3 CURVE SMOOTH",
"85 -3 OFFCURVE",
"108 -2 OFFCURVE",
"126 0 CURVE",
"125 0 LINE",
"142 1 OFFCURVE",
"167 2 OFFCURVE",
"179 2 CURVE",
"359 327 OFFCURVE",
"428 450 OFFCURVE",
"478 565 CURVE",
"478 585 OFFCURVE",
"478 601 OFFCURVE",
"477 618 CURVE SMOOTH",
"476 634 OFFCURVE",
"476 649 OFFCURVE",
"476 666 CURVE SMOOTH",
"476 678 OFFCURVE",
"476 694 OFFCURVE",
"477 708 CURVE",
"416 715 OFFCURVE",
"352 717 OFFCURVE",
"287 717 CURVE SMOOTH",
"250 717 OFFCURVE",
"200 716 OFFCURVE",
"162 715 CURVE SMOOTH",
"142 715 OFFCURVE",
"122 714 OFFCURVE",
"103 714 CURVE SMOOTH",
"90 714 OFFCURVE",
"75 713 OFFCURVE",
"60 713 CURVE SMOOTH",
"45 713 OFFCURVE",
"25 713 OFFCURVE",
"12 712 CURVE",
"12 691 LINE SMOOTH",
"12 685 OFFCURVE",
"11 679 OFFCURVE",
"11 673 CURVE SMOOTH",
"11 641 OFFCURVE",
"11 606 OFFCURVE",
"6 565 CURVE"
);
}
);
width = 476;
}
);
leftKerningGroup = seven;
note = seven;
rightKerningGroup = seven;
unicode = 0037;
},
{
glyphname = eight;
layers = (
{
hints = (
{
horizontal = 1;
place = "{-17, 21}";
target = up;
type = BottomGhost;
},
{
horizontal = 1;
place = "{714, -20}";
target = down;
type = TopGhost;
},
{
place = "{18, 183}";
type = Stem;
},
{
place = "{276, 199}";
type = Stem;
}
);
layerId = "4AB56EE0-9DC5-4ACD-ABD7-6439ED5BAAD5";
paths = (
{
closed = 1;
nodes = (
"479 579 OFFCURVE",
"446 658 OFFCURVE",
"400 683 CURVE",
"390 689 LINE SMOOTH",
"356 709 OFFCURVE",
"321 714 OFFCURVE",
"263 714 CURVE SMOOTH",
"245 714 OFFCURVE",
"224 714 OFFCURVE",
"200 713 CURVE SMOOTH",
"84 708 OFFCURVE",
"18 601 OFFCURVE",
"18 498 CURVE SMOOTH",
"18 448 OFFCURVE",
"39 392 OFFCURVE",
"73 352 CURVE",
"32 308 OFFCURVE",
"9 250 OFFCURVE",
"9 196 CURVE SMOOTH",
"9 146 OFFCURVE",
"27 93 OFFCURVE",
"58 54 CURVE SMOOTH",
"94 9 OFFCURVE",
"170 -17 OFFCURVE",
"246 -17 CURVE SMOOTH",
"314 -17 OFFCURVE",
"384 5 OFFCURVE",
"418 42 CURVE SMOOTH",
"454 83 OFFCURVE",
"475 140 OFFCURVE",
"475 192 CURVE SMOOTH",
"475 245 OFFCURVE",
"446 305 OFFCURVE",
"400 345 CURVE",
"442 382 OFFCURVE",
"463 420 OFFCURVE",
"474 463 CURVE SMOOTH",
"477 474 OFFCURVE",
"478 485 OFFCURVE",
"478 495 CURVE SMOOTH"
);
},
{
closed = 1;
nodes = (
"227 542 OFFCURVE",
"276 522 OFFCURVE",
"276 486 CURVE SMOOTH",
"276 464 OFFCURVE",
"264 441 OFFCURVE",
"243 442 CURVE",
"216 445 OFFCURVE",
"203 479 OFFCURVE",
"210 503 CURVE"
);
},
{
closed = 1;
nodes = (
"247 178 OFFCURVE",
"232 177 OFFCURVE",
"218 183 CURVE SMOOTH",
"206 188 OFFCURVE",
"201 201 OFFCURVE",
"201 218 CURVE SMOOTH",
"201 241 OFFCURVE",
"212 264 OFFCURVE",
"228 271 CURVE SMOOTH",
"240 276 OFFCURVE",
"261 270 OFFCURVE",
"274 259 CURVE SMOOTH",
"279 255 OFFCURVE",
"286 240 OFFCURVE",
"286 228 CURVE",
"287 200 OFFCURVE",
"274 180 OFFCURVE",
"260 179 CURVE SMOOTH"
);
}
);
width = 490;
}
);
note = eight;
unicode = 0038;
},
{
glyphname = nine;
layers = (
{
hints = (
{
horizontal = 1;
place = "{-9, 241}";
type = Stem;
},
{
horizontal = 1;
place = "{281, 158}";
type = Stem;
},
{
horizontal = 1;
place = "{544, 169}";
type = Stem;
},
{
place = "{289, 200}";
type = Stem;
},
{
place = "{308, 181}";
type = Stem;
}
);
layerId = "4AB56EE0-9DC5-4ACD-ABD7-6439ED5BAAD5";
paths = (
{
closed = 1;
nodes = (
"489 471 LINE SMOOTH",
"488 538 OFFCURVE",
"486 605 OFFCURVE",
"452 656 CURVE SMOOTH",
"417 711 OFFCURVE",
"350 712 OFFCURVE",
"286 713 CURVE SMOOTH",
"271 713 LINE SMOOTH",
"266 713 OFFCURVE",
"261 714 OFFCURVE",
"256 714 CURVE",
"177 711 OFFCURVE",
"98 688 OFFCURVE",
"54 635 CURVE SMOOTH",
"23 597 OFFCURVE",
"13 550 OFFCURVE",
"13 503 CURVE SMOOTH",
"13 458 OFFCURVE",
"24 410 OFFCURVE",
"47 375 CURVE SMOOTH",
"85 318 OFFCURVE",
"154 281 OFFCURVE",
"229 281 CURVE SMOOTH",
"250 281 OFFCURVE",
"270 284 OFFCURVE",
"289 289 CURVE",
"291 241 OFFCURVE",
"283 187 OFFCURVE",
"248 182 CURVE",
"249 182 LINE",
"227 180 OFFCURVE",
"208 202 OFFCURVE",
"201 228 CURVE",
"182 231 OFFCURVE",
"162 232 OFFCURVE",
"143 232 CURVE SMOOTH",
"129 232 OFFCURVE",
"111 231 OFFCURVE",
"97 230 CURVE",
"90 230 OFFCURVE",
"82 229 OFFCURVE",
"75 229 CURVE",
"59 228 OFFCURVE",
"29 227 OFFCURVE",
"15 227 CURVE",
"15 218 LINE",
"13 207 OFFCURVE",
"13 192 OFFCURVE",
"13 183 CURVE SMOOTH",
"13 148 OFFCURVE",
"23 114 OFFCURVE",
"42 86 CURVE",
"85 30 OFFCURVE",
"180 -9 OFFCURVE",
"269 -9 CURVE SMOOTH",
"338 -9 OFFCURVE",
"402 11 OFFCURVE",
"439 54 CURVE",
"470 97 OFFCURVE",
"485 144 OFFCURVE",
"492 191 CURVE SMOOTH",
"494 206 OFFCURVE",
"495 221 OFFCURVE",
"495 238 CURVE SMOOTH",
"495 253 OFFCURVE",
"494 269 OFFCURVE",
"493 285 CURVE SMOOTH",
"492 300 OFFCURVE",
"491 311 OFFCURVE",
"491 323 CURVE"
);
},
{
closed = 1;
nodes = (
"304 469 OFFCURVE",
"302 465 OFFCURVE",
"299 459 CURVE",
"291 446 OFFCURVE",
"276 439 OFFCURVE",
"263 439 CURVE SMOOTH",
"248 439 OFFCURVE",
"230 450 OFFCURVE",
"221 468 CURVE",
"219 477 OFFCURVE",
"217 490 OFFCURVE",
"216 504 CURVE",
"216 523 OFFCURVE",
"223 531 OFFCURVE",
"231 534 CURVE",
"245 541 OFFCURVE",
"255 544 OFFCURVE",
"262 544 CURVE SMOOTH",
"287 544 OFFCURVE",
"310 523 OFFCURVE",
"308 495 CURVE"
);
}
);
width = 513;
}
);
note = nine;
unicode = 0039;
},
{
glyphname = braceleft;
layers = (
{
hints = (
{
horizontal = 1;
place = "{-4, 21}";
target = up;
type = BottomGhost;
},
{
horizontal = 1;
place = "{685, -20}";
target = down;
type = TopGhost;
},
{
place = "{113, 138}";
type = Stem;
},
{
place = "{113, 195}";
type = Stem;
},
{
horizontal = 1;
place = "{-6, 21}";
target = up;
type = BottomGhost;
}
);
layerId = "4AB56EE0-9DC5-4ACD-ABD7-6439ED5BAAD5";
paths = (
{
closed = 1;
nodes = (
"307 -4 LINE",
"308 7 OFFCURVE",
"308 21 OFFCURVE",
"308 37 CURVE SMOOTH",
"308 107 LINE",
"252 112 OFFCURVE",
"248 170 OFFCURVE",
"251 213 CURVE SMOOTH",
"254 266 OFFCURVE",
"244 313 OFFCURVE",
"200 341 CURVE",
"246 362 OFFCURVE",
"252 400 OFFCURVE",
"252 444 CURVE SMOOTH",
"252 464 OFFCURVE",
"251 470 OFFCURVE",
"251 476 CURVE",
"250 497 OFFCURVE",
"250 523 OFFCURVE",
"253 544 CURVE",
"258 568 OFFCURVE",
"285 577 OFFCURVE",
"305 584 CURVE",
"305 592 LINE",
"306 603 OFFCURVE",
"307 617 OFFCURVE",
"307 630 CURVE SMOOTH",
"307 643 OFFCURVE",
"306 661 OFFCURVE",
"303 682 CURVE",
"290 683 LINE SMOOTH",
"279 684 OFFCURVE",
"261 685 OFFCURVE",
"253 685 CURVE SMOOTH",
"236 685 OFFCURVE",
"219 684 OFFCURVE",
"202 682 CURVE",
"198 682 OFFCURVE",
"194 681 OFFCURVE",
"189 681 CURVE",
"132 672 OFFCURVE",
"100 616 OFFCURVE",
"111 561 CURVE",
"111 562 LINE",
"112 551 OFFCURVE",
"113 536 OFFCURVE",
"113 525 CURVE SMOOTH",
"113 457 OFFCURVE",
"89 391 OFFCURVE",
"1 400 CURVE",
"-3 378 OFFCURVE",
"-6 354 OFFCURVE",
"-6 333 CURVE SMOOTH",
"-6 321 OFFCURVE",
"-5 307 OFFCURVE",
"-2 295 CURVE",
"4 289 OFFCURVE",
"11 289 OFFCURVE",
"21 289 CURVE",
"93 293 OFFCURVE",
"112 222 OFFCURVE",
"112 157 CURVE SMOOTH",
"112 140 OFFCURVE",
"110 123 OFFCURVE",
"108 108 CURVE",
"105 52 OFFCURVE",
"162 -6 OFFCURVE",
"262 -6 CURVE SMOOTH",
"271 -6 OFFCURVE",
"284 -5 OFFCURVE",
"293 -4 CURVE"
);
}
);
width = 318;
}
);
note = braceleft;
rightKerningGroup = braceleft;
unicode = 007B;
},
{
glyphname = braceright;
layers = (
{
hints = (
{
horizontal = 1;
place = "{-4, 21}";
target = up;
type = BottomGhost;
},
{
horizontal = 1;
place = "{685, -20}";
target = down;
type = TopGhost;
},
{
place = "{10, 200}";
type = Stem;
},
{
horizontal = 1;
place = "{-6, 21}";
target = up;
type = BottomGhost;
},
{
place = "{67, 143}";
type = Stem;
}
);
layerId = "4AB56EE0-9DC5-4ACD-ABD7-6439ED5BAAD5";
paths = (
{
closed = 1;
nodes = (
"25 -4 LINE",
"34 -5 OFFCURVE",
"47 -6 OFFCURVE",
"56 -6 CURVE SMOOTH",
"156 -6 OFFCURVE",
"213 52 OFFCURVE",
"210 108 CURVE",
"208 123 OFFCURVE",
"206 140 OFFCURVE",
"206 157 CURVE SMOOTH",
"206 222 OFFCURVE",
"225 293 OFFCURVE",
"297 289 CURVE",
"307 289 OFFCURVE",
"314 289 OFFCURVE",
"320 295 CURVE",
"323 307 OFFCURVE",
"324 321 OFFCURVE",
"324 333 CURVE SMOOTH",
"324 354 OFFCURVE",
"320 378 OFFCURVE",
"317 400 CURVE",
"229 391 OFFCURVE",
"205 457 OFFCURVE",
"205 525 CURVE SMOOTH",
"205 536 OFFCURVE",
"206 551 OFFCURVE",
"207 562 CURVE",
"207 561 LINE",
"218 616 OFFCURVE",
"186 672 OFFCURVE",
"130 681 CURVE",
"127 681 OFFCURVE",
"121 682 OFFCURVE",
"117 682 CURVE",
"101 684 OFFCURVE",
"83 685 OFFCURVE",
"65 685 CURVE SMOOTH",
"57 685 OFFCURVE",
"39 684 OFFCURVE",
"28 683 CURVE SMOOTH",
"15 682 LINE",
"11 661 OFFCURVE",
"10 644 OFFCURVE",
"10 630 CURVE SMOOTH",
"10 612 OFFCURVE",
"11 597 OFFCURVE",
"13 583 CURVE",
"33 576 OFFCURVE",
"60 566 OFFCURVE",
"65 544 CURVE",
"68 523 OFFCURVE",
"68 497 OFFCURVE",
"67 476 CURVE",
"67 470 OFFCURVE",
"66 464 OFFCURVE",
"66 459 CURVE SMOOTH",
"66 444 LINE SMOOTH",
"66 400 OFFCURVE",
"73 362 OFFCURVE",
"120 341 CURVE",
"75 312 OFFCURVE",
"64 266 OFFCURVE",
"67 213 CURVE SMOOTH",
"70 170 OFFCURVE",
"66 112 OFFCURVE",
"10 107 CURVE",
"10 21 OFFCURVE",
"10 7 OFFCURVE",
"11 -4 CURVE"
);
}
);
width = 318;
}
);
leftKerningGroup = braceright;
note = braceright;
unicode = 007D;
},
{
glyphname = Euro;
layers = (
{
hints = (
{
horizontal = 1;
place = "{-5, 178}";
type = Stem;
},
{
horizontal = 1;
place = "{558, 155}";
type = Stem;
},
{
horizontal = 1;
place = "{-7, 21}";
target = up;
type = BottomGhost;
}
);
layerId = "4AB56EE0-9DC5-4ACD-ABD7-6439ED5BAAD5";
paths = (
{
closed = 1;
nodes = (
"242 -4 LINE",
"278 -5 LINE SMOOTH",
"300 -6 OFFCURVE",
"321 -7 OFFCURVE",
"341 -7 CURVE SMOOTH",
"380 -7 OFFCURVE",
"421 -5 OFFCURVE",
"473 4 CURVE",
"478 23 OFFCURVE",
"479 41 OFFCURVE",
"479 57 CURVE SMOOTH",
"479 69 OFFCURVE",
"478 89 OFFCURVE",
"477 102 CURVE SMOOTH",
"476 120 OFFCURVE",
"475 147 OFFCURVE",
"476 163 CURVE",
"439 171 OFFCURVE",
"412 172 OFFCURVE",
"383 173 CURVE SMOOTH",
"310 176 OFFCURVE",
"232 173 OFFCURVE",
"216 253 CURVE",
"220 244 OFFCURVE",
"235 250 OFFCURVE",
"250 250 CURVE SMOOTH",
"274 250 OFFCURVE",
"299 251 OFFCURVE",
"333 257 CURVE",
"335 271 OFFCURVE",
"337 290 OFFCURVE",
"337 311 CURVE SMOOTH",
"337 328 OFFCURVE",
"335 347 OFFCURVE",
"331 364 CURVE",
"294 366 OFFCURVE",
"253 366 OFFCURVE",
"220 366 CURVE SMOOTH",
"206 366 LINE",
"204 375 OFFCURVE",
"204 379 OFFCURVE",
"204 393 CURVE",
"272 390 OFFCURVE",
"303 390 OFFCURVE",
"332 399 CURVE",
"334 415 OFFCURVE",
"335 433 OFFCURVE",
"335 453 CURVE SMOOTH",
"335 470 OFFCURVE",
"334 487 OFFCURVE",
"332 502 CURVE",
"302 504 OFFCURVE",
"277 500 OFFCURVE",
"246 512 CURVE",
"273 549 OFFCURVE",
"318 558 OFFCURVE",
"363 558 CURVE SMOOTH",
"384 558 OFFCURVE",
"409 557 OFFCURVE",
"430 555 CURVE",
"429 555 LINE",
"436 554 OFFCURVE",
"447 553 OFFCURVE",
"464 553 CURVE",
"467 556 OFFCURVE",
"470 556 OFFCURVE",
"470 556 CURVE",
"472 573 OFFCURVE",
"473 597 OFFCURVE",
"473 620 CURVE SMOOTH",
"473 654 OFFCURVE",
"471 687 OFFCURVE",
"468 713 CURVE",
"376 713 LINE SMOOTH",
"254 713 OFFCURVE",
"124 714 OFFCURVE",
"61 622 CURVE SMOOTH",
"27 569 OFFCURVE",
"19 521 OFFCURVE",
"16 471 CURVE",
"16 467 OFFCURVE",
"15 461 OFFCURVE",
"15 440 CURVE SMOOTH",
"14 411 OFFCURVE",
"14 381 OFFCURVE",
"14 352 CURVE SMOOTH",
"14 248 OFFCURVE",
"29 136 OFFCURVE",
"83 67 CURVE",
"91 56 OFFCURVE",
"106 45 OFFCURVE",
"124 34 CURVE SMOOTH",
"153 17 OFFCURVE",
"182 5 OFFCURVE",
"223 -2 CURVE"
);
}
);
width = 490;
}
);
note = Euro;
unicode = 20AC;
},
{
glyphname = plusminus;
layers = (
{
hints = (
{
horizontal = 1;
place = "{2, 174}";
type = Stem;
},
{
horizontal = 1;
place = "{382, 160}";
type = Stem;
},
{
place = "{159, 183}";
type = Stem;
},
{
horizontal = 1;
place = "{-1, 21}";
target = up;
type = BottomGhost;
}
);
layerId = "4AB56EE0-9DC5-4ACD-ABD7-6439ED5BAAD5";
paths = (
{
closed = 1;
nodes = (
"150 311 LINE",
"151 248 LINE",
"160 252 OFFCURVE",
"198 250 OFFCURVE",
"217 251 CURVE",
"240 250 OFFCURVE",
"267 249 OFFCURVE",
"288 249 CURVE SMOOTH",
"315 249 OFFCURVE",
"334 247 OFFCURVE",
"335 250 CURVE",
"338 258 OFFCURVE",
"335 282 OFFCURVE",
"337 300 CURVE",
"341 378 LINE",
"346 381 OFFCURVE",
"369 382 OFFCURVE",
"397 382 CURVE SMOOTH",
"424 382 OFFCURVE",
"446 382 OFFCURVE",
"460 389 CURVE",
"463 417 OFFCURVE",
"463 442 OFFCURVE",
"463 468 CURVE SMOOTH",
"463 488 OFFCURVE",
"463 512 OFFCURVE",
"464 537 CURVE",
"435 542 OFFCURVE",
"407 542 OFFCURVE",
"380 542 CURVE SMOOTH",
"360 542 OFFCURVE",
"358 542 OFFCURVE",
"344 543 CURVE",
"341 665 LINE",
"310 669 OFFCURVE",
"178 665 OFFCURVE",
"161 666 CURVE",
"157 541 LINE",
"150 539 OFFCURVE",
"40 534 OFFCURVE",
"30 536 CURVE",
"30 531 OFFCURVE",
"30 515 OFFCURVE",
"31 506 CURVE",
"31 507 LINE",
"33 475 OFFCURVE",
"36 414 OFFCURVE",
"34 393 CURVE",
"50 383 OFFCURVE",
"124 377 OFFCURVE",
"151 376 CURVE",
"150 372 OFFCURVE",
"150 367 OFFCURVE",
"150 361 CURVE SMOOTH"
);
},
{
closed = 1;
nodes = (
"28 6 LINE",
"252 2 LINE SMOOTH",
"359 0 OFFCURVE",
"481 -1 OFFCURVE",
"492 -1 CURVE",
"488 27 OFFCURVE",
"487 51 OFFCURVE",
"487 73 CURVE SMOOTH",
"487 93 LINE",
"488 115 LINE SMOOTH",
"489 134 OFFCURVE",
"489 157 OFFCURVE",
"489 176 CURVE",
"16 176 LINE",
"16 165 LINE",
"15 132 LINE SMOOTH",
"14 91 OFFCURVE",
"13 27 OFFCURVE",
"13 6 CURVE"
);
}
);
width = 501;
}
);
note = plusminus;
unicode = 00B1;
},
{
glyphname = Agrave;
layers = (
{
hints = (
{
horizontal = 1;
place = "{930, -20}";
target = down;
type = TopGhost;
}
);
layerId = "4AB56EE0-9DC5-4ACD-ABD7-6439ED5BAAD5";
paths = (
{
closed = 1;
nodes = (
"39 847 LINE",
"45 841 OFFCURVE",
"60 827 OFFCURVE",
"77 813 CURVE",
"76 813 LINE",
"83 807 LINE SMOOTH",
"107 785 OFFCURVE",
"133 761 OFFCURVE",
"144 746 CURVE",
"165 743 OFFCURVE",
"184 743 OFFCURVE",
"204 743 CURVE SMOOTH",
"242 743 OFFCURVE",
"286 747 OFFCURVE",
"306 752 CURVE",
"296 761 OFFCURVE",
"274 785 OFFCURVE",
"259 800 CURVE SMOOTH",
"239 820 LINE",
"239 819 LINE",
"205 854 OFFCURVE",
"163 898 OFFCURVE",
"121 930 CURVE"
);
},
{
closed = 1;
nodes = (
"387 352 LINE",
"370 418 OFFCURVE",
"327 616 OFFCURVE",
"304 711 CURVE",
"242 706 OFFCURVE",
"198 706 OFFCURVE",
"177 706 CURVE SMOOTH",
"171 706 LINE SMOOTH",
"157 706 OFFCURVE",
"147 706 OFFCURVE",
"133 704 CURVE",
"58 456 OFFCURVE",
"33 247 OFFCURVE",
"0 65 CURVE SMOOTH",
"-7 28 OFFCURVE",
"-8 0 OFFCURVE",
"-8 0 CURVE",
"93 -1 OFFCURVE",
"117 -11 OFFCURVE",
"158 -4 CURVE",
"190 44 OFFCURVE",
"189 114 OFFCURVE",
"205 163 CURVE",
"226 165 OFFCURVE",
"222 164 OFFCURVE",
"242 163 CURVE",
"257 127 OFFCURVE",
"272 45 OFFCURVE",
"288 1 CURVE",
"345 -11 OFFCURVE",
"397 -15 OFFCURVE",
"453 -3 CURVE"
);
},
{
closed = 1;
nodes = (
"202 291 LINE",
"211 358 LINE SMOOTH",
"222 439 OFFCURVE",
"219 501 OFFCURVE",
"222 501 CURVE",
"223 491 LINE",
"222 491 OFFCURVE",
"228 434 OFFCURVE",
"244 291 CURVE"
);
}
);
width = 434;
}
);
leftKerningGroup = A;
note = Agrave;
rightKerningGroup = A;
unicode = 00C0;
},
{
glyphname = Aacute;
layers = (
{
hints = (
{
horizontal = 1;
place = "{930, -20}";
target = down;
type = TopGhost;
}
);
layerId = "4AB56EE0-9DC5-4ACD-ABD7-6439ED5BAAD5";
paths = (
{
closed = 1;
nodes = (
"381 845 LINE",
"300 930 LINE",
"262 899 OFFCURVE",
"220 857 OFFCURVE",
"183 819 CURVE SMOOTH",
"165 800 OFFCURVE",
"137 771 OFFCURVE",
"116 753 CURVE",
"136 747 OFFCURVE",
"182 743 OFFCURVE",
"218 743 CURVE SMOOTH",
"238 743 OFFCURVE",
"259 743 OFFCURVE",
"280 746 CURVE",
"290 766 OFFCURVE",
"322 794 OFFCURVE",
"347 815 CURVE SMOOTH"
);
},
{
closed = 1;
nodes = (
"387 352 LINE",
"370 418 OFFCURVE",
"327 616 OFFCURVE",
"304 711 CURVE",
"242 706 OFFCURVE",
"198 706 OFFCURVE",
"177 706 CURVE SMOOTH",
"171 706 LINE SMOOTH",
"157 706 OFFCURVE",
"147 706 OFFCURVE",
"133 704 CURVE",
"58 456 OFFCURVE",
"33 247 OFFCURVE",
"0 65 CURVE SMOOTH",
"-7 28 OFFCURVE",
"-8 0 OFFCURVE",
"-8 0 CURVE",
"93 -1 OFFCURVE",
"117 -11 OFFCURVE",
"158 -4 CURVE",
"190 44 OFFCURVE",
"189 114 OFFCURVE",
"205 163 CURVE",
"226 165 OFFCURVE",
"222 164 OFFCURVE",
"242 163 CURVE",
"257 127 OFFCURVE",
"272 45 OFFCURVE",
"288 1 CURVE",
"345 -11 OFFCURVE",
"397 -15 OFFCURVE",
"453 -3 CURVE"
);
},
{
closed = 1;
nodes = (
"202 291 LINE",
"211 358 LINE SMOOTH",
"222 439 OFFCURVE",
"219 501 OFFCURVE",
"222 501 CURVE",
"223 491 LINE",
"222 491 OFFCURVE",
"228 434 OFFCURVE",
"244 291 CURVE"
);
}
);
width = 434;
}
);
leftKerningGroup = A;
note = Aacute;
rightKerningGroup = A;
unicode = 00C1;
},
{
glyphname = Acircumflex;
layers = (
{
hints = (
{
horizontal = 1;
place = "{932, -20}";
target = down;
type = TopGhost;
}
);
layerId = "4AB56EE0-9DC5-4ACD-ABD7-6439ED5BAAD5";
paths = (
{
closed = 1;
nodes = (
"221 932 LINE",
"159 871 OFFCURVE",
"95 822 OFFCURVE",
"42 751 CURVE",
"95 747 LINE",
"120 742 OFFCURVE",
"150 743 OFFCURVE",
"174 747 CURVE",
"191 755 OFFCURVE",
"206 772 OFFCURVE",
"219 785 CURVE",
"232 769 OFFCURVE",
"244 748 OFFCURVE",
"266 746 CURVE",
"278 744 OFFCURVE",
"295 744 OFFCURVE",
"305 744 CURVE SMOOTH",
"332 744 OFFCURVE",
"370 742 OFFCURVE",
"387 759 CURVE"
);
},
{
closed = 1;
nodes = (
"387 352 LINE",
"370 418 OFFCURVE",
"327 616 OFFCURVE",
"304 711 CURVE",
"242 706 OFFCURVE",
"198 706 OFFCURVE",
"177 706 CURVE SMOOTH",
"171 706 LINE SMOOTH",
"157 706 OFFCURVE",
"147 706 OFFCURVE",
"133 704 CURVE",
"58 456 OFFCURVE",
"33 247 OFFCURVE",
"0 65 CURVE SMOOTH",
"-7 28 OFFCURVE",
"-8 0 OFFCURVE",
"-8 0 CURVE",
"93 -1 OFFCURVE",
"117 -11 OFFCURVE",
"158 -4 CURVE",
"190 44 OFFCURVE",
"189 114 OFFCURVE",
"205 163 CURVE",
"226 165 OFFCURVE",
"222 164 OFFCURVE",
"242 163 CURVE",
"257 127 OFFCURVE",
"272 45 OFFCURVE",
"288 1 CURVE",
"345 -11 OFFCURVE",
"397 -15 OFFCURVE",
"453 -3 CURVE"
);
},
{
closed = 1;
nodes = (
"202 291 LINE",
"211 358 LINE SMOOTH",
"222 439 OFFCURVE",
"219 501 OFFCURVE",
"222 501 CURVE",
"223 491 LINE",
"222 491 OFFCURVE",
"228 434 OFFCURVE",
"244 291 CURVE"
);
}
);
width = 434;
}
);
leftKerningGroup = A;
note = Acircumflex;
rightKerningGroup = A;
unicode = 00C2;
},
{
glyphname = Atilde;
layers = (
{
hints = (
{
horizontal = 1;
place = "{753, 164}";
type = Stem;
},
{
horizontal = 1;
place = "{926, -20}";
target = down;
type = TopGhost;
}
);
layerId = "4AB56EE0-9DC5-4ACD-ABD7-6439ED5BAAD5";
paths = (
{
closed = 1;
nodes = (
"128 795 OFFCURVE",
"181 847 OFFCURVE",
"210 797 CURVE",
"228 755 OFFCURVE",
"281 739 OFFCURVE",
"328 746 CURVE",
"402 761 OFFCURVE",
"442 848 OFFCURVE",
"433 918 CURVE",
"409 917 LINE",
"370 917 OFFCURVE",
"350 917 OFFCURVE",
"323 914 CURVE",
"316 894 OFFCURVE",
"294 840 OFFCURVE",
"270 860 CURVE",
"250 875 OFFCURVE",
"240 896 OFFCURVE",
"220 909 CURVE SMOOTH",
"203 920 OFFCURVE",
"180 926 OFFCURVE",
"159 926 CURVE SMOOTH",
"124 926 OFFCURVE",
"89 912 OFFCURVE",
"66 889 CURVE",
"37 857 OFFCURVE",
"9 781 OFFCURVE",
"0 751 CURVE",
"17 752 OFFCURVE",
"51 753 OFFCURVE",
"66 753 CURVE SMOOTH",
"91 753 OFFCURVE",
"118 752 OFFCURVE",
"151 751 CURVE"
);
},
{
closed = 1;
nodes = (
"387 352 LINE",
"370 418 OFFCURVE",
"327 616 OFFCURVE",
"304 711 CURVE",
"242 706 OFFCURVE",
"198 706 OFFCURVE",
"177 706 CURVE SMOOTH",
"171 706 LINE SMOOTH",
"157 706 OFFCURVE",
"147 706 OFFCURVE",
"133 704 CURVE",
"58 456 OFFCURVE",
"33 247 OFFCURVE",
"0 65 CURVE SMOOTH",
"-7 28 OFFCURVE",
"-8 0 OFFCURVE",
"-8 0 CURVE",
"93 -1 OFFCURVE",
"117 -11 OFFCURVE",
"158 -4 CURVE",
"190 44 OFFCURVE",
"189 114 OFFCURVE",
"205 163 CURVE",
"226 165 OFFCURVE",
"222 164 OFFCURVE",
"242 163 CURVE",
"257 127 OFFCURVE",
"272 45 OFFCURVE",
"288 1 CURVE",
"345 -11 OFFCURVE",
"397 -15 OFFCURVE",
"453 -3 CURVE"
);
},
{
closed = 1;
nodes = (
"202 291 LINE",
"211 358 LINE SMOOTH",
"222 439 OFFCURVE",
"219 501 OFFCURVE",
"222 501 CURVE",
"223 491 LINE",
"222 491 OFFCURVE",
"228 434 OFFCURVE",
"244 291 CURVE"
);
}
);
width = 434;
}
);
leftKerningGroup = A;
note = Atilde;
rightKerningGroup = A;
unicode = 00C3;
},
{
glyphname = Egrave;
layers = (
{
hints = (
{
horizontal = 1;
place = "{-2, 142}";
type = Stem;
},
{
horizontal = 1;
place = "{536, 158}";
type = Stem;
},
{
horizontal = 1;
place = "{930, -20}";
target = down;
type = TopGhost;
},
{
place = "{24, 189}";
type = Stem;
}
);
layerId = "4AB56EE0-9DC5-4ACD-ABD7-6439ED5BAAD5";
paths = (
{
closed = 1;
nodes = (
"96 847 LINE",
"102 841 OFFCURVE",
"117 827 OFFCURVE",
"134 813 CURVE",
"133 813 LINE",
"140 807 LINE SMOOTH",
"164 785 OFFCURVE",
"190 761 OFFCURVE",
"201 746 CURVE",
"222 743 OFFCURVE",
"241 743 OFFCURVE",
"261 743 CURVE SMOOTH",
"299 743 OFFCURVE",
"343 747 OFFCURVE",
"363 752 CURVE",
"353 761 OFFCURVE",
"331 785 OFFCURVE",
"316 800 CURVE SMOOTH",
"296 820 LINE",
"296 819 LINE",
"262 854 OFFCURVE",
"220 898 OFFCURVE",
"178 930 CURVE"
);
},
{
closed = 1;
nodes = (
"462 141 OFFCURVE",
"432 140 OFFCURVE",
"417 140 CURVE SMOOTH",
"349 140 OFFCURVE",
"283 146 OFFCURVE",
"215 146 CURVE",
"212 166 OFFCURVE",
"211 190 OFFCURVE",
"211 214 CURVE",
"215 266 LINE",
"221 270 OFFCURVE",
"231 267 OFFCURVE",
"250 267 CURVE SMOOTH",
"274 267 OFFCURVE",
"304 267 OFFCURVE",
"336 276 CURVE",
"339 372 OFFCURVE",
"338 392 OFFCURVE",
"333 421 CURVE",
"320 422 LINE SMOOTH",
"306 423 OFFCURVE",
"289 424 OFFCURVE",
"278 424 CURVE",
"212 416 LINE",
"207 431 OFFCURVE",
"206 445 OFFCURVE",
"206 458 CURVE SMOOTH",
"206 479 OFFCURVE",
"209 517 OFFCURVE",
"211 536 CURVE",
"341 537 LINE SMOOTH",
"381 537 OFFCURVE",
"424 539 OFFCURVE",
"475 550 CURVE",
"475 600 OFFCURVE",
"484 650 OFFCURVE",
"475 698 CURVE",
"354 709 OFFCURVE",
"172 698 OFFCURVE",
"31 694 CURVE",
"26 610 OFFCURVE",
"24 522 OFFCURVE",
"24 439 CURVE SMOOTH",
"24 373 OFFCURVE",
"31 52 OFFCURVE",
"30 1 CURVE",
"175 -10 OFFCURVE",
"323 -2 OFFCURVE",
"469 -2 CURVE",
"477 27 OFFCURVE",
"480 59 OFFCURVE",
"480 89 CURVE SMOOTH",
"480 104 OFFCURVE",
"479 119 OFFCURVE",
"478 142 CURVE"
);
}
);
width = 481;
}
);
note = Egrave;
rightKerningGroup = E;
unicode = 00C8;
},
{
glyphname = Eacute;
layers = (
{
hints = (
{
horizontal = 1;
place = "{-2, 142}";
type = Stem;
},
{
horizontal = 1;
place = "{694, 49}";
type = Stem;
},
{
horizontal = 1;
place = "{930, -20}";
target = down;
type = TopGhost;
},
{
place = "{24, 189}";
type = Stem;
},
{
horizontal = 1;
place = "{536, 158}";
type = Stem;
}
);
layerId = "4AB56EE0-9DC5-4ACD-ABD7-6439ED5BAAD5";
paths = (
{
closed = 1;
nodes = (
"409 845 LINE",
"328 930 LINE",
"290 899 OFFCURVE",
"248 857 OFFCURVE",
"211 819 CURVE SMOOTH",
"193 800 OFFCURVE",
"165 771 OFFCURVE",
"144 753 CURVE",
"164 747 OFFCURVE",
"210 743 OFFCURVE",
"246 743 CURVE SMOOTH",
"266 743 OFFCURVE",
"287 743 OFFCURVE",
"308 746 CURVE",
"318 766 OFFCURVE",
"350 794 OFFCURVE",
"375 815 CURVE SMOOTH"
);
},
{
closed = 1;
nodes = (
"462 141 OFFCURVE",
"432 140 OFFCURVE",
"417 140 CURVE SMOOTH",
"349 140 OFFCURVE",
"283 146 OFFCURVE",
"215 146 CURVE",
"212 166 OFFCURVE",
"211 190 OFFCURVE",
"211 214 CURVE",
"215 266 LINE",
"221 270 OFFCURVE",
"231 267 OFFCURVE",
"250 267 CURVE SMOOTH",
"274 267 OFFCURVE",
"304 267 OFFCURVE",
"336 276 CURVE",
"339 372 OFFCURVE",
"338 392 OFFCURVE",
"333 421 CURVE",
"320 422 LINE SMOOTH",
"306 423 OFFCURVE",
"289 424 OFFCURVE",
"278 424 CURVE",
"212 416 LINE",
"207 431 OFFCURVE",
"206 445 OFFCURVE",
"206 458 CURVE SMOOTH",
"206 479 OFFCURVE",
"209 517 OFFCURVE",
"211 536 CURVE",
"341 537 LINE SMOOTH",
"381 537 OFFCURVE",
"424 539 OFFCURVE",
"475 550 CURVE",
"475 600 OFFCURVE",
"484 650 OFFCURVE",
"475 698 CURVE",
"354 709 OFFCURVE",
"172 698 OFFCURVE",
"31 694 CURVE",
"26 610 OFFCURVE",
"24 522 OFFCURVE",
"24 439 CURVE SMOOTH",
"24 373 OFFCURVE",
"31 52 OFFCURVE",
"30 1 CURVE",
"175 -10 OFFCURVE",
"323 -2 OFFCURVE",
"469 -2 CURVE",
"477 27 OFFCURVE",
"480 59 OFFCURVE",
"480 89 CURVE SMOOTH",
"480 104 OFFCURVE",
"479 119 OFFCURVE",
"478 142 CURVE"
);
}
);
width = 481;
}
);
note = Eacute;
rightKerningGroup = E;
unicode = 00C9;
},
{
glyphname = Ecircumflex;
layers = (
{
hints = (
{
horizontal = 1;
place = "{-2, 142}";
type = Stem;
},
{
horizontal = 1;
place = "{536, 158}";
type = Stem;
},
{
horizontal = 1;
place = "{932, -20}";
target = down;
type = TopGhost;
},
{
place = "{24, 189}";
type = Stem;
},
{
horizontal = 1;
place = "{694, 57}";
type = Stem;
}
);
layerId = "4AB56EE0-9DC5-4ACD-ABD7-6439ED5BAAD5";
paths = (
{
closed = 1;
nodes = (
"221 932 LINE",
"159 871 OFFCURVE",
"95 822 OFFCURVE",
"42 751 CURVE",
"95 747 LINE",
"120 742 OFFCURVE",
"150 743 OFFCURVE",
"174 747 CURVE",
"191 755 OFFCURVE",
"206 772 OFFCURVE",
"219 785 CURVE",
"232 769 OFFCURVE",
"244 748 OFFCURVE",
"266 746 CURVE",
"278 744 OFFCURVE",
"295 744 OFFCURVE",
"305 744 CURVE SMOOTH",
"332 744 OFFCURVE",
"370 742 OFFCURVE",
"387 759 CURVE"
);
},
{
closed = 1;
nodes = (
"462 141 OFFCURVE",
"432 140 OFFCURVE",
"417 140 CURVE SMOOTH",
"349 140 OFFCURVE",
"283 146 OFFCURVE",
"215 146 CURVE",
"212 166 OFFCURVE",
"211 190 OFFCURVE",
"211 214 CURVE",
"215 266 LINE",
"221 270 OFFCURVE",
"231 267 OFFCURVE",
"250 267 CURVE SMOOTH",
"274 267 OFFCURVE",
"304 267 OFFCURVE",
"336 276 CURVE",
"339 372 OFFCURVE",
"338 392 OFFCURVE",
"333 421 CURVE",
"320 422 LINE SMOOTH",
"306 423 OFFCURVE",
"289 424 OFFCURVE",
"278 424 CURVE",
"212 416 LINE",
"207 431 OFFCURVE",
"206 445 OFFCURVE",
"206 458 CURVE SMOOTH",
"206 479 OFFCURVE",
"209 517 OFFCURVE",
"211 536 CURVE",
"341 537 LINE SMOOTH",
"381 537 OFFCURVE",
"424 539 OFFCURVE",
"475 550 CURVE",
"475 600 OFFCURVE",
"484 650 OFFCURVE",
"475 698 CURVE",
"354 709 OFFCURVE",
"172 698 OFFCURVE",
"31 694 CURVE",
"26 610 OFFCURVE",
"24 522 OFFCURVE",
"24 439 CURVE SMOOTH",
"24 373 OFFCURVE",
"31 52 OFFCURVE",
"30 1 CURVE",
"175 -10 OFFCURVE",
"323 -2 OFFCURVE",
"469 -2 CURVE",
"477 27 OFFCURVE",
"480 59 OFFCURVE",
"480 89 CURVE SMOOTH",
"480 104 OFFCURVE",
"479 119 OFFCURVE",
"478 142 CURVE"
);
}
);
width = 481;
}
);
note = Ecircumflex;
rightKerningGroup = E;
unicode = 00CA;
},
{
glyphname = Ugrave;
layers = (
{
hints = (
{
horizontal = 1;
place = "{-21, 164}";
type = Stem;
},
{
horizontal = 1;
place = "{930, -20}";
target = down;
type = TopGhost;
},
{
place = "{26, 167}";
type = Stem;
},
{
place = "{306, 183}";
type = Stem;
},
{
place = "{26, 180}";
type = Stem;
}
);
layerId = "4AB56EE0-9DC5-4ACD-ABD7-6439ED5BAAD5";
paths = (
{
closed = 1;
nodes = (
"80 847 LINE",
"86 841 OFFCURVE",
"101 827 OFFCURVE",
"118 813 CURVE",
"117 813 LINE",
"124 807 LINE SMOOTH",
"148 785 OFFCURVE",
"174 761 OFFCURVE",
"185 746 CURVE",
"206 743 OFFCURVE",
"225 743 OFFCURVE",
"245 743 CURVE SMOOTH",
"283 743 OFFCURVE",
"327 747 OFFCURVE",
"347 752 CURVE",
"337 761 OFFCURVE",
"315 785 OFFCURVE",
"300 800 CURVE SMOOTH",
"280 820 LINE",
"280 819 LINE",
"246 854 OFFCURVE",
"204 898 OFFCURVE",
"162 930 CURVE"
);
},
{
closed = 1;
nodes = (
"476 674 LINE",
"462 682 OFFCURVE",
"440 684 OFFCURVE",
"416 684 CURVE",
"403 685 OFFCURVE",
"344 678 OFFCURVE",
"329 678 CURVE",
"308 675 LINE",
"307 633 OFFCURVE",
"306 587 OFFCURVE",
"306 543 CURVE SMOOTH",
"306 522 OFFCURVE",
"305 501 OFFCURVE",
"305 479 CURVE SMOOTH",
"304 384 OFFCURVE",
"303 282 OFFCURVE",
"299 188 CURVE",
"299 189 LINE",
"292 161 OFFCURVE",
"270 143 OFFCURVE",
"250 143 CURVE SMOOTH",
"232 143 OFFCURVE",
"214 157 OFFCURVE",
"206 184 CURVE",
"206 183 LINE",
"198 291 OFFCURVE",
"193 398 OFFCURVE",
"193 504 CURVE SMOOTH",
"193 561 OFFCURVE",
"195 620 OFFCURVE",
"197 676 CURVE",
"170 684 OFFCURVE",
"139 687 OFFCURVE",
"111 687 CURVE SMOOTH",
"68 686 OFFCURVE",
"59 685 OFFCURVE",
"51 685 CURVE SMOOTH",
"26 685 LINE",
"27 654 OFFCURVE",
"27 618 OFFCURVE",
"27 588 CURVE SMOOTH",
"27 540 OFFCURVE",
"26 484 OFFCURVE",
"25 431 CURVE SMOOTH",
"24 366 LINE SMOOTH",
"23 293 OFFCURVE",
"22 219 OFFCURVE",
"22 147 CURVE",
"27 32 OFFCURVE",
"149 -21 OFFCURVE",
"262 -21 CURVE SMOOTH",
"274 -21 OFFCURVE",
"286 -20 OFFCURVE",
"295 -19 CURVE",
"294 -19 LINE",
"397 -9 OFFCURVE",
"461 61 OFFCURVE",
"472 150 CURVE SMOOTH",
"484 258 OFFCURVE",
"489 367 OFFCURVE",
"489 476 CURVE SMOOTH",
"489 541 OFFCURVE",
"487 610 OFFCURVE",
"484 674 CURVE"
);
}
);
width = 505;
}
);
leftKerningGroup = U;
note = Ugrave;
rightKerningGroup = U;
unicode = 00D9;
},
{
glyphname = Uacute;
layers = (
{
hints = (
{
horizontal = 1;
place = "{-21, 164}";
type = Stem;
},
{
horizontal = 1;
place = "{930, -20}";
target = down;
type = TopGhost;
},
{
place = "{26, 167}";
type = Stem;
},
{
place = "{306, 183}";
type = Stem;
},
{
place = "{26, 180}";
type = Stem;
}
);
layerId = "4AB56EE0-9DC5-4ACD-ABD7-6439ED5BAAD5";
paths = (
{
closed = 1;
nodes = (
"432 845 LINE",
"351 930 LINE",
"313 899 OFFCURVE",
"271 857 OFFCURVE",
"234 819 CURVE SMOOTH",
"216 800 OFFCURVE",
"188 771 OFFCURVE",
"167 753 CURVE",
"187 747 OFFCURVE",
"233 743 OFFCURVE",
"269 743 CURVE SMOOTH",
"289 743 OFFCURVE",
"310 743 OFFCURVE",
"331 746 CURVE",
"341 766 OFFCURVE",
"373 794 OFFCURVE",
"398 815 CURVE SMOOTH"
);
},
{
closed = 1;
nodes = (
"476 674 LINE",
"462 682 OFFCURVE",
"440 684 OFFCURVE",
"416 684 CURVE",
"403 685 OFFCURVE",
"344 678 OFFCURVE",
"329 678 CURVE",
"308 675 LINE",
"307 633 OFFCURVE",
"306 587 OFFCURVE",
"306 543 CURVE SMOOTH",
"306 522 OFFCURVE",
"305 501 OFFCURVE",
"305 479 CURVE SMOOTH",
"304 384 OFFCURVE",
"303 282 OFFCURVE",
"299 188 CURVE",
"299 189 LINE",
"292 161 OFFCURVE",
"270 143 OFFCURVE",
"250 143 CURVE SMOOTH",
"232 143 OFFCURVE",
"214 157 OFFCURVE",
"206 184 CURVE",
"206 183 LINE",
"198 291 OFFCURVE",
"193 398 OFFCURVE",
"193 504 CURVE SMOOTH",
"193 561 OFFCURVE",
"195 620 OFFCURVE",
"197 676 CURVE",
"170 684 OFFCURVE",
"139 687 OFFCURVE",
"111 687 CURVE SMOOTH",
"68 686 OFFCURVE",
"59 685 OFFCURVE",
"51 685 CURVE SMOOTH",
"26 685 LINE",
"27 654 OFFCURVE",
"27 618 OFFCURVE",
"27 588 CURVE SMOOTH",
"27 540 OFFCURVE",
"26 484 OFFCURVE",
"25 431 CURVE SMOOTH",
"24 366 LINE SMOOTH",
"23 293 OFFCURVE",
"22 219 OFFCURVE",
"22 147 CURVE",
"27 32 OFFCURVE",
"149 -21 OFFCURVE",
"262 -21 CURVE SMOOTH",
"274 -21 OFFCURVE",
"286 -20 OFFCURVE",
"295 -19 CURVE",
"294 -19 LINE",
"397 -9 OFFCURVE",
"461 61 OFFCURVE",
"472 150 CURVE SMOOTH",
"484 258 OFFCURVE",
"489 367 OFFCURVE",
"489 476 CURVE SMOOTH",
"489 541 OFFCURVE",
"487 610 OFFCURVE",
"484 674 CURVE"
);
}
);
width = 505;
}
);
leftKerningGroup = U;
note = Uacute;
rightKerningGroup = U;
unicode = 00DA;
},
{
glyphname = Ucircumflex;
layers = (
{
hints = (
{
horizontal = 1;
place = "{-21, 164}";
type = Stem;
},
{
horizontal = 1;
place = "{684, 67}";
type = Stem;
},
{
horizontal = 1;
place = "{932, -20}";
target = down;
type = TopGhost;
},
{
place = "{26, 167}";
type = Stem;
},
{
place = "{306, 183}";
type = Stem;
},
{
place = "{26, 180}";
type = Stem;
}
);
layerId = "4AB56EE0-9DC5-4ACD-ABD7-6439ED5BAAD5";
paths = (
{
closed = 1;
nodes = (
"247 932 LINE",
"185 871 OFFCURVE",
"121 822 OFFCURVE",
"68 751 CURVE",
"121 747 LINE",
"146 742 OFFCURVE",
"176 743 OFFCURVE",
"200 747 CURVE",
"217 755 OFFCURVE",
"232 772 OFFCURVE",
"245 785 CURVE",
"258 769 OFFCURVE",
"270 748 OFFCURVE",
"292 746 CURVE",
"304 744 OFFCURVE",
"321 744 OFFCURVE",
"331 744 CURVE SMOOTH",
"358 744 OFFCURVE",
"396 742 OFFCURVE",
"413 759 CURVE"
);
},
{
closed = 1;
nodes = (
"476 674 LINE",
"462 682 OFFCURVE",
"440 684 OFFCURVE",
"416 684 CURVE",
"403 685 OFFCURVE",
"344 678 OFFCURVE",
"329 678 CURVE",
"308 675 LINE",
"307 633 OFFCURVE",
"306 587 OFFCURVE",
"306 543 CURVE SMOOTH",
"306 522 OFFCURVE",
"305 501 OFFCURVE",
"305 479 CURVE SMOOTH",
"304 384 OFFCURVE",
"303 282 OFFCURVE",
"299 188 CURVE",
"299 189 LINE",
"292 161 OFFCURVE",
"270 143 OFFCURVE",
"250 143 CURVE SMOOTH",
"232 143 OFFCURVE",
"214 157 OFFCURVE",
"206 184 CURVE",
"206 183 LINE",
"198 291 OFFCURVE",
"193 398 OFFCURVE",
"193 504 CURVE SMOOTH",
"193 561 OFFCURVE",
"195 620 OFFCURVE",
"197 676 CURVE",
"170 684 OFFCURVE",
"139 687 OFFCURVE",
"111 687 CURVE SMOOTH",
"68 686 OFFCURVE",
"59 685 OFFCURVE",
"51 685 CURVE SMOOTH",
"26 685 LINE",
"27 654 OFFCURVE",
"27 618 OFFCURVE",
"27 588 CURVE SMOOTH",
"27 540 OFFCURVE",
"26 484 OFFCURVE",
"25 431 CURVE SMOOTH",
"24 366 LINE SMOOTH",
"23 293 OFFCURVE",
"22 219 OFFCURVE",
"22 147 CURVE",
"27 32 OFFCURVE",
"149 -21 OFFCURVE",
"262 -21 CURVE SMOOTH",
"274 -21 OFFCURVE",
"286 -20 OFFCURVE",
"295 -19 CURVE",
"294 -19 LINE",
"397 -9 OFFCURVE",
"461 61 OFFCURVE",
"472 150 CURVE SMOOTH",
"484 258 OFFCURVE",
"489 367 OFFCURVE",
"489 476 CURVE SMOOTH",
"489 541 OFFCURVE",
"487 610 OFFCURVE",
"484 674 CURVE"
);
}
);
width = 505;
}
);
leftKerningGroup = U;
note = Ucircumflex;
rightKerningGroup = U;
unicode = 00DB;
},
{
glyphname = ugrave;
layers = (
{
hints = (
{
horizontal = 1;
place = "{-3, 21}";
target = up;
type = BottomGhost;
},
{
horizontal = 1;
place = "{507, -20}";
target = down;
type = TopGhost;
},
{
horizontal = 1;
place = "{767, -20}";
target = down;
type = TopGhost;
},
{
place = "{21, 155}";
type = Stem;
},
{
place = "{268, 162}";
type = Stem;
},
{
horizontal = 1;
place = "{0, 169}";
type = Stem;
}
);
layerId = "4AB56EE0-9DC5-4ACD-ABD7-6439ED5BAAD5";
paths = (
{
closed = 1;
nodes = (
"63 684 LINE",
"69 678 OFFCURVE",
"84 664 OFFCURVE",
"101 650 CURVE",
"100 650 LINE",
"107 644 LINE SMOOTH",
"131 622 OFFCURVE",
"157 598 OFFCURVE",
"168 583 CURVE",
"189 580 OFFCURVE",
"208 580 OFFCURVE",
"228 580 CURVE SMOOTH",
"266 580 OFFCURVE",
"310 584 OFFCURVE",
"330 589 CURVE",
"320 598 OFFCURVE",
"298 622 OFFCURVE",
"283 637 CURVE SMOOTH",
"263 657 LINE",
"263 656 LINE",
"229 691 OFFCURVE",
"187 735 OFFCURVE",
"145 767 CURVE"
);
},
{
closed = 1;
nodes = (
"269 -15 OFFCURVE",
"384 -1 OFFCURVE",
"404 -3 CURVE",
"428 -4 LINE",
"429 41 OFFCURVE",
"430 91 OFFCURVE",
"430 134 CURVE SMOOTH",
"430 201 OFFCURVE",
"429 266 OFFCURVE",
"428 331 CURVE SMOOTH",
"427 389 OFFCURVE",
"427 452 OFFCURVE",
"427 509 CURVE",
"405 507 OFFCURVE",
"393 507 OFFCURVE",
"382 507 CURVE SMOOTH",
"370 507 OFFCURVE",
"360 507 OFFCURVE",
"351 508 CURVE",
"328 509 OFFCURVE",
"311 509 OFFCURVE",
"273 499 CURVE",
"269 472 OFFCURVE",
"268 441 OFFCURVE",
"268 413 CURVE SMOOTH",
"268 345 OFFCURVE",
"278 284 OFFCURVE",
"272 225 CURVE SMOOTH",
"269 181 OFFCURVE",
"245 169 OFFCURVE",
"225 169 CURVE SMOOTH",
"215 169 OFFCURVE",
"207 171 OFFCURVE",
"203 173 CURVE",
"186 188 OFFCURVE",
"181 226 OFFCURVE",
"179 257 CURVE",
"179 285 OFFCURVE",
"176 313 OFFCURVE",
"176 391 CURVE SMOOTH",
"176 432 OFFCURVE",
"176 477 OFFCURVE",
"174 507 CURVE",
"127 507 LINE",
"100 508 OFFCURVE",
"59 507 OFFCURVE",
"19 501 CURVE",
"20 480 OFFCURVE",
"21 452 OFFCURVE",
"21 425 CURVE SMOOTH",
"21 393 OFFCURVE",
"20 358 OFFCURVE",
"19 322 CURVE SMOOTH",
"18 280 OFFCURVE",
"17 237 OFFCURVE",
"17 197 CURVE SMOOTH",
"17 117 OFFCURVE",
"23 52 OFFCURVE",
"45 32 CURVE SMOOTH",
"71 9 OFFCURVE",
"108 0 OFFCURVE",
"147 0 CURVE SMOOTH",
"190 0 OFFCURVE",
"234 14 OFFCURVE",
"265 35 CURVE",
"264 35 LINE",
"265 36 OFFCURVE",
"265 35 OFFCURVE",
"266 36 CURVE",
"266 35 LINE SMOOTH",
"266 26 OFFCURVE",
"266 13 OFFCURVE",
"268 0 CURVE"
);
}
);
width = 450;
}
);
leftKerningGroup = u;
note = ugrave;
rightKerningGroup = q;
unicode = 00F9;
},
{
glyphname = uacute;
layers = (
{
hints = (
{
horizontal = 1;
place = "{-3, 21}";
target = up;
type = BottomGhost;
},
{
horizontal = 1;
place = "{507, -20}";
target = down;
type = TopGhost;
},
{
horizontal = 1;
place = "{767, -20}";
target = down;
type = TopGhost;
},
{
place = "{21, 155}";
type = Stem;
},
{
place = "{268, 162}";
type = Stem;
},
{
horizontal = 1;
place = "{0, 169}";
type = Stem;
}
);
layerId = "4AB56EE0-9DC5-4ACD-ABD7-6439ED5BAAD5";
paths = (
{
closed = 1;
nodes = (
"392 682 LINE",
"311 767 LINE",
"273 736 OFFCURVE",
"231 694 OFFCURVE",
"194 656 CURVE SMOOTH",
"176 637 OFFCURVE",
"148 608 OFFCURVE",
"127 590 CURVE",
"147 584 OFFCURVE",
"193 580 OFFCURVE",
"229 580 CURVE SMOOTH",
"249 580 OFFCURVE",
"270 580 OFFCURVE",
"291 583 CURVE",
"301 603 OFFCURVE",
"333 631 OFFCURVE",
"358 652 CURVE SMOOTH"
);
},
{
closed = 1;
nodes = (
"269 -15 OFFCURVE",
"384 -1 OFFCURVE",
"404 -3 CURVE",
"428 -4 LINE",
"429 41 OFFCURVE",
"430 91 OFFCURVE",
"430 134 CURVE SMOOTH",
"430 201 OFFCURVE",
"429 266 OFFCURVE",
"428 331 CURVE SMOOTH",
"427 389 OFFCURVE",
"427 452 OFFCURVE",
"427 509 CURVE",
"405 507 OFFCURVE",
"393 507 OFFCURVE",
"382 507 CURVE SMOOTH",
"370 507 OFFCURVE",
"360 507 OFFCURVE",
"351 508 CURVE",
"328 509 OFFCURVE",
"311 509 OFFCURVE",
"273 499 CURVE",
"269 472 OFFCURVE",
"268 441 OFFCURVE",
"268 413 CURVE SMOOTH",
"268 345 OFFCURVE",
"278 284 OFFCURVE",
"272 225 CURVE SMOOTH",
"269 181 OFFCURVE",
"245 169 OFFCURVE",
"225 169 CURVE SMOOTH",
"215 169 OFFCURVE",
"207 171 OFFCURVE",
"203 173 CURVE",
"186 188 OFFCURVE",
"181 226 OFFCURVE",
"179 257 CURVE",
"179 285 OFFCURVE",
"176 313 OFFCURVE",
"176 391 CURVE SMOOTH",
"176 432 OFFCURVE",
"176 477 OFFCURVE",
"174 507 CURVE",
"127 507 LINE",
"100 508 OFFCURVE",
"59 507 OFFCURVE",
"19 501 CURVE",
"20 480 OFFCURVE",
"21 452 OFFCURVE",
"21 425 CURVE SMOOTH",
"21 393 OFFCURVE",
"20 358 OFFCURVE",
"19 322 CURVE SMOOTH",
"18 280 OFFCURVE",
"17 237 OFFCURVE",
"17 197 CURVE SMOOTH",
"17 117 OFFCURVE",
"23 52 OFFCURVE",
"45 32 CURVE SMOOTH",
"71 9 OFFCURVE",
"108 0 OFFCURVE",
"147 0 CURVE SMOOTH",
"190 0 OFFCURVE",
"234 14 OFFCURVE",
"265 35 CURVE",
"264 35 LINE",
"265 36 OFFCURVE",
"265 35 OFFCURVE",
"266 36 CURVE",
"266 35 LINE SMOOTH",
"266 26 OFFCURVE",
"266 13 OFFCURVE",
"268 0 CURVE"
);
}
);
width = 449;
}
);
leftKerningGroup = u;
note = uacute;
rightKerningGroup = q;
unicode = 00FA;
},
{
glyphname = ucircumflex;
layers = (
{
hints = (
{
horizontal = 1;
place = "{-3, 21}";
target = up;
type = BottomGhost;
},
{
horizontal = 1;
place = "{507, 81}";
type = Stem;
},
{
horizontal = 1;
place = "{769, -20}";
target = down;
type = TopGhost;
},
{
place = "{21, 155}";
type = Stem;
},
{
place = "{268, 162}";
type = Stem;
},
{
horizontal = 1;
place = "{0, 169}";
type = Stem;
}
);
layerId = "4AB56EE0-9DC5-4ACD-ABD7-6439ED5BAAD5";
paths = (
{
closed = 1;
nodes = (
"235 769 LINE",
"173 708 OFFCURVE",
"109 659 OFFCURVE",
"56 588 CURVE",
"109 584 LINE",
"134 579 OFFCURVE",
"164 580 OFFCURVE",
"188 584 CURVE",
"205 592 OFFCURVE",
"220 609 OFFCURVE",
"233 622 CURVE",
"246 606 OFFCURVE",
"258 585 OFFCURVE",
"280 583 CURVE",
"292 581 OFFCURVE",
"309 581 OFFCURVE",
"319 581 CURVE SMOOTH",
"346 581 OFFCURVE",
"384 579 OFFCURVE",
"401 596 CURVE"
);
},
{
closed = 1;
nodes = (
"269 -15 OFFCURVE",
"384 -1 OFFCURVE",
"404 -3 CURVE",
"428 -4 LINE",
"429 41 OFFCURVE",
"430 91 OFFCURVE",
"430 134 CURVE SMOOTH",
"430 201 OFFCURVE",
"429 266 OFFCURVE",
"428 331 CURVE SMOOTH",
"427 389 OFFCURVE",
"427 452 OFFCURVE",
"427 509 CURVE",
"405 507 OFFCURVE",
"393 507 OFFCURVE",
"382 507 CURVE SMOOTH",
"370 507 OFFCURVE",
"360 507 OFFCURVE",
"351 508 CURVE",
"328 509 OFFCURVE",
"311 509 OFFCURVE",
"273 499 CURVE",
"269 472 OFFCURVE",
"268 441 OFFCURVE",
"268 413 CURVE SMOOTH",
"268 345 OFFCURVE",
"278 284 OFFCURVE",
"272 225 CURVE SMOOTH",
"269 181 OFFCURVE",
"245 169 OFFCURVE",
"225 169 CURVE SMOOTH",
"215 169 OFFCURVE",
"207 171 OFFCURVE",
"203 173 CURVE",
"186 188 OFFCURVE",
"181 226 OFFCURVE",
"179 257 CURVE",
"179 285 OFFCURVE",
"176 313 OFFCURVE",
"176 391 CURVE SMOOTH",
"176 432 OFFCURVE",
"176 477 OFFCURVE",
"174 507 CURVE",
"127 507 LINE",
"100 508 OFFCURVE",
"59 507 OFFCURVE",
"19 501 CURVE",
"20 480 OFFCURVE",
"21 452 OFFCURVE",
"21 425 CURVE SMOOTH",
"21 393 OFFCURVE",
"20 358 OFFCURVE",
"19 322 CURVE SMOOTH",
"18 280 OFFCURVE",
"17 237 OFFCURVE",
"17 197 CURVE SMOOTH",
"17 117 OFFCURVE",
"23 52 OFFCURVE",
"45 32 CURVE SMOOTH",
"71 9 OFFCURVE",
"108 0 OFFCURVE",
"147 0 CURVE SMOOTH",
"190 0 OFFCURVE",
"234 14 OFFCURVE",
"265 35 CURVE",
"264 35 LINE",
"265 36 OFFCURVE",
"265 35 OFFCURVE",
"266 36 CURVE",
"266 35 LINE SMOOTH",
"266 26 OFFCURVE",
"266 13 OFFCURVE",
"268 0 CURVE"
);
}
);
width = 450;
}
);
leftKerningGroup = u;
note = ucircumflex;
rightKerningGroup = q;
unicode = 00FB;
},
{
glyphname = egrave;
layers = (
{
hints = (
{
horizontal = 1;
place = "{-15, 21}";
target = up;
type = BottomGhost;
},
{
horizontal = 1;
place = "{243, 91}";
type = Stem;
},
{
horizontal = 1;
place = "{520, 60}";
type = Stem;
},
{
horizontal = 1;
place = "{767, -20}";
target = down;
type = TopGhost;
},
{
place = "{281, 160}";
type = Stem;
},
{
place = "{171, 110}";
type = Stem;
},
{
horizontal = 1;
place = "{-18, 128}";
type = Stem;
},
{
horizontal = 1;
place = "{411, 109}";
type = Stem;
}
);
layerId = "4AB56EE0-9DC5-4ACD-ABD7-6439ED5BAAD5";
paths = (
{
closed = 1;
nodes = (
"77 684 LINE",
"83 678 OFFCURVE",
"98 664 OFFCURVE",
"115 650 CURVE",
"114 650 LINE",
"121 644 LINE SMOOTH",
"145 622 OFFCURVE",
"171 598 OFFCURVE",
"182 583 CURVE",
"203 580 OFFCURVE",
"222 580 OFFCURVE",
"242 580 CURVE SMOOTH",
"280 580 OFFCURVE",
"324 584 OFFCURVE",
"344 589 CURVE",
"334 598 OFFCURVE",
"312 622 OFFCURVE",
"297 637 CURVE SMOOTH",
"277 657 LINE",
"277 656 LINE",
"243 691 OFFCURVE",
"201 735 OFFCURVE",
"159 767 CURVE"
);
},
{
closed = 1;
nodes = (
"171 243 LINE",
"225 243 LINE SMOOTH",
"303 243 OFFCURVE",
"414 250 OFFCURVE",
"439 257 CURVE",
"440 273 OFFCURVE",
"441 289 OFFCURVE",
"441 302 CURVE SMOOTH",
"441 399 OFFCURVE",
"403 490 OFFCURVE",
"293 512 CURVE",
"272 517 OFFCURVE",
"247 520 OFFCURVE",
"223 520 CURVE SMOOTH",
"139 520 OFFCURVE",
"57 488 OFFCURVE",
"29 425 CURVE",
"-13 301 OFFCURVE",
"-5 90 OFFCURVE",
"99 7 CURVE",
"118 -4 OFFCURVE",
"139 -12 OFFCURVE",
"161 -15 CURVE",
"175 -15 OFFCURVE",
"192 -15 OFFCURVE",
"208 -16 CURVE SMOOTH",
"225 -17 OFFCURVE",
"243 -18 OFFCURVE",
"261 -18 CURVE SMOOTH",
"319 -18 OFFCURVE",
"377 -9 OFFCURVE",
"406 31 CURVE SMOOTH",
"433 68 OFFCURVE",
"437 151 OFFCURVE",
"437 192 CURVE",
"343 197 LINE",
"326 196 OFFCURVE",
"303 196 OFFCURVE",
"281 199 CURVE",
"284 136 OFFCURVE",
"261 110 OFFCURVE",
"236 110 CURVE SMOOTH",
"217 110 OFFCURVE",
"199 121 OFFCURVE",
"188 141 CURVE",
"172 166 OFFCURVE",
"172 187 OFFCURVE",
"171 222 CURVE"
);
},
{
closed = 1;
nodes = (
"273 401 LINE",
"291 392 OFFCURVE",
"301 369 OFFCURVE",
"301 341 CURVE SMOOTH",
"301 337 LINE SMOOTH",
"301 332 OFFCURVE",
"301 332 OFFCURVE",
"296 333 CURVE",
"283 333 LINE SMOOTH",
"275 333 OFFCURVE",
"265 334 OFFCURVE",
"253 334 CURVE SMOOTH",
"209 334 LINE SMOOTH",
"170 333 OFFCURVE",
"171 333 OFFCURVE",
"174 350 CURVE",
"178 384 OFFCURVE",
"191 411 OFFCURVE",
"242 411 CURVE SMOOTH",
"252 411 OFFCURVE",
"259 408 OFFCURVE",
"269 402 CURVE"
);
}
);
width = 444;
}
);
leftKerningGroup = egrave;
note = egrave;
rightKerningGroup = egrave;
unicode = 00E8;
},
{
glyphname = eacute;
layers = (
{
hints = (
{
horizontal = 1;
place = "{-15, 21}";
target = up;
type = BottomGhost;
},
{
horizontal = 1;
place = "{243, 91}";
type = Stem;
},
{
horizontal = 1;
place = "{520, 60}";
type = Stem;
},
{
horizontal = 1;
place = "{767, -20}";
target = down;
type = TopGhost;
},
{
place = "{281, 160}";
type = Stem;
},
{
place = "{171, 110}";
type = Stem;
},
{
horizontal = 1;
place = "{-18, 128}";
type = Stem;
},
{
horizontal = 1;
place = "{411, 109}";
type = Stem;
}
);
layerId = "4AB56EE0-9DC5-4ACD-ABD7-6439ED5BAAD5";
paths = (
{
closed = 1;
nodes = (
"393 682 LINE",
"312 767 LINE",
"274 736 OFFCURVE",
"232 694 OFFCURVE",
"195 656 CURVE SMOOTH",
"177 637 OFFCURVE",
"149 608 OFFCURVE",
"128 590 CURVE",
"148 584 OFFCURVE",
"194 580 OFFCURVE",
"230 580 CURVE SMOOTH",
"250 580 OFFCURVE",
"271 580 OFFCURVE",
"292 583 CURVE",
"302 603 OFFCURVE",
"334 631 OFFCURVE",
"359 652 CURVE SMOOTH"
);
},
{
closed = 1;
nodes = (
"171 243 LINE",
"225 243 LINE SMOOTH",
"303 243 OFFCURVE",
"414 250 OFFCURVE",
"439 257 CURVE",
"440 273 OFFCURVE",
"441 289 OFFCURVE",
"441 302 CURVE SMOOTH",
"441 399 OFFCURVE",
"403 490 OFFCURVE",
"293 512 CURVE",
"272 517 OFFCURVE",
"247 520 OFFCURVE",
"223 520 CURVE SMOOTH",
"139 520 OFFCURVE",
"57 488 OFFCURVE",
"29 425 CURVE",
"-13 301 OFFCURVE",
"-5 90 OFFCURVE",
"99 7 CURVE",
"118 -4 OFFCURVE",
"139 -12 OFFCURVE",
"161 -15 CURVE",
"175 -15 OFFCURVE",
"192 -15 OFFCURVE",
"208 -16 CURVE SMOOTH",
"225 -17 OFFCURVE",
"243 -18 OFFCURVE",
"261 -18 CURVE SMOOTH",
"319 -18 OFFCURVE",
"377 -9 OFFCURVE",
"406 31 CURVE SMOOTH",
"433 68 OFFCURVE",
"437 151 OFFCURVE",
"437 192 CURVE",
"343 197 LINE",
"326 196 OFFCURVE",
"303 196 OFFCURVE",
"281 199 CURVE",
"284 136 OFFCURVE",
"261 110 OFFCURVE",
"236 110 CURVE SMOOTH",
"217 110 OFFCURVE",
"199 121 OFFCURVE",
"188 141 CURVE",
"172 166 OFFCURVE",
"172 187 OFFCURVE",
"171 222 CURVE"
);
},
{
closed = 1;
nodes = (
"273 401 LINE",
"291 392 OFFCURVE",
"301 369 OFFCURVE",
"301 341 CURVE SMOOTH",
"301 337 LINE SMOOTH",
"301 332 OFFCURVE",
"301 332 OFFCURVE",
"296 333 CURVE",
"283 333 LINE SMOOTH",
"275 333 OFFCURVE",
"265 334 OFFCURVE",
"253 334 CURVE SMOOTH",
"209 334 LINE SMOOTH",
"170 333 OFFCURVE",
"171 333 OFFCURVE",
"174 350 CURVE",
"178 384 OFFCURVE",
"191 411 OFFCURVE",
"242 411 CURVE SMOOTH",
"252 411 OFFCURVE",
"259 408 OFFCURVE",
"269 402 CURVE"
);
}
);
width = 444;
}
);
leftKerningGroup = egrave;
note = eacute;
rightKerningGroup = egrave;
unicode = 00E9;
},
{
glyphname = ecircumflex;
layers = (
{
hints = (
{
horizontal = 1;
place = "{-15, 21}";
target = up;
type = BottomGhost;
},
{
horizontal = 1;
place = "{243, 91}";
type = Stem;
},
{
horizontal = 1;
place = "{520, 68}";
type = Stem;
},
{
horizontal = 1;
place = "{769, -20}";
target = down;
type = TopGhost;
},
{
place = "{281, 160}";
type = Stem;
},
{
place = "{171, 110}";
type = Stem;
},
{
horizontal = 1;
place = "{-18, 128}";
type = Stem;
},
{
horizontal = 1;
place = "{411, 109}";
type = Stem;
}
);
layerId = "4AB56EE0-9DC5-4ACD-ABD7-6439ED5BAAD5";
paths = (
{
closed = 1;
nodes = (
"235 769 LINE",
"173 708 OFFCURVE",
"109 659 OFFCURVE",
"56 588 CURVE",
"109 584 LINE",
"134 579 OFFCURVE",
"164 580 OFFCURVE",
"188 584 CURVE",
"205 592 OFFCURVE",
"220 609 OFFCURVE",
"233 622 CURVE",
"246 606 OFFCURVE",
"258 585 OFFCURVE",
"280 583 CURVE",
"292 581 OFFCURVE",
"309 581 OFFCURVE",
"319 581 CURVE SMOOTH",
"346 581 OFFCURVE",
"384 579 OFFCURVE",
"401 596 CURVE"
);
},
{
closed = 1;
nodes = (
"171 243 LINE",
"225 243 LINE SMOOTH",
"303 243 OFFCURVE",
"414 250 OFFCURVE",
"439 257 CURVE",
"440 273 OFFCURVE",
"441 289 OFFCURVE",
"441 302 CURVE SMOOTH",
"441 399 OFFCURVE",
"403 490 OFFCURVE",
"293 512 CURVE",
"272 517 OFFCURVE",
"247 520 OFFCURVE",
"223 520 CURVE SMOOTH",
"139 520 OFFCURVE",
"57 488 OFFCURVE",
"29 425 CURVE",
"-13 301 OFFCURVE",
"-5 90 OFFCURVE",
"99 7 CURVE",
"118 -4 OFFCURVE",
"139 -12 OFFCURVE",
"161 -15 CURVE",
"175 -15 OFFCURVE",
"192 -15 OFFCURVE",
"208 -16 CURVE SMOOTH",
"225 -17 OFFCURVE",
"243 -18 OFFCURVE",
"261 -18 CURVE SMOOTH",
"319 -18 OFFCURVE",
"377 -9 OFFCURVE",
"406 31 CURVE SMOOTH",
"433 68 OFFCURVE",
"437 151 OFFCURVE",
"437 192 CURVE",
"343 197 LINE",
"326 196 OFFCURVE",
"303 196 OFFCURVE",
"281 199 CURVE",
"284 136 OFFCURVE",
"261 110 OFFCURVE",
"236 110 CURVE SMOOTH",
"217 110 OFFCURVE",
"199 121 OFFCURVE",
"188 141 CURVE",
"172 166 OFFCURVE",
"172 187 OFFCURVE",
"171 222 CURVE"
);
},
{
closed = 1;
nodes = (
"273 401 LINE",
"291 392 OFFCURVE",
"301 369 OFFCURVE",
"301 341 CURVE SMOOTH",
"301 337 LINE SMOOTH",
"301 332 OFFCURVE",
"301 332 OFFCURVE",
"296 333 CURVE",
"283 333 LINE SMOOTH",
"275 333 OFFCURVE",
"265 334 OFFCURVE",
"253 334 CURVE SMOOTH",
"209 334 LINE SMOOTH",
"170 333 OFFCURVE",
"171 333 OFFCURVE",
"174 350 CURVE",
"178 384 OFFCURVE",
"191 411 OFFCURVE",
"242 411 CURVE SMOOTH",
"252 411 OFFCURVE",
"259 408 OFFCURVE",
"269 402 CURVE"
);
}
);
width = 444;
}
);
leftKerningGroup = egrave;
note = ecircumflex;
rightKerningGroup = egrave;
unicode = 00EA;
},
{
glyphname = igrave;
layers = (
{
hints = (
{
horizontal = 1;
place = "{-11, 21}";
target = up;
type = BottomGhost;
},
{
horizontal = 1;
place = "{508, 72}";
type = Stem;
},
{
horizontal = 1;
place = "{767, -20}";
target = down;
type = TopGhost;
},
{
place = "{18, 167}";
type = Stem;
},
{
horizontal = 1;
place = "{-6, 21}";
target = up;
type = BottomGhost;
}
);
layerId = "4AB56EE0-9DC5-4ACD-ABD7-6439ED5BAAD5";
paths = (
{
closed = 1;
nodes = (
"-71 684 LINE",
"-65 678 OFFCURVE",
"-50 664 OFFCURVE",
"-33 650 CURVE",
"-34 650 LINE",
"-27 644 LINE SMOOTH",
"-3 622 OFFCURVE",
"23 598 OFFCURVE",
"34 583 CURVE",
"55 580 OFFCURVE",
"74 580 OFFCURVE",
"94 580 CURVE SMOOTH",
"132 580 OFFCURVE",
"176 584 OFFCURVE",
"196 589 CURVE",
"186 598 OFFCURVE",
"164 622 OFFCURVE",
"149 637 CURVE SMOOTH",
"129 657 LINE",
"129 656 LINE",
"95 691 OFFCURVE",
"53 735 OFFCURVE",
"11 767 CURVE"
);
},
{
closed = 1;
nodes = (
"159 508 LINE",
"115 507 OFFCURVE",
"84 509 OFFCURVE",
"62 510 CURVE",
"50 512 OFFCURVE",
"36 511 OFFCURVE",
"24 509 CURVE",
"20 463 OFFCURVE",
"18 416 OFFCURVE",
"18 366 CURVE SMOOTH",
"18 333 OFFCURVE",
"19 282 OFFCURVE",
"20 248 CURVE SMOOTH",
"21 207 OFFCURVE",
"22 166 OFFCURVE",
"22 124 CURVE SMOOTH",
"22 82 OFFCURVE",
"20 29 OFFCURVE",
"17 -11 CURVE",
"40 -4 OFFCURVE",
"64 -4 OFFCURVE",
"83 -5 CURVE SMOOTH",
"95 -6 OFFCURVE",
"113 -6 OFFCURVE",
"126 -6 CURVE SMOOTH",
"156 -6 OFFCURVE",
"181 -5 OFFCURVE",
"189 6 CURVE",
"186 55 OFFCURVE",
"185 106 OFFCURVE",
"185 157 CURVE SMOOTH",
"185 200 OFFCURVE",
"186 249 OFFCURVE",
"187 295 CURVE SMOOTH",
"188 351 LINE SMOOTH",
"189 401 OFFCURVE",
"190 454 OFFCURVE",
"190 503 CURVE"
);
}
);
width = 207;
}
);
note = igrave;
unicode = 00EC;
},
{
glyphname = iacute;
layers = (
{
hints = (
{
horizontal = 1;
place = "{-11, 21}";
target = up;
type = BottomGhost;
},
{
horizontal = 1;
place = "{508, 72}";
type = Stem;
},
{
horizontal = 1;
place = "{767, -20}";
target = down;
type = TopGhost;
},
{
place = "{18, 167}";
type = Stem;
},
{
horizontal = 1;
place = "{-6, 21}";
target = up;
type = BottomGhost;
}
);
layerId = "4AB56EE0-9DC5-4ACD-ABD7-6439ED5BAAD5";
paths = (
{
closed = 1;
nodes = (
"276 682 LINE",
"195 767 LINE",
"157 736 OFFCURVE",
"115 694 OFFCURVE",
"78 656 CURVE SMOOTH",
"60 637 OFFCURVE",
"32 608 OFFCURVE",
"11 590 CURVE",
"31 584 OFFCURVE",
"77 580 OFFCURVE",
"113 580 CURVE SMOOTH",
"133 580 OFFCURVE",
"154 580 OFFCURVE",
"175 583 CURVE",
"185 603 OFFCURVE",
"217 631 OFFCURVE",
"242 652 CURVE SMOOTH"
);
},
{
closed = 1;
nodes = (
"159 508 LINE",
"115 507 OFFCURVE",
"84 509 OFFCURVE",
"62 510 CURVE",
"50 512 OFFCURVE",
"36 511 OFFCURVE",
"24 509 CURVE",
"20 463 OFFCURVE",
"18 416 OFFCURVE",
"18 366 CURVE SMOOTH",
"18 333 OFFCURVE",
"19 282 OFFCURVE",
"20 248 CURVE SMOOTH",
"21 207 OFFCURVE",
"22 166 OFFCURVE",
"22 124 CURVE SMOOTH",
"22 82 OFFCURVE",
"20 29 OFFCURVE",
"17 -11 CURVE",
"40 -4 OFFCURVE",
"64 -4 OFFCURVE",
"83 -5 CURVE SMOOTH",
"95 -6 OFFCURVE",
"113 -6 OFFCURVE",
"126 -6 CURVE SMOOTH",
"156 -6 OFFCURVE",
"181 -5 OFFCURVE",
"189 6 CURVE",
"186 55 OFFCURVE",
"185 106 OFFCURVE",
"185 157 CURVE SMOOTH",
"185 200 OFFCURVE",
"186 249 OFFCURVE",
"187 295 CURVE SMOOTH",
"188 351 LINE SMOOTH",
"189 401 OFFCURVE",
"190 454 OFFCURVE",
"190 503 CURVE"
);
}
);
width = 207;
}
);
note = iacute;
unicode = 00ED;
},
{
glyphname = icircumflex;
layers = (
{
hints = (
{
horizontal = 1;
place = "{-11, 21}";
target = up;
type = BottomGhost;
},
{
horizontal = 1;
place = "{769, -20}";
target = down;
type = TopGhost;
},
{
place = "{18, 167}";
type = Stem;
},
{
horizontal = 1;
place = "{-6, 21}";
target = up;
type = BottomGhost;
}
);
layerId = "4AB56EE0-9DC5-4ACD-ABD7-6439ED5BAAD5";
paths = (
{
closed = 1;
nodes = (
"107 769 LINE",
"45 708 OFFCURVE",
"-19 659 OFFCURVE",
"-72 588 CURVE",
"-19 584 LINE",
"6 579 OFFCURVE",
"36 580 OFFCURVE",
"60 584 CURVE",
"77 592 OFFCURVE",
"92 609 OFFCURVE",
"105 622 CURVE",
"118 606 OFFCURVE",
"130 585 OFFCURVE",
"152 583 CURVE",
"164 581 OFFCURVE",
"181 581 OFFCURVE",
"191 581 CURVE SMOOTH",
"218 581 OFFCURVE",
"256 579 OFFCURVE",
"273 596 CURVE"
);
},
{
closed = 1;
nodes = (
"159 508 LINE",
"115 507 OFFCURVE",
"84 509 OFFCURVE",
"62 510 CURVE",
"50 512 OFFCURVE",
"36 511 OFFCURVE",
"24 509 CURVE",
"20 463 OFFCURVE",
"18 416 OFFCURVE",
"18 366 CURVE SMOOTH",
"18 333 OFFCURVE",
"19 282 OFFCURVE",
"20 248 CURVE SMOOTH",
"21 207 OFFCURVE",
"22 166 OFFCURVE",
"22 124 CURVE SMOOTH",
"22 82 OFFCURVE",
"20 29 OFFCURVE",
"17 -11 CURVE",
"40 -4 OFFCURVE",
"64 -4 OFFCURVE",
"83 -5 CURVE SMOOTH",
"95 -6 OFFCURVE",
"113 -6 OFFCURVE",
"126 -6 CURVE SMOOTH",
"156 -6 OFFCURVE",
"181 -5 OFFCURVE",
"189 6 CURVE",
"186 55 OFFCURVE",
"185 106 OFFCURVE",
"185 157 CURVE SMOOTH",
"185 200 OFFCURVE",
"186 249 OFFCURVE",
"187 295 CURVE SMOOTH",
"188 351 LINE SMOOTH",
"189 401 OFFCURVE",
"190 454 OFFCURVE",
"190 503 CURVE"
);
}
);
width = 207;
}
);
note = icircumflex;
unicode = 00EE;
},
{
glyphname = Ograve;
layers = (
{
hints = (
{
horizontal = 1;
place = "{-19, 21}";
target = up;
type = BottomGhost;
},
{
horizontal = 1;
place = "{706, 37}";
type = Stem;
},
{
horizontal = 1;
place = "{930, -20}";
target = down;
type = TopGhost;
},
{
place = "{16, 144}";
type = Stem;
},
{
place = "{315, 153}";
type = Stem;
}
);
layerId = "4AB56EE0-9DC5-4ACD-ABD7-6439ED5BAAD5";
paths = (
{
closed = 1;
nodes = (
"51 847 LINE",
"57 841 OFFCURVE",
"72 827 OFFCURVE",
"89 813 CURVE",
"88 813 LINE",
"95 807 LINE SMOOTH",
"119 785 OFFCURVE",
"145 761 OFFCURVE",
"156 746 CURVE",
"177 743 OFFCURVE",
"196 743 OFFCURVE",
"216 743 CURVE SMOOTH",
"254 743 OFFCURVE",
"298 747 OFFCURVE",
"318 752 CURVE",
"308 761 OFFCURVE",
"286 785 OFFCURVE",
"271 800 CURVE SMOOTH",
"251 820 LINE",
"251 819 LINE",
"217 854 OFFCURVE",
"175 898 OFFCURVE",
"133 930 CURVE"
);
},
{
closed = 1;
nodes = (
"444 614 OFFCURVE",
"428 636 OFFCURVE",
"405 657 CURVE",
"362 690 OFFCURVE",
"302 706 OFFCURVE",
"240 706 CURVE SMOOTH",
"190 706 OFFCURVE",
"141 695 OFFCURVE",
"100 675 CURVE SMOOTH",
"81 665 OFFCURVE",
"79 664 OFFCURVE",
"78 663 CURVE",
"34 611 OFFCURVE",
"19 539 OFFCURVE",
"16 482 CURVE SMOOTH",
"14 451 OFFCURVE",
"13 421 OFFCURVE",
"13 390 CURVE SMOOTH",
"13 342 OFFCURVE",
"15 282 OFFCURVE",
"18 233 CURVE",
"18 227 OFFCURVE",
"18 208 OFFCURVE",
"19 200 CURVE",
"19 193 OFFCURVE",
"20 177 OFFCURVE",
"21 168 CURVE",
"22 134 OFFCURVE",
"29 89 OFFCURVE",
"47 55 CURVE SMOOTH",
"73 6 OFFCURVE",
"134 -13 OFFCURVE",
"191 -18 CURVE SMOOTH",
"200 -19 OFFCURVE",
"214 -19 OFFCURVE",
"223 -19 CURVE SMOOTH",
"254 -19 OFFCURVE",
"283 -16 OFFCURVE",
"310 -8 CURVE SMOOTH",
"353 4 OFFCURVE",
"400 25 OFFCURVE",
"421 55 CURVE",
"448 98 OFFCURVE",
"459 147 OFFCURVE",
"462 193 CURVE SMOOTH",
"465 226 LINE SMOOTH",
"468 263 OFFCURVE",
"468 298 OFFCURVE",
"468 334 CURVE SMOOTH",
"468 366 OFFCURVE",
"468 398 OFFCURVE",
"470 431 CURVE",
"470 449 LINE SMOOTH",
"470 455 OFFCURVE",
"471 461 OFFCURVE",
"471 467 CURVE SMOOTH",
"471 488 OFFCURVE",
"470 509 OFFCURVE",
"468 530 CURVE",
"465 551 OFFCURVE",
"460 571 OFFCURVE",
"451 594 CURVE"
);
},
{
closed = 1;
nodes = (
"313 416 LINE",
"315 348 LINE",
"315 300 LINE SMOOTH",
"315 294 OFFCURVE",
"314 288 OFFCURVE",
"314 281 CURVE SMOOTH",
"314 267 LINE SMOOTH",
"314 261 OFFCURVE",
"313 255 OFFCURVE",
"313 248 CURVE SMOOTH",
"313 244 OFFCURVE",
"312 238 OFFCURVE",
"312 235 CURVE",
"311 227 OFFCURVE",
"311 215 OFFCURVE",
"311 210 CURVE SMOOTH",
"311 187 OFFCURVE",
"310 178 OFFCURVE",
"296 160 CURVE",
"279 141 OFFCURVE",
"256 131 OFFCURVE",
"235 131 CURVE SMOOTH",
"210 131 OFFCURVE",
"184 145 OFFCURVE",
"171 172 CURVE",
"171 171 LINE",
"164 195 OFFCURVE",
"162 220 OFFCURVE",
"160 245 CURVE",
"160 250 OFFCURVE",
"159 254 OFFCURVE",
"159 259 CURVE",
"158 275 OFFCURVE",
"156 297 OFFCURVE",
"153 312 CURVE",
"153 311 LINE",
"152 328 OFFCURVE",
"152 345 OFFCURVE",
"152 362 CURVE SMOOTH",
"152 400 OFFCURVE",
"154 439 OFFCURVE",
"162 474 CURVE",
"170 500 OFFCURVE",
"187 527 OFFCURVE",
"203 540 CURVE",
"221 552 OFFCURVE",
"247 561 OFFCURVE",
"266 553 CURVE",
"291 541 OFFCURVE",
"306 510 OFFCURVE",
"309 473 CURVE SMOOTH",
"313 421 LINE"
);
}
);
width = 485;
}
);
leftKerningGroup = G;
note = Ograve;
rightKerningGroup = O;
unicode = 00D2;
},
{
glyphname = Oacute;
layers = (
{
hints = (
{
horizontal = 1;
place = "{-19, 21}";
target = up;
type = BottomGhost;
},
{
horizontal = 1;
place = "{706, 37}";
type = Stem;
},
{
horizontal = 1;
place = "{930, -20}";
target = down;
type = TopGhost;
},
{
place = "{16, 144}";
type = Stem;
},
{
place = "{315, 153}";
type = Stem;
}
);
layerId = "4AB56EE0-9DC5-4ACD-ABD7-6439ED5BAAD5";
paths = (
{
closed = 1;
nodes = (
"415 845 LINE",
"334 930 LINE",
"296 899 OFFCURVE",
"254 857 OFFCURVE",
"217 819 CURVE SMOOTH",
"199 800 OFFCURVE",
"171 771 OFFCURVE",
"150 753 CURVE",
"170 747 OFFCURVE",
"216 743 OFFCURVE",
"252 743 CURVE SMOOTH",
"272 743 OFFCURVE",
"293 743 OFFCURVE",
"314 746 CURVE",
"324 766 OFFCURVE",
"356 794 OFFCURVE",
"381 815 CURVE SMOOTH"
);
},
{
closed = 1;
nodes = (
"444 614 OFFCURVE",
"428 636 OFFCURVE",
"405 657 CURVE",
"362 690 OFFCURVE",
"302 706 OFFCURVE",
"240 706 CURVE SMOOTH",
"190 706 OFFCURVE",
"141 695 OFFCURVE",
"100 675 CURVE SMOOTH",
"81 665 OFFCURVE",
"79 664 OFFCURVE",
"78 663 CURVE",
"34 611 OFFCURVE",
"19 539 OFFCURVE",
"16 482 CURVE SMOOTH",
"14 451 OFFCURVE",
"13 421 OFFCURVE",
"13 390 CURVE SMOOTH",
"13 342 OFFCURVE",
"15 282 OFFCURVE",
"18 233 CURVE",
"18 227 OFFCURVE",
"18 208 OFFCURVE",
"19 200 CURVE",
"19 193 OFFCURVE",
"20 177 OFFCURVE",
"21 168 CURVE",
"22 134 OFFCURVE",
"29 89 OFFCURVE",
"47 55 CURVE SMOOTH",
"73 6 OFFCURVE",
"134 -13 OFFCURVE",
"191 -18 CURVE SMOOTH",
"200 -19 OFFCURVE",
"214 -19 OFFCURVE",
"223 -19 CURVE SMOOTH",
"254 -19 OFFCURVE",
"283 -16 OFFCURVE",
"310 -8 CURVE SMOOTH",
"353 4 OFFCURVE",
"400 25 OFFCURVE",
"421 55 CURVE",
"448 98 OFFCURVE",
"459 147 OFFCURVE",
"462 193 CURVE SMOOTH",
"465 226 LINE SMOOTH",
"468 263 OFFCURVE",
"468 298 OFFCURVE",
"468 334 CURVE SMOOTH",
"468 366 OFFCURVE",
"468 398 OFFCURVE",
"470 431 CURVE",
"470 449 LINE SMOOTH",
"470 455 OFFCURVE",
"471 461 OFFCURVE",
"471 467 CURVE SMOOTH",
"471 488 OFFCURVE",
"470 509 OFFCURVE",
"468 530 CURVE",
"465 551 OFFCURVE",
"460 571 OFFCURVE",
"451 594 CURVE"
);
},
{
closed = 1;
nodes = (
"313 416 LINE",
"315 348 LINE",
"315 300 LINE SMOOTH",
"315 294 OFFCURVE",
"314 288 OFFCURVE",
"314 281 CURVE SMOOTH",
"314 267 LINE SMOOTH",
"314 261 OFFCURVE",
"313 255 OFFCURVE",
"313 248 CURVE SMOOTH",
"313 244 OFFCURVE",
"312 238 OFFCURVE",
"312 235 CURVE",
"311 227 OFFCURVE",
"311 215 OFFCURVE",
"311 210 CURVE SMOOTH",
"311 187 OFFCURVE",
"310 178 OFFCURVE",
"296 160 CURVE",
"279 141 OFFCURVE",
"256 131 OFFCURVE",
"235 131 CURVE SMOOTH",
"210 131 OFFCURVE",
"184 145 OFFCURVE",
"171 172 CURVE",
"171 171 LINE",
"164 195 OFFCURVE",
"162 220 OFFCURVE",
"160 245 CURVE",
"160 250 OFFCURVE",
"159 254 OFFCURVE",
"159 259 CURVE",
"158 275 OFFCURVE",
"156 297 OFFCURVE",
"153 312 CURVE",
"153 311 LINE",
"152 328 OFFCURVE",
"152 345 OFFCURVE",
"152 362 CURVE SMOOTH",
"152 400 OFFCURVE",
"154 439 OFFCURVE",
"162 474 CURVE",
"170 500 OFFCURVE",
"187 527 OFFCURVE",
"203 540 CURVE",
"221 552 OFFCURVE",
"247 561 OFFCURVE",
"266 553 CURVE",
"291 541 OFFCURVE",
"306 510 OFFCURVE",
"309 473 CURVE SMOOTH",
"313 421 LINE"
);
}
);
width = 485;
}
);
leftKerningGroup = G;
note = Oacute;
rightKerningGroup = O;
unicode = 00D3;
},
{
glyphname = Ocircumflex;
layers = (
{
hints = (
{
horizontal = 1;
place = "{-19, 21}";
target = up;
type = BottomGhost;
},
{
horizontal = 1;
place = "{706, 45}";
type = Stem;
},
{
horizontal = 1;
place = "{932, -20}";
target = down;
type = TopGhost;
},
{
place = "{16, 144}";
type = Stem;
},
{
place = "{315, 153}";
type = Stem;
}
);
layerId = "4AB56EE0-9DC5-4ACD-ABD7-6439ED5BAAD5";
paths = (
{
closed = 1;
nodes = (
"247 932 LINE",
"185 871 OFFCURVE",
"121 822 OFFCURVE",
"68 751 CURVE",
"121 747 LINE",
"146 742 OFFCURVE",
"176 743 OFFCURVE",
"200 747 CURVE",
"217 755 OFFCURVE",
"232 772 OFFCURVE",
"245 785 CURVE",
"258 769 OFFCURVE",
"270 748 OFFCURVE",
"292 746 CURVE",
"304 744 OFFCURVE",
"321 744 OFFCURVE",
"331 744 CURVE SMOOTH",
"358 744 OFFCURVE",
"396 742 OFFCURVE",
"413 759 CURVE"
);
},
{
closed = 1;
nodes = (
"444 614 OFFCURVE",
"428 636 OFFCURVE",
"405 657 CURVE",
"362 690 OFFCURVE",
"302 706 OFFCURVE",
"240 706 CURVE SMOOTH",
"190 706 OFFCURVE",
"141 695 OFFCURVE",
"100 675 CURVE SMOOTH",
"81 665 OFFCURVE",
"79 664 OFFCURVE",
"78 663 CURVE",
"34 611 OFFCURVE",
"19 539 OFFCURVE",
"16 482 CURVE SMOOTH",
"14 451 OFFCURVE",
"13 421 OFFCURVE",
"13 390 CURVE SMOOTH",
"13 342 OFFCURVE",
"15 282 OFFCURVE",
"18 233 CURVE",
"18 227 OFFCURVE",
"18 208 OFFCURVE",
"19 200 CURVE",
"19 193 OFFCURVE",
"20 177 OFFCURVE",
"21 168 CURVE",
"22 134 OFFCURVE",
"29 89 OFFCURVE",
"47 55 CURVE SMOOTH",
"73 6 OFFCURVE",
"134 -13 OFFCURVE",
"191 -18 CURVE SMOOTH",
"200 -19 OFFCURVE",
"214 -19 OFFCURVE",
"223 -19 CURVE SMOOTH",
"254 -19 OFFCURVE",
"283 -16 OFFCURVE",
"310 -8 CURVE SMOOTH",
"353 4 OFFCURVE",
"400 25 OFFCURVE",
"421 55 CURVE",
"448 98 OFFCURVE",
"459 147 OFFCURVE",
"462 193 CURVE SMOOTH",
"465 226 LINE SMOOTH",
"468 263 OFFCURVE",
"468 298 OFFCURVE",
"468 334 CURVE SMOOTH",
"468 366 OFFCURVE",
"468 398 OFFCURVE",
"470 431 CURVE",
"470 449 LINE SMOOTH",
"470 455 OFFCURVE",
"471 461 OFFCURVE",
"471 467 CURVE SMOOTH",
"471 488 OFFCURVE",
"470 509 OFFCURVE",
"468 530 CURVE",
"465 551 OFFCURVE",
"460 571 OFFCURVE",
"451 594 CURVE"
);
},
{
closed = 1;
nodes = (
"313 416 LINE",
"315 348 LINE",
"315 300 LINE SMOOTH",
"315 294 OFFCURVE",
"314 288 OFFCURVE",
"314 281 CURVE SMOOTH",
"314 267 LINE SMOOTH",
"314 261 OFFCURVE",
"313 255 OFFCURVE",
"313 248 CURVE SMOOTH",
"313 244 OFFCURVE",
"312 238 OFFCURVE",
"312 235 CURVE",
"311 227 OFFCURVE",
"311 215 OFFCURVE",
"311 210 CURVE SMOOTH",
"311 187 OFFCURVE",
"310 178 OFFCURVE",
"296 160 CURVE",
"279 141 OFFCURVE",
"256 131 OFFCURVE",
"235 131 CURVE SMOOTH",
"210 131 OFFCURVE",
"184 145 OFFCURVE",
"171 172 CURVE",
"171 171 LINE",
"164 195 OFFCURVE",
"162 220 OFFCURVE",
"160 245 CURVE",
"160 250 OFFCURVE",
"159 254 OFFCURVE",
"159 259 CURVE",
"158 275 OFFCURVE",
"156 297 OFFCURVE",
"153 312 CURVE",
"153 311 LINE",
"152 328 OFFCURVE",
"152 345 OFFCURVE",
"152 362 CURVE SMOOTH",
"152 400 OFFCURVE",
"154 439 OFFCURVE",
"162 474 CURVE",
"170 500 OFFCURVE",
"187 527 OFFCURVE",
"203 540 CURVE",
"221 552 OFFCURVE",
"247 561 OFFCURVE",
"266 553 CURVE",
"291 541 OFFCURVE",
"306 510 OFFCURVE",
"309 473 CURVE SMOOTH",
"313 421 LINE"
);
}
);
width = 484;
}
);
leftKerningGroup = G;
note = Ocircumflex;
rightKerningGroup = O;
unicode = 00D4;
},
{
glyphname = Otilde;
layers = (
{
hints = (
{
horizontal = 1;
place = "{-19, 21}";
target = up;
type = BottomGhost;
},
{
horizontal = 1;
place = "{913, -20}";
target = down;
type = TopGhost;
},
{
place = "{16, 144}";
type = Stem;
},
{
place = "{315, 153}";
type = Stem;
},
{
horizontal = 1;
place = "{740, 164}";
type = Stem;
}
);
layerId = "4AB56EE0-9DC5-4ACD-ABD7-6439ED5BAAD5";
paths = (
{
closed = 1;
nodes = (
"153 782 OFFCURVE",
"206 834 OFFCURVE",
"235 784 CURVE",
"253 742 OFFCURVE",
"306 726 OFFCURVE",
"353 733 CURVE",
"427 748 OFFCURVE",
"467 835 OFFCURVE",
"458 905 CURVE",
"434 904 LINE",
"395 904 OFFCURVE",
"375 904 OFFCURVE",
"348 901 CURVE",
"341 881 OFFCURVE",
"319 827 OFFCURVE",
"295 847 CURVE",
"275 862 OFFCURVE",
"265 883 OFFCURVE",
"245 896 CURVE SMOOTH",
"228 907 OFFCURVE",
"205 913 OFFCURVE",
"184 913 CURVE SMOOTH",
"149 913 OFFCURVE",
"114 899 OFFCURVE",
"91 876 CURVE",
"62 844 OFFCURVE",
"34 768 OFFCURVE",
"25 738 CURVE",
"42 739 OFFCURVE",
"76 740 OFFCURVE",
"91 740 CURVE SMOOTH",
"116 740 OFFCURVE",
"143 739 OFFCURVE",
"176 738 CURVE"
);
},
{
closed = 1;
nodes = (
"444 614 OFFCURVE",
"428 636 OFFCURVE",
"405 657 CURVE",
"362 690 OFFCURVE",
"302 706 OFFCURVE",
"240 706 CURVE SMOOTH",
"190 706 OFFCURVE",
"141 695 OFFCURVE",
"100 675 CURVE SMOOTH",
"81 665 OFFCURVE",
"79 664 OFFCURVE",
"78 663 CURVE",
"34 611 OFFCURVE",
"19 539 OFFCURVE",
"16 482 CURVE SMOOTH",
"14 451 OFFCURVE",
"13 421 OFFCURVE",
"13 390 CURVE SMOOTH",
"13 342 OFFCURVE",
"15 282 OFFCURVE",
"18 233 CURVE",
"18 227 OFFCURVE",
"18 208 OFFCURVE",
"19 200 CURVE",
"19 193 OFFCURVE",
"20 177 OFFCURVE",
"21 168 CURVE",
"22 134 OFFCURVE",
"29 89 OFFCURVE",
"47 55 CURVE SMOOTH",
"73 6 OFFCURVE",
"134 -13 OFFCURVE",
"191 -18 CURVE SMOOTH",
"200 -19 OFFCURVE",
"214 -19 OFFCURVE",
"223 -19 CURVE SMOOTH",
"254 -19 OFFCURVE",
"283 -16 OFFCURVE",
"310 -8 CURVE SMOOTH",
"353 4 OFFCURVE",
"400 25 OFFCURVE",
"421 55 CURVE",
"448 98 OFFCURVE",
"459 147 OFFCURVE",
"462 193 CURVE SMOOTH",
"465 226 LINE SMOOTH",
"468 263 OFFCURVE",
"468 298 OFFCURVE",
"468 334 CURVE SMOOTH",
"468 366 OFFCURVE",
"468 398 OFFCURVE",
"470 431 CURVE",
"470 449 LINE SMOOTH",
"470 455 OFFCURVE",
"471 461 OFFCURVE",
"471 467 CURVE SMOOTH",
"471 488 OFFCURVE",
"470 509 OFFCURVE",
"468 530 CURVE",
"465 551 OFFCURVE",
"460 571 OFFCURVE",
"451 594 CURVE"
);
},
{
closed = 1;
nodes = (
"313 416 LINE",
"315 348 LINE",
"315 300 LINE SMOOTH",
"315 294 OFFCURVE",
"314 288 OFFCURVE",
"314 281 CURVE SMOOTH",
"314 267 LINE SMOOTH",
"314 261 OFFCURVE",
"313 255 OFFCURVE",
"313 248 CURVE SMOOTH",
"313 244 OFFCURVE",
"312 238 OFFCURVE",
"312 235 CURVE",
"311 227 OFFCURVE",
"311 215 OFFCURVE",
"311 210 CURVE SMOOTH",
"311 187 OFFCURVE",
"310 178 OFFCURVE",
"296 160 CURVE",
"279 141 OFFCURVE",
"256 131 OFFCURVE",
"235 131 CURVE SMOOTH",
"210 131 OFFCURVE",
"184 145 OFFCURVE",
"171 172 CURVE",
"171 171 LINE",
"164 195 OFFCURVE",
"162 220 OFFCURVE",
"160 245 CURVE",
"160 250 OFFCURVE",
"159 254 OFFCURVE",
"159 259 CURVE",
"158 275 OFFCURVE",
"156 297 OFFCURVE",
"153 312 CURVE",
"153 311 LINE",
"152 328 OFFCURVE",
"152 345 OFFCURVE",
"152 362 CURVE SMOOTH",
"152 400 OFFCURVE",
"154 439 OFFCURVE",
"162 474 CURVE",
"170 500 OFFCURVE",
"187 527 OFFCURVE",
"203 540 CURVE",
"221 552 OFFCURVE",
"247 561 OFFCURVE",
"266 553 CURVE",
"291 541 OFFCURVE",
"306 510 OFFCURVE",
"309 473 CURVE SMOOTH",
"313 421 LINE"
);
}
);
width = 484;
}
);
leftKerningGroup = G;
note = Otilde;
rightKerningGroup = O;
unicode = 00D5;
},
{
glyphname = agrave;
layers = (
{
hints = (
{
horizontal = 1;
place = "{-6, 21}";
target = up;
type = BottomGhost;
},
{
horizontal = 1;
place = "{143, 215}";
type = Stem;
},
{
horizontal = 1;
place = "{502, 78}";
type = Stem;
},
{
horizontal = 1;
place = "{767, -20}";
target = down;
type = TopGhost;
},
{
place = "{4, 153}";
type = Stem;
},
{
place = "{278, 179}";
type = Stem;
},
{
horizontal = 1;
place = "{506, -20}";
target = down;
type = TopGhost;
}
);
layerId = "4AB56EE0-9DC5-4ACD-ABD7-6439ED5BAAD5";
paths = (
{
closed = 1;
nodes = (
"99 684 LINE",
"105 678 OFFCURVE",
"120 664 OFFCURVE",
"137 650 CURVE",
"136 650 LINE",
"143 644 LINE SMOOTH",
"167 622 OFFCURVE",
"193 598 OFFCURVE",
"204 583 CURVE",
"225 580 OFFCURVE",
"244 580 OFFCURVE",
"264 580 CURVE SMOOTH",
"302 580 OFFCURVE",
"346 584 OFFCURVE",
"366 589 CURVE",
"356 598 OFFCURVE",
"334 622 OFFCURVE",
"319 637 CURVE SMOOTH",
"299 657 LINE",
"299 656 LINE",
"265 691 OFFCURVE",
"223 735 OFFCURVE",
"181 767 CURVE"
);
},
{
closed = 1;
nodes = (
"440 503 LINE",
"377 506 LINE",
"382 506 OFFCURVE",
"281 515 OFFCURVE",
"278 510 CURVE SMOOTH",
"274 503 OFFCURVE",
"279 494 OFFCURVE",
"279 485 CURVE",
"270 494 OFFCURVE",
"228 502 OFFCURVE",
"187 502 CURVE SMOOTH",
"84 499 OFFCURVE",
"4 401 OFFCURVE",
"4 266 CURVE SMOOTH",
"4 157 OFFCURVE",
"52 -7 OFFCURVE",
"166 -7 CURVE SMOOTH",
"204 -7 OFFCURVE",
"246 7 OFFCURVE",
"279 28 CURVE",
"279 21 LINE SMOOTH",
"279 9 OFFCURVE",
"285 -1 OFFCURVE",
"302 -6 CURVE",
"429 -6 LINE",
"454 -1 OFFCURVE",
"454 14 OFFCURVE",
"454 30 CURVE SMOOTH",
"454 40 LINE",
"456 81 OFFCURVE",
"457 121 OFFCURVE",
"457 161 CURVE SMOOTH",
"457 181 OFFCURVE",
"456 201 OFFCURVE",
"456 221 CURVE SMOOTH",
"456 281 LINE",
"455 316 OFFCURVE",
"455 351 OFFCURVE",
"455 386 CURVE SMOOTH",
"455 412 OFFCURVE",
"455 438 OFFCURVE",
"456 464 CURVE",
"456 479 OFFCURVE",
"454 491 OFFCURVE",
"453 503 CURVE"
);
},
{
closed = 1;
nodes = (
"170 329 OFFCURVE",
"196 358 OFFCURVE",
"241 358 CURVE SMOOTH",
"278 358 OFFCURVE",
"278 349 OFFCURVE",
"278 273 CURVE SMOOTH",
"278 247 LINE SMOOTH",
"278 182 OFFCURVE",
"278 143 OFFCURVE",
"231 143 CURVE SMOOTH",
"184 143 OFFCURVE",
"157 189 OFFCURVE",
"157 246 CURVE SMOOTH",
"157 262 OFFCURVE",
"158 281 OFFCURVE",
"163 298 CURVE"
);
}
);
width = 476;
}
);
leftKerningGroup = agrave;
note = agrave;
rightKerningGroup = q;
unicode = 00E0;
},
{
glyphname = aacute;
layers = (
{
hints = (
{
horizontal = 1;
place = "{-6, 21}";
target = up;
type = BottomGhost;
},
{
horizontal = 1;
place = "{143, 215}";
type = Stem;
},
{
horizontal = 1;
place = "{502, 78}";
type = Stem;
},
{
horizontal = 1;
place = "{767, -20}";
target = down;
type = TopGhost;
},
{
place = "{4, 153}";
type = Stem;
},
{
place = "{278, 179}";
type = Stem;
},
{
horizontal = 1;
place = "{506, -20}";
target = down;
type = TopGhost;
}
);
layerId = "4AB56EE0-9DC5-4ACD-ABD7-6439ED5BAAD5";
paths = (
{
closed = 1;
nodes = (
"408 682 LINE",
"327 767 LINE",
"289 736 OFFCURVE",
"247 694 OFFCURVE",
"210 656 CURVE SMOOTH",
"192 637 OFFCURVE",
"164 608 OFFCURVE",
"143 590 CURVE",
"163 584 OFFCURVE",
"209 580 OFFCURVE",
"245 580 CURVE SMOOTH",
"265 580 OFFCURVE",
"286 580 OFFCURVE",
"307 583 CURVE",
"317 603 OFFCURVE",
"349 631 OFFCURVE",
"374 652 CURVE SMOOTH"
);
},
{
closed = 1;
nodes = (
"440 503 LINE",
"377 506 LINE",
"382 506 OFFCURVE",
"281 515 OFFCURVE",
"278 510 CURVE SMOOTH",
"274 503 OFFCURVE",
"279 494 OFFCURVE",
"279 485 CURVE",
"270 494 OFFCURVE",
"228 502 OFFCURVE",
"187 502 CURVE SMOOTH",
"84 499 OFFCURVE",
"4 401 OFFCURVE",
"4 266 CURVE SMOOTH",
"4 157 OFFCURVE",
"52 -7 OFFCURVE",
"166 -7 CURVE SMOOTH",
"204 -7 OFFCURVE",
"246 7 OFFCURVE",
"279 28 CURVE",
"279 21 LINE SMOOTH",
"279 9 OFFCURVE",
"285 -1 OFFCURVE",
"302 -6 CURVE",
"429 -6 LINE",
"454 -1 OFFCURVE",
"454 14 OFFCURVE",
"454 30 CURVE SMOOTH",
"454 40 LINE",
"456 81 OFFCURVE",
"457 121 OFFCURVE",
"457 161 CURVE SMOOTH",
"457 181 OFFCURVE",
"456 201 OFFCURVE",
"456 221 CURVE SMOOTH",
"456 281 LINE",
"455 316 OFFCURVE",
"455 351 OFFCURVE",
"455 386 CURVE SMOOTH",
"455 412 OFFCURVE",
"455 438 OFFCURVE",
"456 464 CURVE",
"456 479 OFFCURVE",
"454 491 OFFCURVE",
"453 503 CURVE"
);
},
{
closed = 1;
nodes = (
"170 329 OFFCURVE",
"196 358 OFFCURVE",
"241 358 CURVE SMOOTH",
"278 358 OFFCURVE",
"278 349 OFFCURVE",
"278 273 CURVE SMOOTH",
"278 247 LINE SMOOTH",
"278 182 OFFCURVE",
"278 143 OFFCURVE",
"231 143 CURVE SMOOTH",
"184 143 OFFCURVE",
"157 189 OFFCURVE",
"157 246 CURVE SMOOTH",
"157 262 OFFCURVE",
"158 281 OFFCURVE",
"163 298 CURVE"
);
}
);
width = 476;
}
);
leftKerningGroup = agrave;
note = aacute;
rightKerningGroup = q;
unicode = 00E1;
},
{
glyphname = acircumflex;
layers = (
{
hints = (
{
horizontal = 1;
place = "{-6, 21}";
target = up;
type = BottomGhost;
},
{
horizontal = 1;
place = "{143, 215}";
type = Stem;
},
{
horizontal = 1;
place = "{503, -20}";
target = down;
type = TopGhost;
},
{
horizontal = 1;
place = "{769, -20}";
target = down;
type = TopGhost;
},
{
place = "{4, 153}";
type = Stem;
},
{
place = "{278, 179}";
type = Stem;
},
{
horizontal = 1;
place = "{502, 86}";
type = Stem;
},
{
horizontal = 1;
place = "{506, -20}";
target = down;
type = TopGhost;
}
);
layerId = "4AB56EE0-9DC5-4ACD-ABD7-6439ED5BAAD5";
paths = (
{
closed = 1;
nodes = (
"254 769 LINE",
"192 708 OFFCURVE",
"128 659 OFFCURVE",
"75 588 CURVE",
"128 584 LINE",
"153 579 OFFCURVE",
"183 580 OFFCURVE",
"207 584 CURVE",
"224 592 OFFCURVE",
"239 609 OFFCURVE",
"252 622 CURVE",
"265 606 OFFCURVE",
"277 585 OFFCURVE",
"299 583 CURVE",
"311 581 OFFCURVE",
"328 581 OFFCURVE",
"338 581 CURVE SMOOTH",
"365 581 OFFCURVE",
"403 579 OFFCURVE",
"420 596 CURVE"
);
},
{
closed = 1;
nodes = (
"440 503 LINE",
"377 506 LINE",
"382 506 OFFCURVE",
"281 515 OFFCURVE",
"278 510 CURVE SMOOTH",
"274 503 OFFCURVE",
"279 494 OFFCURVE",
"279 485 CURVE",
"270 494 OFFCURVE",
"228 502 OFFCURVE",
"187 502 CURVE SMOOTH",
"84 499 OFFCURVE",
"4 401 OFFCURVE",
"4 266 CURVE SMOOTH",
"4 157 OFFCURVE",
"52 -7 OFFCURVE",
"166 -7 CURVE SMOOTH",
"204 -7 OFFCURVE",
"246 7 OFFCURVE",
"279 28 CURVE",
"279 21 LINE SMOOTH",
"279 9 OFFCURVE",
"285 -1 OFFCURVE",
"302 -6 CURVE",
"429 -6 LINE",
"454 -1 OFFCURVE",
"454 14 OFFCURVE",
"454 30 CURVE SMOOTH",
"454 40 LINE",
"456 81 OFFCURVE",
"457 121 OFFCURVE",
"457 161 CURVE SMOOTH",
"457 181 OFFCURVE",
"456 201 OFFCURVE",
"456 221 CURVE SMOOTH",
"456 281 LINE",
"455 316 OFFCURVE",
"455 351 OFFCURVE",
"455 386 CURVE SMOOTH",
"455 412 OFFCURVE",
"455 438 OFFCURVE",
"456 464 CURVE",
"456 479 OFFCURVE",
"454 491 OFFCURVE",
"453 503 CURVE"
);
},
{
closed = 1;
nodes = (
"170 329 OFFCURVE",
"196 358 OFFCURVE",
"241 358 CURVE SMOOTH",
"278 358 OFFCURVE",
"278 349 OFFCURVE",
"278 273 CURVE SMOOTH",
"278 247 LINE SMOOTH",
"278 182 OFFCURVE",
"278 143 OFFCURVE",
"231 143 CURVE SMOOTH",
"184 143 OFFCURVE",
"157 189 OFFCURVE",
"157 246 CURVE SMOOTH",
"157 262 OFFCURVE",
"158 281 OFFCURVE",
"163 298 CURVE"
);
}
);
width = 476;
}
);
leftKerningGroup = agrave;
note = acircumflex;
rightKerningGroup = q;
unicode = 00E2;
},
{
glyphname = ograve;
layers = (
{
hints = (
{
horizontal = 1;
place = "{-16, 154}";
type = Stem;
},
{
horizontal = 1;
place = "{519, 61}";
type = Stem;
},
{
horizontal = 1;
place = "{767, -20}";
target = down;
type = TopGhost;
},
{
place = "{9, 161}";
type = Stem;
},
{
place = "{285, 154}";
type = Stem;
},
{
horizontal = 1;
place = "{-12, 21}";
target = up;
type = BottomGhost;
}
);
layerId = "4AB56EE0-9DC5-4ACD-ABD7-6439ED5BAAD5";
paths = (
{
closed = 1;
nodes = (
"64 684 LINE",
"70 678 OFFCURVE",
"85 664 OFFCURVE",
"102 650 CURVE",
"101 650 LINE",
"108 644 LINE SMOOTH",
"132 622 OFFCURVE",
"158 598 OFFCURVE",
"169 583 CURVE",
"190 580 OFFCURVE",
"209 580 OFFCURVE",
"229 580 CURVE SMOOTH",
"267 580 OFFCURVE",
"311 584 OFFCURVE",
"331 589 CURVE",
"321 598 OFFCURVE",
"299 622 OFFCURVE",
"284 637 CURVE SMOOTH",
"264 657 LINE",
"264 656 LINE",
"230 691 OFFCURVE",
"188 735 OFFCURVE",
"146 767 CURVE"
);
},
{
closed = 1;
nodes = (
"21 452 OFFCURVE",
"5 360 OFFCURVE",
"9 325 CURVE",
"10 211 LINE SMOOTH",
"10 147 OFFCURVE",
"19 77 OFFCURVE",
"65 33 CURVE",
"88 13 OFFCURVE",
"121 -5 OFFCURVE",
"158 -12 CURVE",
"173 -12 OFFCURVE",
"191 -13 OFFCURVE",
"207 -14 CURVE SMOOTH",
"224 -15 OFFCURVE",
"243 -16 OFFCURVE",
"260 -16 CURVE SMOOTH",
"318 -16 OFFCURVE",
"376 -7 OFFCURVE",
"405 34 CURVE",
"431 64 OFFCURVE",
"436 177 OFFCURVE",
"439 255 CURVE",
"439 314 OFFCURVE",
"444 433 OFFCURVE",
"392 474 CURVE",
"365 501 OFFCURVE",
"319 515 OFFCURVE",
"275 518 CURVE",
"264 520 OFFCURVE",
"244 519 OFFCURVE",
"233 518 CURVE",
"225 518 OFFCURVE",
"202 518 OFFCURVE",
"197 519 CURVE",
"126 519 OFFCURVE",
"51 501 OFFCURVE",
"35 461 CURVE"
);
},
{
closed = 1;
nodes = (
"180 333 LINE",
"184 346 OFFCURVE",
"200 352 OFFCURVE",
"209 355 CURVE",
"247 364 OFFCURVE",
"274 342 OFFCURVE",
"281 301 CURVE",
"284 287 OFFCURVE",
"285 272 OFFCURVE",
"285 258 CURVE SMOOTH",
"285 235 OFFCURVE",
"282 210 OFFCURVE",
"279 185 CURVE",
"279 183 OFFCURVE",
"278 181 OFFCURVE",
"278 180 CURVE",
"273 164 OFFCURVE",
"267 149 OFFCURVE",
"263 147 CURVE",
"252 142 OFFCURVE",
"237 138 OFFCURVE",
"223 138 CURVE SMOOTH",
"197 138 OFFCURVE",
"172 157 OFFCURVE",
"170 188 CURVE",
"171 203 OFFCURVE",
"172 229 OFFCURVE",
"172 243 CURVE",
"173 263 LINE SMOOTH",
"174 280 OFFCURVE",
"174 302 OFFCURVE",
"176 317 CURVE"
);
}
);
width = 448;
}
);
leftKerningGroup = o;
note = ograve;
rightKerningGroup = o;
unicode = 00F2;
},
{
glyphname = oacute;
layers = (
{
hints = (
{
horizontal = 1;
place = "{-16, 154}";
type = Stem;
},
{
horizontal = 1;
place = "{519, 61}";
type = Stem;
},
{
horizontal = 1;
place = "{767, -20}";
target = down;
type = TopGhost;
},
{
place = "{9, 161}";
type = Stem;
},
{
place = "{285, 154}";
type = Stem;
},
{
horizontal = 1;
place = "{-12, 21}";
target = up;
type = BottomGhost;
}
);
layerId = "4AB56EE0-9DC5-4ACD-ABD7-6439ED5BAAD5";
paths = (
{
closed = 1;
nodes = (
"393 682 LINE",
"312 767 LINE",
"274 736 OFFCURVE",
"232 694 OFFCURVE",
"195 656 CURVE SMOOTH",
"177 637 OFFCURVE",
"149 608 OFFCURVE",
"128 590 CURVE",
"148 584 OFFCURVE",
"194 580 OFFCURVE",
"230 580 CURVE SMOOTH",
"250 580 OFFCURVE",
"271 580 OFFCURVE",
"292 583 CURVE",
"302 603 OFFCURVE",
"334 631 OFFCURVE",
"359 652 CURVE SMOOTH"
);
},
{
closed = 1;
nodes = (
"21 452 OFFCURVE",
"5 360 OFFCURVE",
"9 325 CURVE",
"10 211 LINE SMOOTH",
"10 147 OFFCURVE",
"19 77 OFFCURVE",
"65 33 CURVE",
"88 13 OFFCURVE",
"121 -5 OFFCURVE",
"158 -12 CURVE",
"173 -12 OFFCURVE",
"191 -13 OFFCURVE",
"207 -14 CURVE SMOOTH",
"224 -15 OFFCURVE",
"243 -16 OFFCURVE",
"260 -16 CURVE SMOOTH",
"318 -16 OFFCURVE",
"376 -7 OFFCURVE",
"405 34 CURVE",
"431 64 OFFCURVE",
"436 177 OFFCURVE",
"439 255 CURVE",
"439 314 OFFCURVE",
"444 433 OFFCURVE",
"392 474 CURVE",
"365 501 OFFCURVE",
"319 515 OFFCURVE",
"275 518 CURVE",
"264 520 OFFCURVE",
"244 519 OFFCURVE",
"233 518 CURVE",
"225 518 OFFCURVE",
"202 518 OFFCURVE",
"197 519 CURVE",
"126 519 OFFCURVE",
"51 501 OFFCURVE",
"35 461 CURVE"
);
},
{
closed = 1;
nodes = (
"180 333 LINE",
"184 346 OFFCURVE",
"200 352 OFFCURVE",
"209 355 CURVE",
"247 364 OFFCURVE",
"274 342 OFFCURVE",
"281 301 CURVE",
"284 287 OFFCURVE",
"285 272 OFFCURVE",
"285 258 CURVE SMOOTH",
"285 235 OFFCURVE",
"282 210 OFFCURVE",
"279 185 CURVE",
"279 183 OFFCURVE",
"278 181 OFFCURVE",
"278 180 CURVE",
"273 164 OFFCURVE",
"267 149 OFFCURVE",
"263 147 CURVE",
"252 142 OFFCURVE",
"237 138 OFFCURVE",
"223 138 CURVE SMOOTH",
"197 138 OFFCURVE",
"172 157 OFFCURVE",
"170 188 CURVE",
"171 203 OFFCURVE",
"172 229 OFFCURVE",
"172 243 CURVE",
"173 263 LINE SMOOTH",
"174 280 OFFCURVE",
"174 302 OFFCURVE",
"176 317 CURVE"
);
}
);
width = 448;
}
);
leftKerningGroup = o;
note = oacute;
rightKerningGroup = o;
unicode = 00F3;
},
{
glyphname = ocircumflex;
layers = (
{
hints = (
{
horizontal = 1;
place = "{-16, 154}";
type = Stem;
},
{
horizontal = 1;
place = "{519, 69}";
type = Stem;
},
{
horizontal = 1;
place = "{769, -20}";
target = down;
type = TopGhost;
},
{
place = "{9, 161}";
type = Stem;
},
{
place = "{285, 154}";
type = Stem;
},
{
horizontal = 1;
place = "{-12, 21}";
target = up;
type = BottomGhost;
}
);
layerId = "4AB56EE0-9DC5-4ACD-ABD7-6439ED5BAAD5";
paths = (
{
closed = 1;
nodes = (
"235 769 LINE",
"173 708 OFFCURVE",
"109 659 OFFCURVE",
"56 588 CURVE",
"109 584 LINE",
"134 579 OFFCURVE",
"164 580 OFFCURVE",
"188 584 CURVE",
"205 592 OFFCURVE",
"220 609 OFFCURVE",
"233 622 CURVE",
"246 606 OFFCURVE",
"258 585 OFFCURVE",
"280 583 CURVE",
"292 581 OFFCURVE",
"309 581 OFFCURVE",
"319 581 CURVE SMOOTH",
"346 581 OFFCURVE",
"384 579 OFFCURVE",
"401 596 CURVE"
);
},
{
closed = 1;
nodes = (
"21 452 OFFCURVE",
"5 360 OFFCURVE",
"9 325 CURVE",
"10 211 LINE SMOOTH",
"10 147 OFFCURVE",
"19 77 OFFCURVE",
"65 33 CURVE",
"88 13 OFFCURVE",
"121 -5 OFFCURVE",
"158 -12 CURVE",
"173 -12 OFFCURVE",
"191 -13 OFFCURVE",
"207 -14 CURVE SMOOTH",
"224 -15 OFFCURVE",
"243 -16 OFFCURVE",
"260 -16 CURVE SMOOTH",
"318 -16 OFFCURVE",
"376 -7 OFFCURVE",
"405 34 CURVE",
"431 64 OFFCURVE",
"436 177 OFFCURVE",
"439 255 CURVE",
"439 314 OFFCURVE",
"444 433 OFFCURVE",
"392 474 CURVE",
"365 501 OFFCURVE",
"319 515 OFFCURVE",
"275 518 CURVE",
"264 520 OFFCURVE",
"244 519 OFFCURVE",
"233 518 CURVE",
"225 518 OFFCURVE",
"202 518 OFFCURVE",
"197 519 CURVE",
"126 519 OFFCURVE",
"51 501 OFFCURVE",
"35 461 CURVE"
);
},
{
closed = 1;
nodes = (
"180 333 LINE",
"184 346 OFFCURVE",
"200 352 OFFCURVE",
"209 355 CURVE",
"247 364 OFFCURVE",
"274 342 OFFCURVE",
"281 301 CURVE",
"284 287 OFFCURVE",
"285 272 OFFCURVE",
"285 258 CURVE SMOOTH",
"285 235 OFFCURVE",
"282 210 OFFCURVE",
"279 185 CURVE",
"279 183 OFFCURVE",
"278 181 OFFCURVE",
"278 180 CURVE",
"273 164 OFFCURVE",
"267 149 OFFCURVE",
"263 147 CURVE",
"252 142 OFFCURVE",
"237 138 OFFCURVE",
"223 138 CURVE SMOOTH",
"197 138 OFFCURVE",
"172 157 OFFCURVE",
"170 188 CURVE",
"171 203 OFFCURVE",
"172 229 OFFCURVE",
"172 243 CURVE",
"173 263 LINE SMOOTH",
"174 280 OFFCURVE",
"174 302 OFFCURVE",
"176 317 CURVE"
);
}
);
width = 448;
}
);
leftKerningGroup = o;
note = ocircumflex;
rightKerningGroup = o;
unicode = 00F4;
},
{
glyphname = otilde;
layers = (
{
hints = (
{
horizontal = 1;
place = "{-12, 21}";
target = up;
type = BottomGhost;
},
{
horizontal = 1;
place = "{586, 164}";
type = Stem;
},
{
place = "{9, 161}";
type = Stem;
},
{
place = "{285, 154}";
type = Stem;
},
{
horizontal = 1;
place = "{759, -20}";
target = down;
type = TopGhost;
},
{
horizontal = 1;
place = "{-16, 154}";
type = Stem;
}
);
layerId = "4AB56EE0-9DC5-4ACD-ABD7-6439ED5BAAD5";
paths = (
{
closed = 1;
nodes = (
"132 628 OFFCURVE",
"185 680 OFFCURVE",
"214 630 CURVE",
"232 588 OFFCURVE",
"285 572 OFFCURVE",
"332 579 CURVE",
"406 594 OFFCURVE",
"446 681 OFFCURVE",
"437 751 CURVE",
"413 750 LINE",
"374 750 OFFCURVE",
"354 750 OFFCURVE",
"327 747 CURVE",
"320 727 OFFCURVE",
"298 673 OFFCURVE",
"274 693 CURVE",
"254 708 OFFCURVE",
"244 729 OFFCURVE",
"224 742 CURVE SMOOTH",
"207 753 OFFCURVE",
"184 759 OFFCURVE",
"163 759 CURVE SMOOTH",
"128 759 OFFCURVE",
"93 745 OFFCURVE",
"70 722 CURVE",
"41 690 OFFCURVE",
"13 614 OFFCURVE",
"4 584 CURVE",
"21 585 OFFCURVE",
"55 586 OFFCURVE",
"70 586 CURVE SMOOTH",
"95 586 OFFCURVE",
"122 585 OFFCURVE",
"155 584 CURVE"
);
},
{
closed = 1;
nodes = (
"21 452 OFFCURVE",
"5 360 OFFCURVE",
"9 325 CURVE",
"10 211 LINE SMOOTH",
"10 147 OFFCURVE",
"19 77 OFFCURVE",
"65 33 CURVE",
"88 13 OFFCURVE",
"121 -5 OFFCURVE",
"158 -12 CURVE",
"173 -12 OFFCURVE",
"191 -13 OFFCURVE",
"207 -14 CURVE SMOOTH",
"224 -15 OFFCURVE",
"243 -16 OFFCURVE",
"260 -16 CURVE SMOOTH",
"318 -16 OFFCURVE",
"376 -7 OFFCURVE",
"405 34 CURVE",
"431 64 OFFCURVE",
"436 177 OFFCURVE",
"439 255 CURVE",
"439 314 OFFCURVE",
"444 433 OFFCURVE",
"392 474 CURVE",
"365 501 OFFCURVE",
"319 515 OFFCURVE",
"275 518 CURVE",
"264 520 OFFCURVE",
"244 519 OFFCURVE",
"233 518 CURVE",
"225 518 OFFCURVE",
"202 518 OFFCURVE",
"197 519 CURVE",
"126 519 OFFCURVE",
"51 501 OFFCURVE",
"35 461 CURVE"
);
},
{
closed = 1;
nodes = (
"180 333 LINE",
"184 346 OFFCURVE",
"200 352 OFFCURVE",
"209 355 CURVE",
"247 364 OFFCURVE",
"274 342 OFFCURVE",
"281 301 CURVE",
"284 287 OFFCURVE",
"285 272 OFFCURVE",
"285 258 CURVE SMOOTH",
"285 235 OFFCURVE",
"282 210 OFFCURVE",
"279 185 CURVE",
"279 183 OFFCURVE",
"278 181 OFFCURVE",
"278 180 CURVE",
"273 164 OFFCURVE",
"267 149 OFFCURVE",
"263 147 CURVE",
"252 142 OFFCURVE",
"237 138 OFFCURVE",
"223 138 CURVE SMOOTH",
"197 138 OFFCURVE",
"172 157 OFFCURVE",
"170 188 CURVE",
"171 203 OFFCURVE",
"172 229 OFFCURVE",
"172 243 CURVE",
"173 263 LINE SMOOTH",
"174 280 OFFCURVE",
"174 302 OFFCURVE",
"176 317 CURVE"
);
}
);
width = 448;
}
);
leftKerningGroup = o;
note = otilde;
rightKerningGroup = o;
unicode = 00F5;
},
{
glyphname = Edieresis;
layers = (
{
hints = (
{
horizontal = 1;
place = "{-2, 142}";
type = Stem;
},
{
horizontal = 1;
place = "{536, 158}";
type = Stem;
},
{
horizontal = 1;
place = "{753, 119}";
type = Stem;
},
{
place = "{24, 189}";
type = Stem;
}
);
layerId = "4AB56EE0-9DC5-4ACD-ABD7-6439ED5BAAD5";
paths = (
{
closed = 1;
nodes = (
"223 753 LINE",
"228 816 LINE SMOOTH",
"229 828 OFFCURVE",
"229 838 OFFCURVE",
"230 846 CURVE",
"231 852 OFFCURVE",
"231 860 OFFCURVE",
"231 862 CURVE",
"216 869 OFFCURVE",
"191 872 OFFCURVE",
"168 872 CURVE SMOOTH",
"142 872 OFFCURVE",
"110 868 OFFCURVE",
"92 862 CURVE",
"92 852 LINE SMOOTH",
"92 849 OFFCURVE",
"91 846 OFFCURVE",
"91 841 CURVE SMOOTH",
"91 824 LINE SMOOTH",
"91 817 OFFCURVE",
"90 810 OFFCURVE",
"90 803 CURVE SMOOTH",
"90 787 OFFCURVE",
"91 769 OFFCURVE",
"94 754 CURVE"
);
},
{
closed = 1;
nodes = (
"397 753 LINE",
"402 816 LINE SMOOTH",
"403 828 OFFCURVE",
"403 838 OFFCURVE",
"404 846 CURVE",
"405 852 OFFCURVE",
"405 860 OFFCURVE",
"405 862 CURVE",
"390 869 OFFCURVE",
"365 872 OFFCURVE",
"342 872 CURVE SMOOTH",
"316 872 OFFCURVE",
"284 868 OFFCURVE",
"266 862 CURVE",
"266 852 LINE SMOOTH",
"266 849 OFFCURVE",
"265 846 OFFCURVE",
"265 841 CURVE SMOOTH",
"265 824 LINE SMOOTH",
"265 817 OFFCURVE",
"264 810 OFFCURVE",
"264 803 CURVE SMOOTH",
"264 787 OFFCURVE",
"265 769 OFFCURVE",
"268 754 CURVE"
);
},
{
closed = 1;
nodes = (
"462 141 OFFCURVE",
"432 140 OFFCURVE",
"417 140 CURVE SMOOTH",
"349 140 OFFCURVE",
"283 146 OFFCURVE",
"215 146 CURVE",
"212 166 OFFCURVE",
"211 190 OFFCURVE",
"211 214 CURVE",
"215 266 LINE",
"221 270 OFFCURVE",
"231 267 OFFCURVE",
"250 267 CURVE SMOOTH",
"274 267 OFFCURVE",
"304 267 OFFCURVE",
"336 276 CURVE",
"339 372 OFFCURVE",
"338 392 OFFCURVE",
"333 421 CURVE",
"320 422 LINE SMOOTH",
"306 423 OFFCURVE",
"289 424 OFFCURVE",
"278 424 CURVE",
"212 416 LINE",
"207 431 OFFCURVE",
"206 445 OFFCURVE",
"206 458 CURVE SMOOTH",
"206 479 OFFCURVE",
"209 517 OFFCURVE",
"211 536 CURVE",
"341 537 LINE SMOOTH",
"381 537 OFFCURVE",
"424 539 OFFCURVE",
"475 550 CURVE",
"475 600 OFFCURVE",
"484 650 OFFCURVE",
"475 698 CURVE",
"354 709 OFFCURVE",
"172 698 OFFCURVE",
"31 694 CURVE",
"26 610 OFFCURVE",
"24 522 OFFCURVE",
"24 439 CURVE SMOOTH",
"24 373 OFFCURVE",
"31 52 OFFCURVE",
"30 1 CURVE",
"175 -10 OFFCURVE",
"323 -2 OFFCURVE",
"469 -2 CURVE",
"477 27 OFFCURVE",
"480 59 OFFCURVE",
"480 89 CURVE SMOOTH",
"480 104 OFFCURVE",
"479 119 OFFCURVE",
"478 142 CURVE"
);
}
);
width = 481;
}
);
note = Edieresis;
rightKerningGroup = E;
unicode = 00CB;
},
{
glyphname = exclamdown;
layers = (
{
hints = (
{
horizontal = 1;
place = "{-82, 21}";
target = up;
type = BottomGhost;
},
{
horizontal = 1;
place = "{504, 131}";
type = Stem;
},
{
place = "{27, 157}";
type = Stem;
},
{
horizontal = 1;
place = "{506, -20}";
target = down;
type = TopGhost;
},
{
horizontal = 1;
place = "{502, -20}";
target = down;
type = TopGhost;
},
{
horizontal = 1;
place = "{466, 38}";
type = Stem;
}
);
layerId = "4AB56EE0-9DC5-4ACD-ABD7-6439ED5BAAD5";
paths = (
{
closed = 1;
nodes = (
"91 635 LINE",
"62 635 LINE SMOOTH",
"59 635 OFFCURVE",
"55 636 OFFCURVE",
"51 636 CURVE SMOOTH",
"29 636 LINE",
"29 609 OFFCURVE",
"28 573 OFFCURVE",
"27 545 CURVE",
"27 539 OFFCURVE",
"26 533 OFFCURVE",
"26 527 CURVE SMOOTH",
"26 506 LINE",
"38 506 OFFCURVE",
"66 505 OFFCURVE",
"79 504 CURVE SMOOTH",
"93 503 OFFCURVE",
"108 502 OFFCURVE",
"122 502 CURVE SMOOTH",
"141 502 OFFCURVE",
"159 503 OFFCURVE",
"178 511 CURVE",
"178 527 OFFCURVE",
"179 547 OFFCURVE",
"181 566 CURVE SMOOTH",
"182 579 OFFCURVE",
"183 593 OFFCURVE",
"183 604 CURVE SMOOTH",
"183 623 OFFCURVE",
"180 636 OFFCURVE",
"166 636 CURVE SMOOTH"
);
},
{
closed = 1;
nodes = (
"184 -75 LINE",
"186 286 OFFCURVE",
"186 321 OFFCURVE",
"186 356 CURVE SMOOTH",
"186 391 OFFCURVE",
"186 432 OFFCURVE",
"187 467 CURVE",
"162 466 LINE",
"142 466 LINE SMOOTH",
"135 466 OFFCURVE",
"129 465 OFFCURVE",
"122 465 CURVE",
"95 464 OFFCURVE",
"64 464 OFFCURVE",
"27 461 CURVE",
"31 384 OFFCURVE",
"32 299 OFFCURVE",
"32 219 CURVE SMOOTH",
"32 126 OFFCURVE",
"31 34 OFFCURVE",
"28 -56 CURVE SMOOTH",
"28 -74 LINE",
"50 -81 OFFCURVE",
"68 -82 OFFCURVE",
"86 -82 CURVE",
"97 -83 OFFCURVE",
"156 -75 OFFCURVE",
"168 -75 CURVE SMOOTH"
);
}
);
width = 216;
}
);
note = exclamdown;
unicode = 00A1;
},
